%TF.GenerationSoftware,KiCad,Pcbnew,(5.1.7)-1*%
%TF.CreationDate,2021-03-19T19:49:46+01:00*%
%TF.ProjectId,LowNoise5V,4c6f774e-6f69-4736-9535-562e6b696361,rev?*%
%TF.SameCoordinates,Original*%
%TF.FileFunction,Copper,L2,Bot*%
%TF.FilePolarity,Positive*%
%FSLAX46Y46*%
G04 Gerber Fmt 4.6, Leading zero omitted, Abs format (unit mm)*
G04 Created by KiCad (PCBNEW (5.1.7)-1) date 2021-03-19 19:49:46*
%MOMM*%
%LPD*%
G01*
G04 APERTURE LIST*
%TA.AperFunction,ComponentPad*%
%ADD10R,2.600000X2.600000*%
%TD*%
%TA.AperFunction,ComponentPad*%
%ADD11C,2.600000*%
%TD*%
%TA.AperFunction,ComponentPad*%
%ADD12C,3.500000*%
%TD*%
%TA.AperFunction,ComponentPad*%
%ADD13C,1.600000*%
%TD*%
%TA.AperFunction,ComponentPad*%
%ADD14R,1.500000X1.600000*%
%TD*%
%TA.AperFunction,ComponentPad*%
%ADD15C,3.000000*%
%TD*%
%TA.AperFunction,ComponentPad*%
%ADD16C,2.300000*%
%TD*%
%TA.AperFunction,ComponentPad*%
%ADD17R,2.000000X2.300000*%
%TD*%
%TA.AperFunction,ComponentPad*%
%ADD18C,6.400000*%
%TD*%
%TA.AperFunction,ComponentPad*%
%ADD19C,0.800000*%
%TD*%
%TA.AperFunction,ComponentPad*%
%ADD20C,1.250000*%
%TD*%
%TA.AperFunction,ComponentPad*%
%ADD21R,1.600000X1.600000*%
%TD*%
%TA.AperFunction,ComponentPad*%
%ADD22C,2.000000*%
%TD*%
%TA.AperFunction,Conductor*%
%ADD23C,0.200000*%
%TD*%
%TA.AperFunction,Conductor*%
%ADD24C,3.000000*%
%TD*%
%TA.AperFunction,Conductor*%
%ADD25C,0.254000*%
%TD*%
%TA.AperFunction,Conductor*%
%ADD26C,0.100000*%
%TD*%
G04 APERTURE END LIST*
D10*
%TO.P,J2,1*%
%TO.N,AC_Line*%
X7000000Y-29500000D03*
D11*
%TO.P,J2,2*%
%TO.N,AC_Neutral*%
X7000000Y-24500000D03*
%TD*%
D12*
%TO.P,F1,2*%
%TO.N,AC_Line*%
X18250000Y-15700000D03*
%TO.P,F1,1*%
%TO.N,Net-(C1-Pad1)*%
X18250000Y-38300000D03*
%TD*%
D13*
%TO.P,J1,4*%
%TO.N,GND*%
X69000000Y-24000000D03*
%TO.P,J1,3*%
%TO.N,Net-(J1-Pad3)*%
X69000000Y-26500000D03*
%TO.P,J1,2*%
%TO.N,Net-(J1-Pad2)*%
X69000000Y-28500000D03*
D14*
%TO.P,J1,1*%
%TO.N,+5V*%
X69000000Y-31000000D03*
D15*
%TO.P,J1,5*%
%TO.N,GND*%
X71710000Y-20930000D03*
X71710000Y-34070000D03*
%TD*%
D16*
%TO.P,PS1,4*%
%TO.N,+5V*%
X57200000Y-10600000D03*
%TO.P,PS1,2*%
%TO.N,Net-(FL1-Pad3)*%
X52000000Y-40000000D03*
D17*
%TO.P,PS1,1*%
%TO.N,Net-(FL1-Pad2)*%
X47000000Y-40000000D03*
D16*
%TO.P,PS1,3*%
%TO.N,GND*%
X41800000Y-10600000D03*
%TD*%
D18*
%TO.P,REF\u002A\u002A,1*%
%TO.N,N/C*%
X74000000Y-7000000D03*
D19*
X76400000Y-7000000D03*
X75697056Y-8697056D03*
X74000000Y-9400000D03*
X72302944Y-8697056D03*
X71600000Y-7000000D03*
X72302944Y-5302944D03*
X74000000Y-4600000D03*
X75697056Y-5302944D03*
%TD*%
%TO.P,REF\u002A\u002A,1*%
%TO.N,N/C*%
X75697056Y-45302944D03*
X74000000Y-44600000D03*
X72302944Y-45302944D03*
X71600000Y-47000000D03*
X72302944Y-48697056D03*
X74000000Y-49400000D03*
X75697056Y-48697056D03*
X76400000Y-47000000D03*
D18*
X74000000Y-47000000D03*
%TD*%
%TO.P,REF\u002A\u002A,1*%
%TO.N,N/C*%
X7000000Y-47000000D03*
D19*
X9400000Y-47000000D03*
X8697056Y-48697056D03*
X7000000Y-49400000D03*
X5302944Y-48697056D03*
X4600000Y-47000000D03*
X5302944Y-45302944D03*
X7000000Y-44600000D03*
X8697056Y-45302944D03*
%TD*%
%TO.P,REF\u002A\u002A,1*%
%TO.N,N/C*%
X8697056Y-5302944D03*
X7000000Y-4600000D03*
X5302944Y-5302944D03*
X4600000Y-7000000D03*
X5302944Y-8697056D03*
X7000000Y-9400000D03*
X8697056Y-8697056D03*
X9400000Y-7000000D03*
D18*
X7000000Y-7000000D03*
%TD*%
D20*
%TO.P,FL1,4*%
%TO.N,AC_Neutral*%
X28500000Y-43000000D03*
%TO.P,FL1,3*%
%TO.N,Net-(FL1-Pad3)*%
X35500000Y-43000000D03*
%TO.P,FL1,2*%
%TO.N,Net-(FL1-Pad2)*%
X35500000Y-35000000D03*
%TO.P,FL1,1*%
%TO.N,Net-(C1-Pad1)*%
X28500000Y-35000000D03*
%TD*%
D13*
%TO.P,RV1,2*%
%TO.N,AC_Neutral*%
X33500000Y-12000000D03*
%TO.P,RV1,1*%
%TO.N,Net-(C1-Pad1)*%
X26000000Y-12000000D03*
%TD*%
%TO.P,C3,2*%
%TO.N,GND*%
X67500000Y-13000000D03*
D21*
%TO.P,C3,1*%
%TO.N,+5V*%
X67500000Y-15500000D03*
%TD*%
D22*
%TO.P,C1,2*%
%TO.N,AC_Neutral*%
X33500000Y-23000000D03*
%TO.P,C1,1*%
%TO.N,Net-(C1-Pad1)*%
X26000000Y-23000000D03*
%TD*%
D13*
%TO.P,C5,2*%
%TO.N,GND*%
X77000000Y-39000000D03*
%TO.P,C5,1*%
%TO.N,+5V*%
X72000000Y-39000000D03*
%TD*%
%TO.P,C4,2*%
%TO.N,GND*%
X68000000Y-39000000D03*
%TO.P,C4,1*%
%TO.N,+5V*%
X63000000Y-39000000D03*
%TD*%
%TO.P,C2,2*%
%TO.N,GND*%
X75500000Y-13000000D03*
D21*
%TO.P,C2,1*%
%TO.N,+5V*%
X75500000Y-15500000D03*
%TD*%
D23*
%TO.N,*%
X0Y0D02*
X0Y-500000D01*
X0Y-500000D02*
X500000Y0D01*
X500000Y0D02*
X0Y0D01*
D24*
%TO.N,Net-(C1-Pad1)*%
X25200000Y-38300000D02*
X28500000Y-35000000D01*
X18250000Y-38300000D02*
X25200000Y-38300000D01*
X28500000Y-25500000D02*
X26000000Y-23000000D01*
X28500000Y-35000000D02*
X28500000Y-25500000D01*
X26000000Y-23000000D02*
X26000000Y-12000000D01*
%TO.N,Net-(FL1-Pad2)*%
X42000000Y-35000000D02*
X47000000Y-40000000D01*
X35500000Y-35000000D02*
X42000000Y-35000000D01*
%TO.N,AC_Line*%
X18250000Y-15700000D02*
X18250000Y-24750000D01*
X13500000Y-29500000D02*
X7000000Y-29500000D01*
X18250000Y-24750000D02*
X13500000Y-29500000D01*
%TD*%
D25*
%TO.N,+5V*%
X80340001Y-3273382D02*
X80340000Y-6967581D01*
X80340000Y-6967582D01*
X80340001Y-46967572D01*
X80340000Y-46967582D01*
X80340001Y-50726618D01*
X77726620Y-53340000D01*
X70273381Y-53340000D01*
X67489616Y-50556236D01*
X67468948Y-50531052D01*
X67368450Y-50448575D01*
X67253793Y-50387290D01*
X67129383Y-50349550D01*
X67032419Y-50340000D01*
X67032409Y-50340000D01*
X67000000Y-50336808D01*
X66967591Y-50340000D01*
X57127000Y-50340000D01*
X57127000Y-46622285D01*
X70165000Y-46622285D01*
X70165000Y-47377715D01*
X70312377Y-48118628D01*
X70601467Y-48816554D01*
X71021161Y-49444670D01*
X71555330Y-49978839D01*
X72183446Y-50398533D01*
X72881372Y-50687623D01*
X73622285Y-50835000D01*
X74377715Y-50835000D01*
X75118628Y-50687623D01*
X75816554Y-50398533D01*
X76444670Y-49978839D01*
X76978839Y-49444670D01*
X77398533Y-48816554D01*
X77687623Y-48118628D01*
X77835000Y-47377715D01*
X77835000Y-46622285D01*
X77687623Y-45881372D01*
X77398533Y-45183446D01*
X76978839Y-44555330D01*
X76444670Y-44021161D01*
X75816554Y-43601467D01*
X75118628Y-43312377D01*
X74377715Y-43165000D01*
X73622285Y-43165000D01*
X72881372Y-43312377D01*
X72183446Y-43601467D01*
X71555330Y-44021161D01*
X71021161Y-44555330D01*
X70601467Y-45183446D01*
X70312377Y-45881372D01*
X70165000Y-46622285D01*
X57127000Y-46622285D01*
X57127000Y-39992702D01*
X62186903Y-39992702D01*
X62258486Y-40236671D01*
X62513996Y-40357571D01*
X62788184Y-40426300D01*
X63070512Y-40440217D01*
X63350130Y-40398787D01*
X63616292Y-40303603D01*
X63741514Y-40236671D01*
X63813097Y-39992702D01*
X63000000Y-39179605D01*
X62186903Y-39992702D01*
X57127000Y-39992702D01*
X57127000Y-39070512D01*
X61559783Y-39070512D01*
X61601213Y-39350130D01*
X61696397Y-39616292D01*
X61763329Y-39741514D01*
X62007298Y-39813097D01*
X62820395Y-39000000D01*
X63179605Y-39000000D01*
X63992702Y-39813097D01*
X64236671Y-39741514D01*
X64357571Y-39486004D01*
X64426300Y-39211816D01*
X64440217Y-38929488D01*
X64429724Y-38858665D01*
X66565000Y-38858665D01*
X66565000Y-39141335D01*
X66620147Y-39418574D01*
X66728320Y-39679727D01*
X66885363Y-39914759D01*
X67085241Y-40114637D01*
X67320273Y-40271680D01*
X67581426Y-40379853D01*
X67858665Y-40435000D01*
X68141335Y-40435000D01*
X68418574Y-40379853D01*
X68679727Y-40271680D01*
X68914759Y-40114637D01*
X69036694Y-39992702D01*
X71186903Y-39992702D01*
X71258486Y-40236671D01*
X71513996Y-40357571D01*
X71788184Y-40426300D01*
X72070512Y-40440217D01*
X72350130Y-40398787D01*
X72616292Y-40303603D01*
X72741514Y-40236671D01*
X72813097Y-39992702D01*
X72000000Y-39179605D01*
X71186903Y-39992702D01*
X69036694Y-39992702D01*
X69114637Y-39914759D01*
X69271680Y-39679727D01*
X69379853Y-39418574D01*
X69435000Y-39141335D01*
X69435000Y-39070512D01*
X70559783Y-39070512D01*
X70601213Y-39350130D01*
X70696397Y-39616292D01*
X70763329Y-39741514D01*
X71007298Y-39813097D01*
X71820395Y-39000000D01*
X72179605Y-39000000D01*
X72992702Y-39813097D01*
X73236671Y-39741514D01*
X73357571Y-39486004D01*
X73426300Y-39211816D01*
X73440217Y-38929488D01*
X73429724Y-38858665D01*
X75565000Y-38858665D01*
X75565000Y-39141335D01*
X75620147Y-39418574D01*
X75728320Y-39679727D01*
X75885363Y-39914759D01*
X76085241Y-40114637D01*
X76320273Y-40271680D01*
X76581426Y-40379853D01*
X76858665Y-40435000D01*
X77141335Y-40435000D01*
X77418574Y-40379853D01*
X77679727Y-40271680D01*
X77914759Y-40114637D01*
X78114637Y-39914759D01*
X78271680Y-39679727D01*
X78379853Y-39418574D01*
X78435000Y-39141335D01*
X78435000Y-38858665D01*
X78379853Y-38581426D01*
X78271680Y-38320273D01*
X78114637Y-38085241D01*
X77914759Y-37885363D01*
X77679727Y-37728320D01*
X77418574Y-37620147D01*
X77141335Y-37565000D01*
X76858665Y-37565000D01*
X76581426Y-37620147D01*
X76320273Y-37728320D01*
X76085241Y-37885363D01*
X75885363Y-38085241D01*
X75728320Y-38320273D01*
X75620147Y-38581426D01*
X75565000Y-38858665D01*
X73429724Y-38858665D01*
X73398787Y-38649870D01*
X73303603Y-38383708D01*
X73236671Y-38258486D01*
X72992702Y-38186903D01*
X72179605Y-39000000D01*
X71820395Y-39000000D01*
X71007298Y-38186903D01*
X70763329Y-38258486D01*
X70642429Y-38513996D01*
X70573700Y-38788184D01*
X70559783Y-39070512D01*
X69435000Y-39070512D01*
X69435000Y-38858665D01*
X69379853Y-38581426D01*
X69271680Y-38320273D01*
X69114637Y-38085241D01*
X69036694Y-38007298D01*
X71186903Y-38007298D01*
X72000000Y-38820395D01*
X72813097Y-38007298D01*
X72741514Y-37763329D01*
X72486004Y-37642429D01*
X72211816Y-37573700D01*
X71929488Y-37559783D01*
X71649870Y-37601213D01*
X71383708Y-37696397D01*
X71258486Y-37763329D01*
X71186903Y-38007298D01*
X69036694Y-38007298D01*
X68914759Y-37885363D01*
X68679727Y-37728320D01*
X68418574Y-37620147D01*
X68141335Y-37565000D01*
X67858665Y-37565000D01*
X67581426Y-37620147D01*
X67320273Y-37728320D01*
X67085241Y-37885363D01*
X66885363Y-38085241D01*
X66728320Y-38320273D01*
X66620147Y-38581426D01*
X66565000Y-38858665D01*
X64429724Y-38858665D01*
X64398787Y-38649870D01*
X64303603Y-38383708D01*
X64236671Y-38258486D01*
X63992702Y-38186903D01*
X63179605Y-39000000D01*
X62820395Y-39000000D01*
X62007298Y-38186903D01*
X61763329Y-38258486D01*
X61642429Y-38513996D01*
X61573700Y-38788184D01*
X61559783Y-39070512D01*
X57127000Y-39070512D01*
X57127000Y-38007298D01*
X62186903Y-38007298D01*
X63000000Y-38820395D01*
X63813097Y-38007298D01*
X63741514Y-37763329D01*
X63486004Y-37642429D01*
X63211816Y-37573700D01*
X62929488Y-37559783D01*
X62649870Y-37601213D01*
X62383708Y-37696397D01*
X62258486Y-37763329D01*
X62186903Y-38007298D01*
X57127000Y-38007298D01*
X57127000Y-33859721D01*
X69575000Y-33859721D01*
X69575000Y-34280279D01*
X69657047Y-34692756D01*
X69817988Y-35081302D01*
X70051637Y-35430983D01*
X70349017Y-35728363D01*
X70698698Y-35962012D01*
X71087244Y-36122953D01*
X71499721Y-36205000D01*
X71920279Y-36205000D01*
X72332756Y-36122953D01*
X72721302Y-35962012D01*
X73070983Y-35728363D01*
X73368363Y-35430983D01*
X73602012Y-35081302D01*
X73762953Y-34692756D01*
X73845000Y-34280279D01*
X73845000Y-33859721D01*
X73762953Y-33447244D01*
X73602012Y-33058698D01*
X73368363Y-32709017D01*
X73070983Y-32411637D01*
X72721302Y-32177988D01*
X72332756Y-32017047D01*
X71920279Y-31935000D01*
X71499721Y-31935000D01*
X71087244Y-32017047D01*
X70698698Y-32177988D01*
X70349017Y-32411637D01*
X70051637Y-32709017D01*
X69817988Y-33058698D01*
X69657047Y-33447244D01*
X69575000Y-33859721D01*
X57127000Y-33859721D01*
X57127000Y-31800000D01*
X67611928Y-31800000D01*
X67624188Y-31924482D01*
X67660498Y-32044180D01*
X67719463Y-32154494D01*
X67798815Y-32251185D01*
X67895506Y-32330537D01*
X68005820Y-32389502D01*
X68125518Y-32425812D01*
X68250000Y-32438072D01*
X68714250Y-32435000D01*
X68873000Y-32276250D01*
X68873000Y-31127000D01*
X69127000Y-31127000D01*
X69127000Y-32276250D01*
X69285750Y-32435000D01*
X69750000Y-32438072D01*
X69874482Y-32425812D01*
X69994180Y-32389502D01*
X70104494Y-32330537D01*
X70201185Y-32251185D01*
X70280537Y-32154494D01*
X70339502Y-32044180D01*
X70375812Y-31924482D01*
X70388072Y-31800000D01*
X70385000Y-31285750D01*
X70226250Y-31127000D01*
X69127000Y-31127000D01*
X68873000Y-31127000D01*
X67773750Y-31127000D01*
X67615000Y-31285750D01*
X67611928Y-31800000D01*
X57127000Y-31800000D01*
X57127000Y-26500000D01*
X57124560Y-26475224D01*
X57117333Y-26451399D01*
X57105597Y-26429443D01*
X57089803Y-26410197D01*
X54538271Y-23858665D01*
X67565000Y-23858665D01*
X67565000Y-24141335D01*
X67620147Y-24418574D01*
X67728320Y-24679727D01*
X67885363Y-24914759D01*
X68085241Y-25114637D01*
X68287827Y-25250000D01*
X68085241Y-25385363D01*
X67885363Y-25585241D01*
X67728320Y-25820273D01*
X67620147Y-26081426D01*
X67565000Y-26358665D01*
X67565000Y-26641335D01*
X67620147Y-26918574D01*
X67728320Y-27179727D01*
X67885363Y-27414759D01*
X67970604Y-27500000D01*
X67885363Y-27585241D01*
X67728320Y-27820273D01*
X67620147Y-28081426D01*
X67565000Y-28358665D01*
X67565000Y-28641335D01*
X67620147Y-28918574D01*
X67728320Y-29179727D01*
X67885363Y-29414759D01*
X68063581Y-29592977D01*
X68005820Y-29610498D01*
X67895506Y-29669463D01*
X67798815Y-29748815D01*
X67719463Y-29845506D01*
X67660498Y-29955820D01*
X67624188Y-30075518D01*
X67611928Y-30200000D01*
X67615000Y-30714250D01*
X67773750Y-30873000D01*
X68873000Y-30873000D01*
X68873000Y-30853000D01*
X69127000Y-30853000D01*
X69127000Y-30873000D01*
X70226250Y-30873000D01*
X70385000Y-30714250D01*
X70388072Y-30200000D01*
X70375812Y-30075518D01*
X70339502Y-29955820D01*
X70280537Y-29845506D01*
X70201185Y-29748815D01*
X70104494Y-29669463D01*
X69994180Y-29610498D01*
X69936419Y-29592977D01*
X70114637Y-29414759D01*
X70271680Y-29179727D01*
X70379853Y-28918574D01*
X70435000Y-28641335D01*
X70435000Y-28358665D01*
X70379853Y-28081426D01*
X70271680Y-27820273D01*
X70114637Y-27585241D01*
X70029396Y-27500000D01*
X70114637Y-27414759D01*
X70271680Y-27179727D01*
X70379853Y-26918574D01*
X70435000Y-26641335D01*
X70435000Y-26358665D01*
X70379853Y-26081426D01*
X70271680Y-25820273D01*
X70114637Y-25585241D01*
X69914759Y-25385363D01*
X69712173Y-25250000D01*
X69914759Y-25114637D01*
X70114637Y-24914759D01*
X70271680Y-24679727D01*
X70379853Y-24418574D01*
X70435000Y-24141335D01*
X70435000Y-23858665D01*
X70379853Y-23581426D01*
X70271680Y-23320273D01*
X70114637Y-23085241D01*
X69914759Y-22885363D01*
X69679727Y-22728320D01*
X69418574Y-22620147D01*
X69141335Y-22565000D01*
X68858665Y-22565000D01*
X68581426Y-22620147D01*
X68320273Y-22728320D01*
X68085241Y-22885363D01*
X67885363Y-23085241D01*
X67728320Y-23320273D01*
X67620147Y-23581426D01*
X67565000Y-23858665D01*
X54538271Y-23858665D01*
X51399327Y-20719721D01*
X69575000Y-20719721D01*
X69575000Y-21140279D01*
X69657047Y-21552756D01*
X69817988Y-21941302D01*
X70051637Y-22290983D01*
X70349017Y-22588363D01*
X70698698Y-22822012D01*
X71087244Y-22982953D01*
X71499721Y-23065000D01*
X71920279Y-23065000D01*
X72332756Y-22982953D01*
X72721302Y-22822012D01*
X73070983Y-22588363D01*
X73368363Y-22290983D01*
X73602012Y-21941302D01*
X73762953Y-21552756D01*
X73845000Y-21140279D01*
X73845000Y-20719721D01*
X73762953Y-20307244D01*
X73602012Y-19918698D01*
X73368363Y-19569017D01*
X73070983Y-19271637D01*
X72721302Y-19037988D01*
X72332756Y-18877047D01*
X71920279Y-18795000D01*
X71499721Y-18795000D01*
X71087244Y-18877047D01*
X70698698Y-19037988D01*
X70349017Y-19271637D01*
X70051637Y-19569017D01*
X69817988Y-19918698D01*
X69657047Y-20307244D01*
X69575000Y-20719721D01*
X51399327Y-20719721D01*
X47339803Y-16660197D01*
X47320557Y-16644403D01*
X47298601Y-16632667D01*
X47274776Y-16625440D01*
X47250000Y-16623000D01*
X39627000Y-16623000D01*
X39627000Y-16300000D01*
X66061928Y-16300000D01*
X66074188Y-16424482D01*
X66110498Y-16544180D01*
X66169463Y-16654494D01*
X66248815Y-16751185D01*
X66345506Y-16830537D01*
X66455820Y-16889502D01*
X66575518Y-16925812D01*
X66700000Y-16938072D01*
X67214250Y-16935000D01*
X67373000Y-16776250D01*
X67373000Y-15627000D01*
X67627000Y-15627000D01*
X67627000Y-16776250D01*
X67785750Y-16935000D01*
X68300000Y-16938072D01*
X68424482Y-16925812D01*
X68544180Y-16889502D01*
X68654494Y-16830537D01*
X68751185Y-16751185D01*
X68830537Y-16654494D01*
X68889502Y-16544180D01*
X68925812Y-16424482D01*
X68938072Y-16300000D01*
X74061928Y-16300000D01*
X74074188Y-16424482D01*
X74110498Y-16544180D01*
X74169463Y-16654494D01*
X74248815Y-16751185D01*
X74345506Y-16830537D01*
X74455820Y-16889502D01*
X74575518Y-16925812D01*
X74700000Y-16938072D01*
X75214250Y-16935000D01*
X75373000Y-16776250D01*
X75373000Y-15627000D01*
X75627000Y-15627000D01*
X75627000Y-16776250D01*
X75785750Y-16935000D01*
X76300000Y-16938072D01*
X76424482Y-16925812D01*
X76544180Y-16889502D01*
X76654494Y-16830537D01*
X76751185Y-16751185D01*
X76830537Y-16654494D01*
X76889502Y-16544180D01*
X76925812Y-16424482D01*
X76938072Y-16300000D01*
X76935000Y-15785750D01*
X76776250Y-15627000D01*
X75627000Y-15627000D01*
X75373000Y-15627000D01*
X74223750Y-15627000D01*
X74065000Y-15785750D01*
X74061928Y-16300000D01*
X68938072Y-16300000D01*
X68935000Y-15785750D01*
X68776250Y-15627000D01*
X67627000Y-15627000D01*
X67373000Y-15627000D01*
X66223750Y-15627000D01*
X66065000Y-15785750D01*
X66061928Y-16300000D01*
X39627000Y-16300000D01*
X39627000Y-14700000D01*
X66061928Y-14700000D01*
X66065000Y-15214250D01*
X66223750Y-15373000D01*
X67373000Y-15373000D01*
X67373000Y-15353000D01*
X67627000Y-15353000D01*
X67627000Y-15373000D01*
X68776250Y-15373000D01*
X68935000Y-15214250D01*
X68938072Y-14700000D01*
X74061928Y-14700000D01*
X74065000Y-15214250D01*
X74223750Y-15373000D01*
X75373000Y-15373000D01*
X75373000Y-15353000D01*
X75627000Y-15353000D01*
X75627000Y-15373000D01*
X76776250Y-15373000D01*
X76935000Y-15214250D01*
X76938072Y-14700000D01*
X76925812Y-14575518D01*
X76889502Y-14455820D01*
X76830537Y-14345506D01*
X76751185Y-14248815D01*
X76654494Y-14169463D01*
X76544180Y-14110498D01*
X76448057Y-14081339D01*
X76614637Y-13914759D01*
X76771680Y-13679727D01*
X76879853Y-13418574D01*
X76935000Y-13141335D01*
X76935000Y-12858665D01*
X76879853Y-12581426D01*
X76771680Y-12320273D01*
X76614637Y-12085241D01*
X76414759Y-11885363D01*
X76179727Y-11728320D01*
X75918574Y-11620147D01*
X75641335Y-11565000D01*
X75358665Y-11565000D01*
X75081426Y-11620147D01*
X74820273Y-11728320D01*
X74585241Y-11885363D01*
X74385363Y-12085241D01*
X74228320Y-12320273D01*
X74120147Y-12581426D01*
X74065000Y-12858665D01*
X74065000Y-13141335D01*
X74120147Y-13418574D01*
X74228320Y-13679727D01*
X74385363Y-13914759D01*
X74551943Y-14081339D01*
X74455820Y-14110498D01*
X74345506Y-14169463D01*
X74248815Y-14248815D01*
X74169463Y-14345506D01*
X74110498Y-14455820D01*
X74074188Y-14575518D01*
X74061928Y-14700000D01*
X68938072Y-14700000D01*
X68925812Y-14575518D01*
X68889502Y-14455820D01*
X68830537Y-14345506D01*
X68751185Y-14248815D01*
X68654494Y-14169463D01*
X68544180Y-14110498D01*
X68448057Y-14081339D01*
X68614637Y-13914759D01*
X68771680Y-13679727D01*
X68879853Y-13418574D01*
X68935000Y-13141335D01*
X68935000Y-12858665D01*
X68879853Y-12581426D01*
X68771680Y-12320273D01*
X68614637Y-12085241D01*
X68414759Y-11885363D01*
X68179727Y-11728320D01*
X67918574Y-11620147D01*
X67641335Y-11565000D01*
X67358665Y-11565000D01*
X67081426Y-11620147D01*
X66820273Y-11728320D01*
X66585241Y-11885363D01*
X66385363Y-12085241D01*
X66228320Y-12320273D01*
X66120147Y-12581426D01*
X66065000Y-12858665D01*
X66065000Y-13141335D01*
X66120147Y-13418574D01*
X66228320Y-13679727D01*
X66385363Y-13914759D01*
X66551943Y-14081339D01*
X66455820Y-14110498D01*
X66345506Y-14169463D01*
X66248815Y-14248815D01*
X66169463Y-14345506D01*
X66110498Y-14455820D01*
X66074188Y-14575518D01*
X66061928Y-14700000D01*
X39627000Y-14700000D01*
X39627000Y-10424193D01*
X40015000Y-10424193D01*
X40015000Y-10775807D01*
X40083596Y-11120665D01*
X40218153Y-11445515D01*
X40413500Y-11737871D01*
X40662129Y-11986500D01*
X40954485Y-12181847D01*
X41279335Y-12316404D01*
X41624193Y-12385000D01*
X41975807Y-12385000D01*
X42320665Y-12316404D01*
X42645515Y-12181847D01*
X42937871Y-11986500D01*
X43082022Y-11842349D01*
X56137256Y-11842349D01*
X56251118Y-12122090D01*
X56566296Y-12277961D01*
X56905826Y-12369349D01*
X57256661Y-12392741D01*
X57605319Y-12347240D01*
X57938400Y-12234594D01*
X58148882Y-12122090D01*
X58262744Y-11842349D01*
X57200000Y-10779605D01*
X56137256Y-11842349D01*
X43082022Y-11842349D01*
X43186500Y-11737871D01*
X43381847Y-11445515D01*
X43516404Y-11120665D01*
X43585000Y-10775807D01*
X43585000Y-10656661D01*
X55407259Y-10656661D01*
X55452760Y-11005319D01*
X55565406Y-11338400D01*
X55677910Y-11548882D01*
X55957651Y-11662744D01*
X57020395Y-10600000D01*
X57379605Y-10600000D01*
X58442349Y-11662744D01*
X58722090Y-11548882D01*
X58877961Y-11233704D01*
X58969349Y-10894174D01*
X58992741Y-10543339D01*
X58947240Y-10194681D01*
X58834594Y-9861600D01*
X58722090Y-9651118D01*
X58442349Y-9537256D01*
X57379605Y-10600000D01*
X57020395Y-10600000D01*
X55957651Y-9537256D01*
X55677910Y-9651118D01*
X55522039Y-9966296D01*
X55430651Y-10305826D01*
X55407259Y-10656661D01*
X43585000Y-10656661D01*
X43585000Y-10424193D01*
X43516404Y-10079335D01*
X43381847Y-9754485D01*
X43186500Y-9462129D01*
X43082022Y-9357651D01*
X56137256Y-9357651D01*
X57200000Y-10420395D01*
X58262744Y-9357651D01*
X58148882Y-9077910D01*
X57833704Y-8922039D01*
X57494174Y-8830651D01*
X57143339Y-8807259D01*
X56794681Y-8852760D01*
X56461600Y-8965406D01*
X56251118Y-9077910D01*
X56137256Y-9357651D01*
X43082022Y-9357651D01*
X42937871Y-9213500D01*
X42645515Y-9018153D01*
X42320665Y-8883596D01*
X41975807Y-8815000D01*
X41624193Y-8815000D01*
X41279335Y-8883596D01*
X40954485Y-9018153D01*
X40662129Y-9213500D01*
X40413500Y-9462129D01*
X40218153Y-9754485D01*
X40083596Y-10079335D01*
X40015000Y-10424193D01*
X39627000Y-10424193D01*
X39627000Y-6622285D01*
X70165000Y-6622285D01*
X70165000Y-7377715D01*
X70312377Y-8118628D01*
X70601467Y-8816554D01*
X71021161Y-9444670D01*
X71555330Y-9978839D01*
X72183446Y-10398533D01*
X72881372Y-10687623D01*
X73622285Y-10835000D01*
X74377715Y-10835000D01*
X75118628Y-10687623D01*
X75816554Y-10398533D01*
X76444670Y-9978839D01*
X76978839Y-9444670D01*
X77398533Y-8816554D01*
X77687623Y-8118628D01*
X77835000Y-7377715D01*
X77835000Y-6622285D01*
X77687623Y-5881372D01*
X77398533Y-5183446D01*
X76978839Y-4555330D01*
X76444670Y-4021161D01*
X75816554Y-3601467D01*
X75118628Y-3312377D01*
X74377715Y-3165000D01*
X73622285Y-3165000D01*
X72881372Y-3312377D01*
X72183446Y-3601467D01*
X71555330Y-4021161D01*
X71021161Y-4555330D01*
X70601467Y-5183446D01*
X70312377Y-5881372D01*
X70165000Y-6622285D01*
X39627000Y-6622285D01*
X39627000Y-3660000D01*
X66967591Y-3660000D01*
X67000000Y-3663192D01*
X67032409Y-3660000D01*
X67032419Y-3660000D01*
X67129383Y-3650450D01*
X67253793Y-3612710D01*
X67368450Y-3551425D01*
X67468948Y-3468948D01*
X67489616Y-3443764D01*
X70273381Y-660000D01*
X77726620Y-660000D01*
X80340001Y-3273382D01*
%TA.AperFunction,Conductor*%
D26*
G36*
X80340001Y-3273382D02*
G01*
X80340000Y-6967581D01*
X80340000Y-6967582D01*
X80340001Y-46967572D01*
X80340000Y-46967582D01*
X80340001Y-50726618D01*
X77726620Y-53340000D01*
X70273381Y-53340000D01*
X67489616Y-50556236D01*
X67468948Y-50531052D01*
X67368450Y-50448575D01*
X67253793Y-50387290D01*
X67129383Y-50349550D01*
X67032419Y-50340000D01*
X67032409Y-50340000D01*
X67000000Y-50336808D01*
X66967591Y-50340000D01*
X57127000Y-50340000D01*
X57127000Y-46622285D01*
X70165000Y-46622285D01*
X70165000Y-47377715D01*
X70312377Y-48118628D01*
X70601467Y-48816554D01*
X71021161Y-49444670D01*
X71555330Y-49978839D01*
X72183446Y-50398533D01*
X72881372Y-50687623D01*
X73622285Y-50835000D01*
X74377715Y-50835000D01*
X75118628Y-50687623D01*
X75816554Y-50398533D01*
X76444670Y-49978839D01*
X76978839Y-49444670D01*
X77398533Y-48816554D01*
X77687623Y-48118628D01*
X77835000Y-47377715D01*
X77835000Y-46622285D01*
X77687623Y-45881372D01*
X77398533Y-45183446D01*
X76978839Y-44555330D01*
X76444670Y-44021161D01*
X75816554Y-43601467D01*
X75118628Y-43312377D01*
X74377715Y-43165000D01*
X73622285Y-43165000D01*
X72881372Y-43312377D01*
X72183446Y-43601467D01*
X71555330Y-44021161D01*
X71021161Y-44555330D01*
X70601467Y-45183446D01*
X70312377Y-45881372D01*
X70165000Y-46622285D01*
X57127000Y-46622285D01*
X57127000Y-39992702D01*
X62186903Y-39992702D01*
X62258486Y-40236671D01*
X62513996Y-40357571D01*
X62788184Y-40426300D01*
X63070512Y-40440217D01*
X63350130Y-40398787D01*
X63616292Y-40303603D01*
X63741514Y-40236671D01*
X63813097Y-39992702D01*
X63000000Y-39179605D01*
X62186903Y-39992702D01*
X57127000Y-39992702D01*
X57127000Y-39070512D01*
X61559783Y-39070512D01*
X61601213Y-39350130D01*
X61696397Y-39616292D01*
X61763329Y-39741514D01*
X62007298Y-39813097D01*
X62820395Y-39000000D01*
X63179605Y-39000000D01*
X63992702Y-39813097D01*
X64236671Y-39741514D01*
X64357571Y-39486004D01*
X64426300Y-39211816D01*
X64440217Y-38929488D01*
X64429724Y-38858665D01*
X66565000Y-38858665D01*
X66565000Y-39141335D01*
X66620147Y-39418574D01*
X66728320Y-39679727D01*
X66885363Y-39914759D01*
X67085241Y-40114637D01*
X67320273Y-40271680D01*
X67581426Y-40379853D01*
X67858665Y-40435000D01*
X68141335Y-40435000D01*
X68418574Y-40379853D01*
X68679727Y-40271680D01*
X68914759Y-40114637D01*
X69036694Y-39992702D01*
X71186903Y-39992702D01*
X71258486Y-40236671D01*
X71513996Y-40357571D01*
X71788184Y-40426300D01*
X72070512Y-40440217D01*
X72350130Y-40398787D01*
X72616292Y-40303603D01*
X72741514Y-40236671D01*
X72813097Y-39992702D01*
X72000000Y-39179605D01*
X71186903Y-39992702D01*
X69036694Y-39992702D01*
X69114637Y-39914759D01*
X69271680Y-39679727D01*
X69379853Y-39418574D01*
X69435000Y-39141335D01*
X69435000Y-39070512D01*
X70559783Y-39070512D01*
X70601213Y-39350130D01*
X70696397Y-39616292D01*
X70763329Y-39741514D01*
X71007298Y-39813097D01*
X71820395Y-39000000D01*
X72179605Y-39000000D01*
X72992702Y-39813097D01*
X73236671Y-39741514D01*
X73357571Y-39486004D01*
X73426300Y-39211816D01*
X73440217Y-38929488D01*
X73429724Y-38858665D01*
X75565000Y-38858665D01*
X75565000Y-39141335D01*
X75620147Y-39418574D01*
X75728320Y-39679727D01*
X75885363Y-39914759D01*
X76085241Y-40114637D01*
X76320273Y-40271680D01*
X76581426Y-40379853D01*
X76858665Y-40435000D01*
X77141335Y-40435000D01*
X77418574Y-40379853D01*
X77679727Y-40271680D01*
X77914759Y-40114637D01*
X78114637Y-39914759D01*
X78271680Y-39679727D01*
X78379853Y-39418574D01*
X78435000Y-39141335D01*
X78435000Y-38858665D01*
X78379853Y-38581426D01*
X78271680Y-38320273D01*
X78114637Y-38085241D01*
X77914759Y-37885363D01*
X77679727Y-37728320D01*
X77418574Y-37620147D01*
X77141335Y-37565000D01*
X76858665Y-37565000D01*
X76581426Y-37620147D01*
X76320273Y-37728320D01*
X76085241Y-37885363D01*
X75885363Y-38085241D01*
X75728320Y-38320273D01*
X75620147Y-38581426D01*
X75565000Y-38858665D01*
X73429724Y-38858665D01*
X73398787Y-38649870D01*
X73303603Y-38383708D01*
X73236671Y-38258486D01*
X72992702Y-38186903D01*
X72179605Y-39000000D01*
X71820395Y-39000000D01*
X71007298Y-38186903D01*
X70763329Y-38258486D01*
X70642429Y-38513996D01*
X70573700Y-38788184D01*
X70559783Y-39070512D01*
X69435000Y-39070512D01*
X69435000Y-38858665D01*
X69379853Y-38581426D01*
X69271680Y-38320273D01*
X69114637Y-38085241D01*
X69036694Y-38007298D01*
X71186903Y-38007298D01*
X72000000Y-38820395D01*
X72813097Y-38007298D01*
X72741514Y-37763329D01*
X72486004Y-37642429D01*
X72211816Y-37573700D01*
X71929488Y-37559783D01*
X71649870Y-37601213D01*
X71383708Y-37696397D01*
X71258486Y-37763329D01*
X71186903Y-38007298D01*
X69036694Y-38007298D01*
X68914759Y-37885363D01*
X68679727Y-37728320D01*
X68418574Y-37620147D01*
X68141335Y-37565000D01*
X67858665Y-37565000D01*
X67581426Y-37620147D01*
X67320273Y-37728320D01*
X67085241Y-37885363D01*
X66885363Y-38085241D01*
X66728320Y-38320273D01*
X66620147Y-38581426D01*
X66565000Y-38858665D01*
X64429724Y-38858665D01*
X64398787Y-38649870D01*
X64303603Y-38383708D01*
X64236671Y-38258486D01*
X63992702Y-38186903D01*
X63179605Y-39000000D01*
X62820395Y-39000000D01*
X62007298Y-38186903D01*
X61763329Y-38258486D01*
X61642429Y-38513996D01*
X61573700Y-38788184D01*
X61559783Y-39070512D01*
X57127000Y-39070512D01*
X57127000Y-38007298D01*
X62186903Y-38007298D01*
X63000000Y-38820395D01*
X63813097Y-38007298D01*
X63741514Y-37763329D01*
X63486004Y-37642429D01*
X63211816Y-37573700D01*
X62929488Y-37559783D01*
X62649870Y-37601213D01*
X62383708Y-37696397D01*
X62258486Y-37763329D01*
X62186903Y-38007298D01*
X57127000Y-38007298D01*
X57127000Y-33859721D01*
X69575000Y-33859721D01*
X69575000Y-34280279D01*
X69657047Y-34692756D01*
X69817988Y-35081302D01*
X70051637Y-35430983D01*
X70349017Y-35728363D01*
X70698698Y-35962012D01*
X71087244Y-36122953D01*
X71499721Y-36205000D01*
X71920279Y-36205000D01*
X72332756Y-36122953D01*
X72721302Y-35962012D01*
X73070983Y-35728363D01*
X73368363Y-35430983D01*
X73602012Y-35081302D01*
X73762953Y-34692756D01*
X73845000Y-34280279D01*
X73845000Y-33859721D01*
X73762953Y-33447244D01*
X73602012Y-33058698D01*
X73368363Y-32709017D01*
X73070983Y-32411637D01*
X72721302Y-32177988D01*
X72332756Y-32017047D01*
X71920279Y-31935000D01*
X71499721Y-31935000D01*
X71087244Y-32017047D01*
X70698698Y-32177988D01*
X70349017Y-32411637D01*
X70051637Y-32709017D01*
X69817988Y-33058698D01*
X69657047Y-33447244D01*
X69575000Y-33859721D01*
X57127000Y-33859721D01*
X57127000Y-31800000D01*
X67611928Y-31800000D01*
X67624188Y-31924482D01*
X67660498Y-32044180D01*
X67719463Y-32154494D01*
X67798815Y-32251185D01*
X67895506Y-32330537D01*
X68005820Y-32389502D01*
X68125518Y-32425812D01*
X68250000Y-32438072D01*
X68714250Y-32435000D01*
X68873000Y-32276250D01*
X68873000Y-31127000D01*
X69127000Y-31127000D01*
X69127000Y-32276250D01*
X69285750Y-32435000D01*
X69750000Y-32438072D01*
X69874482Y-32425812D01*
X69994180Y-32389502D01*
X70104494Y-32330537D01*
X70201185Y-32251185D01*
X70280537Y-32154494D01*
X70339502Y-32044180D01*
X70375812Y-31924482D01*
X70388072Y-31800000D01*
X70385000Y-31285750D01*
X70226250Y-31127000D01*
X69127000Y-31127000D01*
X68873000Y-31127000D01*
X67773750Y-31127000D01*
X67615000Y-31285750D01*
X67611928Y-31800000D01*
X57127000Y-31800000D01*
X57127000Y-26500000D01*
X57124560Y-26475224D01*
X57117333Y-26451399D01*
X57105597Y-26429443D01*
X57089803Y-26410197D01*
X54538271Y-23858665D01*
X67565000Y-23858665D01*
X67565000Y-24141335D01*
X67620147Y-24418574D01*
X67728320Y-24679727D01*
X67885363Y-24914759D01*
X68085241Y-25114637D01*
X68287827Y-25250000D01*
X68085241Y-25385363D01*
X67885363Y-25585241D01*
X67728320Y-25820273D01*
X67620147Y-26081426D01*
X67565000Y-26358665D01*
X67565000Y-26641335D01*
X67620147Y-26918574D01*
X67728320Y-27179727D01*
X67885363Y-27414759D01*
X67970604Y-27500000D01*
X67885363Y-27585241D01*
X67728320Y-27820273D01*
X67620147Y-28081426D01*
X67565000Y-28358665D01*
X67565000Y-28641335D01*
X67620147Y-28918574D01*
X67728320Y-29179727D01*
X67885363Y-29414759D01*
X68063581Y-29592977D01*
X68005820Y-29610498D01*
X67895506Y-29669463D01*
X67798815Y-29748815D01*
X67719463Y-29845506D01*
X67660498Y-29955820D01*
X67624188Y-30075518D01*
X67611928Y-30200000D01*
X67615000Y-30714250D01*
X67773750Y-30873000D01*
X68873000Y-30873000D01*
X68873000Y-30853000D01*
X69127000Y-30853000D01*
X69127000Y-30873000D01*
X70226250Y-30873000D01*
X70385000Y-30714250D01*
X70388072Y-30200000D01*
X70375812Y-30075518D01*
X70339502Y-29955820D01*
X70280537Y-29845506D01*
X70201185Y-29748815D01*
X70104494Y-29669463D01*
X69994180Y-29610498D01*
X69936419Y-29592977D01*
X70114637Y-29414759D01*
X70271680Y-29179727D01*
X70379853Y-28918574D01*
X70435000Y-28641335D01*
X70435000Y-28358665D01*
X70379853Y-28081426D01*
X70271680Y-27820273D01*
X70114637Y-27585241D01*
X70029396Y-27500000D01*
X70114637Y-27414759D01*
X70271680Y-27179727D01*
X70379853Y-26918574D01*
X70435000Y-26641335D01*
X70435000Y-26358665D01*
X70379853Y-26081426D01*
X70271680Y-25820273D01*
X70114637Y-25585241D01*
X69914759Y-25385363D01*
X69712173Y-25250000D01*
X69914759Y-25114637D01*
X70114637Y-24914759D01*
X70271680Y-24679727D01*
X70379853Y-24418574D01*
X70435000Y-24141335D01*
X70435000Y-23858665D01*
X70379853Y-23581426D01*
X70271680Y-23320273D01*
X70114637Y-23085241D01*
X69914759Y-22885363D01*
X69679727Y-22728320D01*
X69418574Y-22620147D01*
X69141335Y-22565000D01*
X68858665Y-22565000D01*
X68581426Y-22620147D01*
X68320273Y-22728320D01*
X68085241Y-22885363D01*
X67885363Y-23085241D01*
X67728320Y-23320273D01*
X67620147Y-23581426D01*
X67565000Y-23858665D01*
X54538271Y-23858665D01*
X51399327Y-20719721D01*
X69575000Y-20719721D01*
X69575000Y-21140279D01*
X69657047Y-21552756D01*
X69817988Y-21941302D01*
X70051637Y-22290983D01*
X70349017Y-22588363D01*
X70698698Y-22822012D01*
X71087244Y-22982953D01*
X71499721Y-23065000D01*
X71920279Y-23065000D01*
X72332756Y-22982953D01*
X72721302Y-22822012D01*
X73070983Y-22588363D01*
X73368363Y-22290983D01*
X73602012Y-21941302D01*
X73762953Y-21552756D01*
X73845000Y-21140279D01*
X73845000Y-20719721D01*
X73762953Y-20307244D01*
X73602012Y-19918698D01*
X73368363Y-19569017D01*
X73070983Y-19271637D01*
X72721302Y-19037988D01*
X72332756Y-18877047D01*
X71920279Y-18795000D01*
X71499721Y-18795000D01*
X71087244Y-18877047D01*
X70698698Y-19037988D01*
X70349017Y-19271637D01*
X70051637Y-19569017D01*
X69817988Y-19918698D01*
X69657047Y-20307244D01*
X69575000Y-20719721D01*
X51399327Y-20719721D01*
X47339803Y-16660197D01*
X47320557Y-16644403D01*
X47298601Y-16632667D01*
X47274776Y-16625440D01*
X47250000Y-16623000D01*
X39627000Y-16623000D01*
X39627000Y-16300000D01*
X66061928Y-16300000D01*
X66074188Y-16424482D01*
X66110498Y-16544180D01*
X66169463Y-16654494D01*
X66248815Y-16751185D01*
X66345506Y-16830537D01*
X66455820Y-16889502D01*
X66575518Y-16925812D01*
X66700000Y-16938072D01*
X67214250Y-16935000D01*
X67373000Y-16776250D01*
X67373000Y-15627000D01*
X67627000Y-15627000D01*
X67627000Y-16776250D01*
X67785750Y-16935000D01*
X68300000Y-16938072D01*
X68424482Y-16925812D01*
X68544180Y-16889502D01*
X68654494Y-16830537D01*
X68751185Y-16751185D01*
X68830537Y-16654494D01*
X68889502Y-16544180D01*
X68925812Y-16424482D01*
X68938072Y-16300000D01*
X74061928Y-16300000D01*
X74074188Y-16424482D01*
X74110498Y-16544180D01*
X74169463Y-16654494D01*
X74248815Y-16751185D01*
X74345506Y-16830537D01*
X74455820Y-16889502D01*
X74575518Y-16925812D01*
X74700000Y-16938072D01*
X75214250Y-16935000D01*
X75373000Y-16776250D01*
X75373000Y-15627000D01*
X75627000Y-15627000D01*
X75627000Y-16776250D01*
X75785750Y-16935000D01*
X76300000Y-16938072D01*
X76424482Y-16925812D01*
X76544180Y-16889502D01*
X76654494Y-16830537D01*
X76751185Y-16751185D01*
X76830537Y-16654494D01*
X76889502Y-16544180D01*
X76925812Y-16424482D01*
X76938072Y-16300000D01*
X76935000Y-15785750D01*
X76776250Y-15627000D01*
X75627000Y-15627000D01*
X75373000Y-15627000D01*
X74223750Y-15627000D01*
X74065000Y-15785750D01*
X74061928Y-16300000D01*
X68938072Y-16300000D01*
X68935000Y-15785750D01*
X68776250Y-15627000D01*
X67627000Y-15627000D01*
X67373000Y-15627000D01*
X66223750Y-15627000D01*
X66065000Y-15785750D01*
X66061928Y-16300000D01*
X39627000Y-16300000D01*
X39627000Y-14700000D01*
X66061928Y-14700000D01*
X66065000Y-15214250D01*
X66223750Y-15373000D01*
X67373000Y-15373000D01*
X67373000Y-15353000D01*
X67627000Y-15353000D01*
X67627000Y-15373000D01*
X68776250Y-15373000D01*
X68935000Y-15214250D01*
X68938072Y-14700000D01*
X74061928Y-14700000D01*
X74065000Y-15214250D01*
X74223750Y-15373000D01*
X75373000Y-15373000D01*
X75373000Y-15353000D01*
X75627000Y-15353000D01*
X75627000Y-15373000D01*
X76776250Y-15373000D01*
X76935000Y-15214250D01*
X76938072Y-14700000D01*
X76925812Y-14575518D01*
X76889502Y-14455820D01*
X76830537Y-14345506D01*
X76751185Y-14248815D01*
X76654494Y-14169463D01*
X76544180Y-14110498D01*
X76448057Y-14081339D01*
X76614637Y-13914759D01*
X76771680Y-13679727D01*
X76879853Y-13418574D01*
X76935000Y-13141335D01*
X76935000Y-12858665D01*
X76879853Y-12581426D01*
X76771680Y-12320273D01*
X76614637Y-12085241D01*
X76414759Y-11885363D01*
X76179727Y-11728320D01*
X75918574Y-11620147D01*
X75641335Y-11565000D01*
X75358665Y-11565000D01*
X75081426Y-11620147D01*
X74820273Y-11728320D01*
X74585241Y-11885363D01*
X74385363Y-12085241D01*
X74228320Y-12320273D01*
X74120147Y-12581426D01*
X74065000Y-12858665D01*
X74065000Y-13141335D01*
X74120147Y-13418574D01*
X74228320Y-13679727D01*
X74385363Y-13914759D01*
X74551943Y-14081339D01*
X74455820Y-14110498D01*
X74345506Y-14169463D01*
X74248815Y-14248815D01*
X74169463Y-14345506D01*
X74110498Y-14455820D01*
X74074188Y-14575518D01*
X74061928Y-14700000D01*
X68938072Y-14700000D01*
X68925812Y-14575518D01*
X68889502Y-14455820D01*
X68830537Y-14345506D01*
X68751185Y-14248815D01*
X68654494Y-14169463D01*
X68544180Y-14110498D01*
X68448057Y-14081339D01*
X68614637Y-13914759D01*
X68771680Y-13679727D01*
X68879853Y-13418574D01*
X68935000Y-13141335D01*
X68935000Y-12858665D01*
X68879853Y-12581426D01*
X68771680Y-12320273D01*
X68614637Y-12085241D01*
X68414759Y-11885363D01*
X68179727Y-11728320D01*
X67918574Y-11620147D01*
X67641335Y-11565000D01*
X67358665Y-11565000D01*
X67081426Y-11620147D01*
X66820273Y-11728320D01*
X66585241Y-11885363D01*
X66385363Y-12085241D01*
X66228320Y-12320273D01*
X66120147Y-12581426D01*
X66065000Y-12858665D01*
X66065000Y-13141335D01*
X66120147Y-13418574D01*
X66228320Y-13679727D01*
X66385363Y-13914759D01*
X66551943Y-14081339D01*
X66455820Y-14110498D01*
X66345506Y-14169463D01*
X66248815Y-14248815D01*
X66169463Y-14345506D01*
X66110498Y-14455820D01*
X66074188Y-14575518D01*
X66061928Y-14700000D01*
X39627000Y-14700000D01*
X39627000Y-10424193D01*
X40015000Y-10424193D01*
X40015000Y-10775807D01*
X40083596Y-11120665D01*
X40218153Y-11445515D01*
X40413500Y-11737871D01*
X40662129Y-11986500D01*
X40954485Y-12181847D01*
X41279335Y-12316404D01*
X41624193Y-12385000D01*
X41975807Y-12385000D01*
X42320665Y-12316404D01*
X42645515Y-12181847D01*
X42937871Y-11986500D01*
X43082022Y-11842349D01*
X56137256Y-11842349D01*
X56251118Y-12122090D01*
X56566296Y-12277961D01*
X56905826Y-12369349D01*
X57256661Y-12392741D01*
X57605319Y-12347240D01*
X57938400Y-12234594D01*
X58148882Y-12122090D01*
X58262744Y-11842349D01*
X57200000Y-10779605D01*
X56137256Y-11842349D01*
X43082022Y-11842349D01*
X43186500Y-11737871D01*
X43381847Y-11445515D01*
X43516404Y-11120665D01*
X43585000Y-10775807D01*
X43585000Y-10656661D01*
X55407259Y-10656661D01*
X55452760Y-11005319D01*
X55565406Y-11338400D01*
X55677910Y-11548882D01*
X55957651Y-11662744D01*
X57020395Y-10600000D01*
X57379605Y-10600000D01*
X58442349Y-11662744D01*
X58722090Y-11548882D01*
X58877961Y-11233704D01*
X58969349Y-10894174D01*
X58992741Y-10543339D01*
X58947240Y-10194681D01*
X58834594Y-9861600D01*
X58722090Y-9651118D01*
X58442349Y-9537256D01*
X57379605Y-10600000D01*
X57020395Y-10600000D01*
X55957651Y-9537256D01*
X55677910Y-9651118D01*
X55522039Y-9966296D01*
X55430651Y-10305826D01*
X55407259Y-10656661D01*
X43585000Y-10656661D01*
X43585000Y-10424193D01*
X43516404Y-10079335D01*
X43381847Y-9754485D01*
X43186500Y-9462129D01*
X43082022Y-9357651D01*
X56137256Y-9357651D01*
X57200000Y-10420395D01*
X58262744Y-9357651D01*
X58148882Y-9077910D01*
X57833704Y-8922039D01*
X57494174Y-8830651D01*
X57143339Y-8807259D01*
X56794681Y-8852760D01*
X56461600Y-8965406D01*
X56251118Y-9077910D01*
X56137256Y-9357651D01*
X43082022Y-9357651D01*
X42937871Y-9213500D01*
X42645515Y-9018153D01*
X42320665Y-8883596D01*
X41975807Y-8815000D01*
X41624193Y-8815000D01*
X41279335Y-8883596D01*
X40954485Y-9018153D01*
X40662129Y-9213500D01*
X40413500Y-9462129D01*
X40218153Y-9754485D01*
X40083596Y-10079335D01*
X40015000Y-10424193D01*
X39627000Y-10424193D01*
X39627000Y-6622285D01*
X70165000Y-6622285D01*
X70165000Y-7377715D01*
X70312377Y-8118628D01*
X70601467Y-8816554D01*
X71021161Y-9444670D01*
X71555330Y-9978839D01*
X72183446Y-10398533D01*
X72881372Y-10687623D01*
X73622285Y-10835000D01*
X74377715Y-10835000D01*
X75118628Y-10687623D01*
X75816554Y-10398533D01*
X76444670Y-9978839D01*
X76978839Y-9444670D01*
X77398533Y-8816554D01*
X77687623Y-8118628D01*
X77835000Y-7377715D01*
X77835000Y-6622285D01*
X77687623Y-5881372D01*
X77398533Y-5183446D01*
X76978839Y-4555330D01*
X76444670Y-4021161D01*
X75816554Y-3601467D01*
X75118628Y-3312377D01*
X74377715Y-3165000D01*
X73622285Y-3165000D01*
X72881372Y-3312377D01*
X72183446Y-3601467D01*
X71555330Y-4021161D01*
X71021161Y-4555330D01*
X70601467Y-5183446D01*
X70312377Y-5881372D01*
X70165000Y-6622285D01*
X39627000Y-6622285D01*
X39627000Y-3660000D01*
X66967591Y-3660000D01*
X67000000Y-3663192D01*
X67032409Y-3660000D01*
X67032419Y-3660000D01*
X67129383Y-3650450D01*
X67253793Y-3612710D01*
X67368450Y-3551425D01*
X67468948Y-3468948D01*
X67489616Y-3443764D01*
X70273381Y-660000D01*
X77726620Y-660000D01*
X80340001Y-3273382D01*
G37*
%TD.AperFunction*%
%TD*%
M02*
