%TF.GenerationSoftware,KiCad,Pcbnew,(5.1.7)-1*%
%TF.CreationDate,2021-03-19T19:49:46+01:00*%
%TF.ProjectId,LowNoise5V,4c6f774e-6f69-4736-9535-562e6b696361,rev?*%
%TF.SameCoordinates,Original*%
%TF.FileFunction,Legend,Top*%
%TF.FilePolarity,Positive*%
%FSLAX46Y46*%
G04 Gerber Fmt 4.6, Leading zero omitted, Abs format (unit mm)*
G04 Created by KiCad (PCBNEW (5.1.7)-1) date 2021-03-19 19:49:46*
%MOMM*%
%LPD*%
G01*
G04 APERTURE LIST*
%ADD10C,0.150000*%
%ADD11C,0.100000*%
%ADD12C,0.120000*%
%ADD13C,0.010000*%
G04 APERTURE END LIST*
D10*
X56630952Y-46952380D02*
X56630952Y-47666666D01*
X56583333Y-47809523D01*
X56488095Y-47904761D01*
X56345238Y-47952380D01*
X56250000Y-47952380D01*
X57583333Y-47952380D02*
X57107142Y-47952380D01*
X57107142Y-46952380D01*
X58488095Y-47857142D02*
X58440476Y-47904761D01*
X58297619Y-47952380D01*
X58202380Y-47952380D01*
X58059523Y-47904761D01*
X57964285Y-47809523D01*
X57916666Y-47714285D01*
X57869047Y-47523809D01*
X57869047Y-47380952D01*
X57916666Y-47190476D01*
X57964285Y-47095238D01*
X58059523Y-47000000D01*
X58202380Y-46952380D01*
X58297619Y-46952380D01*
X58440476Y-47000000D01*
X58488095Y-47047619D01*
X59202380Y-46952380D02*
X59202380Y-47666666D01*
X59154761Y-47809523D01*
X59059523Y-47904761D01*
X58916666Y-47952380D01*
X58821428Y-47952380D01*
X60154761Y-47952380D02*
X59678571Y-47952380D01*
X59678571Y-46952380D01*
X61059523Y-47857142D02*
X61011904Y-47904761D01*
X60869047Y-47952380D01*
X60773809Y-47952380D01*
X60630952Y-47904761D01*
X60535714Y-47809523D01*
X60488095Y-47714285D01*
X60440476Y-47523809D01*
X60440476Y-47380952D01*
X60488095Y-47190476D01*
X60535714Y-47095238D01*
X60630952Y-47000000D01*
X60773809Y-46952380D01*
X60869047Y-46952380D01*
X61011904Y-47000000D01*
X61059523Y-47047619D01*
X61773809Y-46952380D02*
X61773809Y-47666666D01*
X61726190Y-47809523D01*
X61630952Y-47904761D01*
X61488095Y-47952380D01*
X61392857Y-47952380D01*
X62726190Y-47952380D02*
X62250000Y-47952380D01*
X62250000Y-46952380D01*
X63630952Y-47857142D02*
X63583333Y-47904761D01*
X63440476Y-47952380D01*
X63345238Y-47952380D01*
X63202380Y-47904761D01*
X63107142Y-47809523D01*
X63059523Y-47714285D01*
X63011904Y-47523809D01*
X63011904Y-47380952D01*
X63059523Y-47190476D01*
X63107142Y-47095238D01*
X63202380Y-47000000D01*
X63345238Y-46952380D01*
X63440476Y-46952380D01*
X63583333Y-47000000D01*
X63630952Y-47047619D01*
X64345238Y-46952380D02*
X64345238Y-47666666D01*
X64297619Y-47809523D01*
X64202380Y-47904761D01*
X64059523Y-47952380D01*
X63964285Y-47952380D01*
X65297619Y-47952380D02*
X64821428Y-47952380D01*
X64821428Y-46952380D01*
X66202380Y-47857142D02*
X66154761Y-47904761D01*
X66011904Y-47952380D01*
X65916666Y-47952380D01*
X65773809Y-47904761D01*
X65678571Y-47809523D01*
X65630952Y-47714285D01*
X65583333Y-47523809D01*
X65583333Y-47380952D01*
X65630952Y-47190476D01*
X65678571Y-47095238D01*
X65773809Y-47000000D01*
X65916666Y-46952380D01*
X66011904Y-46952380D01*
X66154761Y-47000000D01*
X66202380Y-47047619D01*
D11*
X55845238Y-45226190D02*
X55940476Y-45226190D01*
X55988095Y-45250000D01*
X56035714Y-45297619D01*
X56059523Y-45392857D01*
X56059523Y-45559523D01*
X56035714Y-45654761D01*
X55988095Y-45702380D01*
X55940476Y-45726190D01*
X55845238Y-45726190D01*
X55797619Y-45702380D01*
X55750000Y-45654761D01*
X55726190Y-45559523D01*
X55726190Y-45392857D01*
X55750000Y-45297619D01*
X55797619Y-45250000D01*
X55845238Y-45226190D01*
X56273809Y-45726190D02*
X56273809Y-45392857D01*
X56273809Y-45488095D02*
X56297619Y-45440476D01*
X56321428Y-45416666D01*
X56369047Y-45392857D01*
X56416666Y-45392857D01*
X56797619Y-45726190D02*
X56797619Y-45226190D01*
X56797619Y-45702380D02*
X56750000Y-45726190D01*
X56654761Y-45726190D01*
X56607142Y-45702380D01*
X56583333Y-45678571D01*
X56559523Y-45630952D01*
X56559523Y-45488095D01*
X56583333Y-45440476D01*
X56607142Y-45416666D01*
X56654761Y-45392857D01*
X56750000Y-45392857D01*
X56797619Y-45416666D01*
X57226190Y-45702380D02*
X57178571Y-45726190D01*
X57083333Y-45726190D01*
X57035714Y-45702380D01*
X57011904Y-45654761D01*
X57011904Y-45464285D01*
X57035714Y-45416666D01*
X57083333Y-45392857D01*
X57178571Y-45392857D01*
X57226190Y-45416666D01*
X57250000Y-45464285D01*
X57250000Y-45511904D01*
X57011904Y-45559523D01*
X57464285Y-45726190D02*
X57464285Y-45392857D01*
X57464285Y-45488095D02*
X57488095Y-45440476D01*
X57511904Y-45416666D01*
X57559523Y-45392857D01*
X57607142Y-45392857D01*
X58154761Y-45726190D02*
X58154761Y-45226190D01*
X58440476Y-45726190D01*
X58440476Y-45226190D01*
X58892857Y-45392857D02*
X58892857Y-45726190D01*
X58678571Y-45392857D02*
X58678571Y-45654761D01*
X58702380Y-45702380D01*
X58750000Y-45726190D01*
X58821428Y-45726190D01*
X58869047Y-45702380D01*
X58892857Y-45678571D01*
X59130952Y-45726190D02*
X59130952Y-45392857D01*
X59130952Y-45440476D02*
X59154761Y-45416666D01*
X59202380Y-45392857D01*
X59273809Y-45392857D01*
X59321428Y-45416666D01*
X59345238Y-45464285D01*
X59345238Y-45726190D01*
X59345238Y-45464285D02*
X59369047Y-45416666D01*
X59416666Y-45392857D01*
X59488095Y-45392857D01*
X59535714Y-45416666D01*
X59559523Y-45464285D01*
X59559523Y-45726190D01*
X59797619Y-45726190D02*
X59797619Y-45226190D01*
X59797619Y-45416666D02*
X59845238Y-45392857D01*
X59940476Y-45392857D01*
X59988095Y-45416666D01*
X60011904Y-45440476D01*
X60035714Y-45488095D01*
X60035714Y-45630952D01*
X60011904Y-45678571D01*
X59988095Y-45702380D01*
X59940476Y-45726190D01*
X59845238Y-45726190D01*
X59797619Y-45702380D01*
X60440476Y-45702380D02*
X60392857Y-45726190D01*
X60297619Y-45726190D01*
X60250000Y-45702380D01*
X60226190Y-45654761D01*
X60226190Y-45464285D01*
X60250000Y-45416666D01*
X60297619Y-45392857D01*
X60392857Y-45392857D01*
X60440476Y-45416666D01*
X60464285Y-45464285D01*
X60464285Y-45511904D01*
X60226190Y-45559523D01*
X60678571Y-45726190D02*
X60678571Y-45392857D01*
X60678571Y-45488095D02*
X60702380Y-45440476D01*
X60726190Y-45416666D01*
X60773809Y-45392857D01*
X60821428Y-45392857D01*
D12*
X55750000Y-46000000D02*
X67250000Y-46000000D01*
X55750000Y-48500000D02*
X55750000Y-46000000D01*
X500000Y0D02*
X0Y0D01*
X0Y-500000D02*
X500000Y0D01*
X0Y0D02*
X0Y-500000D01*
D13*
%TO.C,G\u002A\u002A\u002A*%
G36*
X79543719Y-1441212D02*
G01*
X80995826Y-2893776D01*
X80995826Y-7844217D01*
X80995559Y-8484508D01*
X80994782Y-9100665D01*
X80993527Y-9687435D01*
X80991828Y-10239570D01*
X80989720Y-10751816D01*
X80987235Y-11218924D01*
X80984409Y-11635643D01*
X80981273Y-11996721D01*
X80977863Y-12296908D01*
X80974212Y-12530953D01*
X80970354Y-12693604D01*
X80966322Y-12779612D01*
X80964023Y-12792344D01*
X80920966Y-12773421D01*
X80809489Y-12720003D01*
X80636930Y-12635719D01*
X80410625Y-12524197D01*
X80137912Y-12389066D01*
X79826128Y-12233953D01*
X79482609Y-12062487D01*
X79114693Y-11878297D01*
X79040211Y-11840945D01*
X78668116Y-11653292D01*
X78319307Y-11475452D01*
X78001117Y-11311297D01*
X77720878Y-11164703D01*
X77485923Y-11039544D01*
X77303583Y-10939695D01*
X77181192Y-10869029D01*
X77126083Y-10831422D01*
X77123836Y-10828366D01*
X77134209Y-10758661D01*
X77190244Y-10655147D01*
X77228402Y-10603053D01*
X77530914Y-10159673D01*
X77772216Y-9664704D01*
X77953096Y-9115660D01*
X78074345Y-8510057D01*
X78136750Y-7845410D01*
X78141530Y-7727379D01*
X78137389Y-7063118D01*
X78077134Y-6452631D01*
X77958404Y-5884095D01*
X77778836Y-5345684D01*
X77577720Y-4905059D01*
X77386627Y-4572083D01*
X77172264Y-4279325D01*
X76925315Y-4019805D01*
X76636460Y-3786539D01*
X76296383Y-3572545D01*
X75895765Y-3370843D01*
X75425289Y-3174448D01*
X75114799Y-3059532D01*
X74266463Y-2792511D01*
X73364111Y-2574779D01*
X72424824Y-2409384D01*
X71465681Y-2299376D01*
X70579739Y-2249691D01*
X69912783Y-2245080D01*
X69321679Y-2270298D01*
X68802638Y-2326025D01*
X68351871Y-2412941D01*
X67965589Y-2531727D01*
X67640003Y-2683063D01*
X67439974Y-2813357D01*
X67320766Y-2889983D01*
X67242229Y-2913694D01*
X67214524Y-2882487D01*
X67243616Y-2846983D01*
X67327001Y-2757632D01*
X67458848Y-2620395D01*
X67633322Y-2441236D01*
X67844591Y-2226115D01*
X68086822Y-1980995D01*
X68354181Y-1711837D01*
X68640834Y-1424603D01*
X68645890Y-1419549D01*
X70077256Y11352D01*
X78091613Y11352D01*
X79543719Y-1441212D01*
G37*
X79543719Y-1441212D02*
X80995826Y-2893776D01*
X80995826Y-7844217D01*
X80995559Y-8484508D01*
X80994782Y-9100665D01*
X80993527Y-9687435D01*
X80991828Y-10239570D01*
X80989720Y-10751816D01*
X80987235Y-11218924D01*
X80984409Y-11635643D01*
X80981273Y-11996721D01*
X80977863Y-12296908D01*
X80974212Y-12530953D01*
X80970354Y-12693604D01*
X80966322Y-12779612D01*
X80964023Y-12792344D01*
X80920966Y-12773421D01*
X80809489Y-12720003D01*
X80636930Y-12635719D01*
X80410625Y-12524197D01*
X80137912Y-12389066D01*
X79826128Y-12233953D01*
X79482609Y-12062487D01*
X79114693Y-11878297D01*
X79040211Y-11840945D01*
X78668116Y-11653292D01*
X78319307Y-11475452D01*
X78001117Y-11311297D01*
X77720878Y-11164703D01*
X77485923Y-11039544D01*
X77303583Y-10939695D01*
X77181192Y-10869029D01*
X77126083Y-10831422D01*
X77123836Y-10828366D01*
X77134209Y-10758661D01*
X77190244Y-10655147D01*
X77228402Y-10603053D01*
X77530914Y-10159673D01*
X77772216Y-9664704D01*
X77953096Y-9115660D01*
X78074345Y-8510057D01*
X78136750Y-7845410D01*
X78141530Y-7727379D01*
X78137389Y-7063118D01*
X78077134Y-6452631D01*
X77958404Y-5884095D01*
X77778836Y-5345684D01*
X77577720Y-4905059D01*
X77386627Y-4572083D01*
X77172264Y-4279325D01*
X76925315Y-4019805D01*
X76636460Y-3786539D01*
X76296383Y-3572545D01*
X75895765Y-3370843D01*
X75425289Y-3174448D01*
X75114799Y-3059532D01*
X74266463Y-2792511D01*
X73364111Y-2574779D01*
X72424824Y-2409384D01*
X71465681Y-2299376D01*
X70579739Y-2249691D01*
X69912783Y-2245080D01*
X69321679Y-2270298D01*
X68802638Y-2326025D01*
X68351871Y-2412941D01*
X67965589Y-2531727D01*
X67640003Y-2683063D01*
X67439974Y-2813357D01*
X67320766Y-2889983D01*
X67242229Y-2913694D01*
X67214524Y-2882487D01*
X67243616Y-2846983D01*
X67327001Y-2757632D01*
X67458848Y-2620395D01*
X67633322Y-2441236D01*
X67844591Y-2226115D01*
X68086822Y-1980995D01*
X68354181Y-1711837D01*
X68640834Y-1424603D01*
X68645890Y-1419549D01*
X70077256Y11352D01*
X78091613Y11352D01*
X79543719Y-1441212D01*
G36*
X12405696Y-1428734D02*
G01*
X12692500Y-1716806D01*
X12959091Y-1986853D01*
X13199795Y-2232963D01*
X13408936Y-2449226D01*
X13580841Y-2629731D01*
X13709835Y-2768566D01*
X13790244Y-2859821D01*
X13816391Y-2897583D01*
X13816163Y-2897971D01*
X13767354Y-2893576D01*
X13677181Y-2849020D01*
X13627229Y-2816903D01*
X13328098Y-2641359D01*
X12985012Y-2499310D01*
X12591081Y-2389331D01*
X12139411Y-2309998D01*
X11623111Y-2259885D01*
X11035288Y-2237569D01*
X10817661Y-2236060D01*
X10159764Y-2253332D01*
X9486215Y-2303505D01*
X8806876Y-2384115D01*
X8131611Y-2492698D01*
X7470281Y-2626789D01*
X6832751Y-2783925D01*
X6228883Y-2961640D01*
X5668540Y-3157471D01*
X5161585Y-3368954D01*
X4717881Y-3593624D01*
X4347291Y-3829017D01*
X4299147Y-3864697D01*
X3978452Y-4158277D01*
X3694993Y-4519956D01*
X3450825Y-4940666D01*
X3248003Y-5411341D01*
X3088582Y-5922913D01*
X2974617Y-6466314D01*
X2908162Y-7032476D01*
X2891273Y-7612333D01*
X2926005Y-8196816D01*
X3014413Y-8776859D01*
X3101825Y-9147913D01*
X3183200Y-9396451D01*
X3297927Y-9677460D01*
X3433620Y-9965451D01*
X3577892Y-10234936D01*
X3718356Y-10460428D01*
X3781445Y-10546384D01*
X3880617Y-10681716D01*
X3925879Y-10772475D01*
X3924124Y-10833212D01*
X3920555Y-10840085D01*
X3878239Y-10868429D01*
X3768906Y-10930370D01*
X3601311Y-11021413D01*
X3384207Y-11137061D01*
X3126350Y-11272818D01*
X2836495Y-11424190D01*
X2523395Y-11586681D01*
X2195805Y-11755795D01*
X1862481Y-11927036D01*
X1532176Y-12095908D01*
X1213645Y-12257917D01*
X915643Y-12408566D01*
X646925Y-12543360D01*
X416244Y-12657802D01*
X232356Y-12747399D01*
X104016Y-12807653D01*
X39977Y-12834070D01*
X35977Y-12834883D01*
X31863Y-12793640D01*
X27905Y-12672841D01*
X24135Y-12477735D01*
X20587Y-12213574D01*
X17295Y-11885608D01*
X14293Y-11499089D01*
X11615Y-11059268D01*
X9294Y-10571394D01*
X7363Y-10040720D01*
X5858Y-9472495D01*
X4811Y-8871972D01*
X4257Y-8244400D01*
X4174Y-7886167D01*
X4174Y-2935272D01*
X2951700Y11352D01*
X10966077Y11352D01*
X12405696Y-1428734D01*
G37*
X12405696Y-1428734D02*
X12692500Y-1716806D01*
X12959091Y-1986853D01*
X13199795Y-2232963D01*
X13408936Y-2449226D01*
X13580841Y-2629731D01*
X13709835Y-2768566D01*
X13790244Y-2859821D01*
X13816391Y-2897583D01*
X13816163Y-2897971D01*
X13767354Y-2893576D01*
X13677181Y-2849020D01*
X13627229Y-2816903D01*
X13328098Y-2641359D01*
X12985012Y-2499310D01*
X12591081Y-2389331D01*
X12139411Y-2309998D01*
X11623111Y-2259885D01*
X11035288Y-2237569D01*
X10817661Y-2236060D01*
X10159764Y-2253332D01*
X9486215Y-2303505D01*
X8806876Y-2384115D01*
X8131611Y-2492698D01*
X7470281Y-2626789D01*
X6832751Y-2783925D01*
X6228883Y-2961640D01*
X5668540Y-3157471D01*
X5161585Y-3368954D01*
X4717881Y-3593624D01*
X4347291Y-3829017D01*
X4299147Y-3864697D01*
X3978452Y-4158277D01*
X3694993Y-4519956D01*
X3450825Y-4940666D01*
X3248003Y-5411341D01*
X3088582Y-5922913D01*
X2974617Y-6466314D01*
X2908162Y-7032476D01*
X2891273Y-7612333D01*
X2926005Y-8196816D01*
X3014413Y-8776859D01*
X3101825Y-9147913D01*
X3183200Y-9396451D01*
X3297927Y-9677460D01*
X3433620Y-9965451D01*
X3577892Y-10234936D01*
X3718356Y-10460428D01*
X3781445Y-10546384D01*
X3880617Y-10681716D01*
X3925879Y-10772475D01*
X3924124Y-10833212D01*
X3920555Y-10840085D01*
X3878239Y-10868429D01*
X3768906Y-10930370D01*
X3601311Y-11021413D01*
X3384207Y-11137061D01*
X3126350Y-11272818D01*
X2836495Y-11424190D01*
X2523395Y-11586681D01*
X2195805Y-11755795D01*
X1862481Y-11927036D01*
X1532176Y-12095908D01*
X1213645Y-12257917D01*
X915643Y-12408566D01*
X646925Y-12543360D01*
X416244Y-12657802D01*
X232356Y-12747399D01*
X104016Y-12807653D01*
X39977Y-12834070D01*
X35977Y-12834883D01*
X31863Y-12793640D01*
X27905Y-12672841D01*
X24135Y-12477735D01*
X20587Y-12213574D01*
X17295Y-11885608D01*
X14293Y-11499089D01*
X11615Y-11059268D01*
X9294Y-10571394D01*
X7363Y-10040720D01*
X5858Y-9472495D01*
X4811Y-8871972D01*
X4257Y-8244400D01*
X4174Y-7886167D01*
X4174Y-2935272D01*
X2951700Y11352D01*
X10966077Y11352D01*
X12405696Y-1428734D01*
G36*
X9143072Y-18269452D02*
G01*
X9236067Y-18326189D01*
X9255895Y-18348498D01*
X9323827Y-18481879D01*
X9317353Y-18605221D01*
X9246825Y-18705617D01*
X9122595Y-18770158D01*
X8955018Y-18785939D01*
X8909015Y-18780966D01*
X8780969Y-18740530D01*
X8714846Y-18655756D01*
X8696995Y-18519198D01*
X8718739Y-18376908D01*
X8791305Y-18292474D01*
X8925690Y-18256311D01*
X9002183Y-18253210D01*
X9143072Y-18269452D01*
G37*
X9143072Y-18269452D02*
X9236067Y-18326189D01*
X9255895Y-18348498D01*
X9323827Y-18481879D01*
X9317353Y-18605221D01*
X9246825Y-18705617D01*
X9122595Y-18770158D01*
X8955018Y-18785939D01*
X8909015Y-18780966D01*
X8780969Y-18740530D01*
X8714846Y-18655756D01*
X8696995Y-18519198D01*
X8718739Y-18376908D01*
X8791305Y-18292474D01*
X8925690Y-18256311D01*
X9002183Y-18253210D01*
X9143072Y-18269452D01*
G36*
X11467222Y-19075638D02*
G01*
X11653752Y-19154450D01*
X11744280Y-19213614D01*
X11813593Y-19274815D01*
X11864746Y-19349985D01*
X11900791Y-19451058D01*
X11924784Y-19589968D01*
X11939779Y-19778646D01*
X11948831Y-20029027D01*
X11954628Y-20329958D01*
X11968354Y-21190651D01*
X11368447Y-21190651D01*
X11368447Y-20446653D01*
X11368087Y-20178837D01*
X11365912Y-19982467D01*
X11360282Y-19844181D01*
X11349559Y-19750619D01*
X11332102Y-19688418D01*
X11306271Y-19644217D01*
X11270427Y-19604654D01*
X11264365Y-19598573D01*
X11127664Y-19511922D01*
X11007153Y-19494491D01*
X10862701Y-19505678D01*
X10750780Y-19545389D01*
X10667093Y-19622845D01*
X10607345Y-19747265D01*
X10567237Y-19927872D01*
X10542475Y-20173886D01*
X10528761Y-20494528D01*
X10528035Y-20522788D01*
X10511481Y-21190651D01*
X9926711Y-21190651D01*
X9926711Y-19070451D01*
X10156645Y-19070451D01*
X10289973Y-19073319D01*
X10364163Y-19091028D01*
X10404876Y-19137229D01*
X10435553Y-19218844D01*
X10484527Y-19367238D01*
X10607184Y-19244581D01*
X10778700Y-19127836D01*
X10996104Y-19059310D01*
X11234057Y-19041182D01*
X11467222Y-19075638D01*
G37*
X11467222Y-19075638D02*
X11653752Y-19154450D01*
X11744280Y-19213614D01*
X11813593Y-19274815D01*
X11864746Y-19349985D01*
X11900791Y-19451058D01*
X11924784Y-19589968D01*
X11939779Y-19778646D01*
X11948831Y-20029027D01*
X11954628Y-20329958D01*
X11968354Y-21190651D01*
X11368447Y-21190651D01*
X11368447Y-20446653D01*
X11368087Y-20178837D01*
X11365912Y-19982467D01*
X11360282Y-19844181D01*
X11349559Y-19750619D01*
X11332102Y-19688418D01*
X11306271Y-19644217D01*
X11270427Y-19604654D01*
X11264365Y-19598573D01*
X11127664Y-19511922D01*
X11007153Y-19494491D01*
X10862701Y-19505678D01*
X10750780Y-19545389D01*
X10667093Y-19622845D01*
X10607345Y-19747265D01*
X10567237Y-19927872D01*
X10542475Y-20173886D01*
X10528761Y-20494528D01*
X10528035Y-20522788D01*
X10511481Y-21190651D01*
X9926711Y-21190651D01*
X9926711Y-19070451D01*
X10156645Y-19070451D01*
X10289973Y-19073319D01*
X10364163Y-19091028D01*
X10404876Y-19137229D01*
X10435553Y-19218844D01*
X10484527Y-19367238D01*
X10607184Y-19244581D01*
X10778700Y-19127836D01*
X10996104Y-19059310D01*
X11234057Y-19041182D01*
X11467222Y-19075638D01*
G36*
X9290651Y-21190651D02*
G01*
X8696995Y-21190651D01*
X8696995Y-19070451D01*
X9290651Y-19070451D01*
X9290651Y-21190651D01*
G37*
X9290651Y-21190651D02*
X8696995Y-21190651D01*
X8696995Y-19070451D01*
X9290651Y-19070451D01*
X9290651Y-21190651D01*
G36*
X3776123Y-18550817D02*
G01*
X3804852Y-18629753D01*
X3858646Y-18777070D01*
X3933392Y-18981519D01*
X4024974Y-19231850D01*
X4129277Y-19516815D01*
X4242188Y-19825165D01*
X4287968Y-19950149D01*
X4742378Y-21190651D01*
X4091304Y-21190651D01*
X3884140Y-20533389D01*
X2829241Y-20533389D01*
X2722614Y-20862020D01*
X2615986Y-21190651D01*
X2306574Y-21190651D01*
X2156663Y-21186650D01*
X2046416Y-21176090D01*
X1996940Y-21161132D01*
X1996065Y-21158848D01*
X2009823Y-21112866D01*
X2049409Y-20996627D01*
X2111493Y-20819512D01*
X2192745Y-20590902D01*
X2289835Y-20320178D01*
X2388949Y-20045743D01*
X2976510Y-20045743D01*
X3356118Y-20045743D01*
X3523642Y-20044647D01*
X3653285Y-20041713D01*
X3726102Y-20037471D01*
X3735308Y-20035142D01*
X3721883Y-19973921D01*
X3687604Y-19856721D01*
X3638200Y-19700387D01*
X3579396Y-19521764D01*
X3516922Y-19337698D01*
X3456504Y-19165032D01*
X3403870Y-19020613D01*
X3364747Y-18921284D01*
X3344864Y-18883892D01*
X3344033Y-18884382D01*
X3322514Y-18939276D01*
X3283304Y-19055250D01*
X3233097Y-19212158D01*
X3204733Y-19303673D01*
X3145548Y-19496585D01*
X3088786Y-19681387D01*
X3043895Y-19827319D01*
X3032118Y-19865526D01*
X2976510Y-20045743D01*
X2388949Y-20045743D01*
X2399431Y-20016721D01*
X2492846Y-19759516D01*
X2990724Y-18391986D01*
X3718689Y-18391986D01*
X3776123Y-18550817D01*
G37*
X3776123Y-18550817D02*
X3804852Y-18629753D01*
X3858646Y-18777070D01*
X3933392Y-18981519D01*
X4024974Y-19231850D01*
X4129277Y-19516815D01*
X4242188Y-19825165D01*
X4287968Y-19950149D01*
X4742378Y-21190651D01*
X4091304Y-21190651D01*
X3884140Y-20533389D01*
X2829241Y-20533389D01*
X2722614Y-20862020D01*
X2615986Y-21190651D01*
X2306574Y-21190651D01*
X2156663Y-21186650D01*
X2046416Y-21176090D01*
X1996940Y-21161132D01*
X1996065Y-21158848D01*
X2009823Y-21112866D01*
X2049409Y-20996627D01*
X2111493Y-20819512D01*
X2192745Y-20590902D01*
X2289835Y-20320178D01*
X2388949Y-20045743D01*
X2976510Y-20045743D01*
X3356118Y-20045743D01*
X3523642Y-20044647D01*
X3653285Y-20041713D01*
X3726102Y-20037471D01*
X3735308Y-20035142D01*
X3721883Y-19973921D01*
X3687604Y-19856721D01*
X3638200Y-19700387D01*
X3579396Y-19521764D01*
X3516922Y-19337698D01*
X3456504Y-19165032D01*
X3403870Y-19020613D01*
X3364747Y-18921284D01*
X3344864Y-18883892D01*
X3344033Y-18884382D01*
X3322514Y-18939276D01*
X3283304Y-19055250D01*
X3233097Y-19212158D01*
X3204733Y-19303673D01*
X3145548Y-19496585D01*
X3088786Y-19681387D01*
X3043895Y-19827319D01*
X3032118Y-19865526D01*
X2976510Y-20045743D01*
X2388949Y-20045743D01*
X2399431Y-20016721D01*
X2492846Y-19759516D01*
X2990724Y-18391986D01*
X3718689Y-18391986D01*
X3776123Y-18550817D01*
G36*
X6643303Y-18422216D02*
G01*
X6866418Y-18459393D01*
X6969032Y-18490903D01*
X7083346Y-18537531D01*
X7156331Y-18572146D01*
X7170451Y-18582796D01*
X7155091Y-18627031D01*
X7117191Y-18720004D01*
X7069020Y-18833119D01*
X7022847Y-18937779D01*
X6990942Y-19005386D01*
X6984572Y-19016040D01*
X6942277Y-19008809D01*
X6842794Y-18979128D01*
X6722212Y-18938457D01*
X6469247Y-18877457D01*
X6232172Y-18873015D01*
X6030578Y-18924299D01*
X5948177Y-18971324D01*
X5808918Y-19120061D01*
X5703297Y-19329262D01*
X5636357Y-19579549D01*
X5613141Y-19851544D01*
X5638689Y-20125869D01*
X5642628Y-20145595D01*
X5728020Y-20396094D01*
X5865970Y-20580187D01*
X6055740Y-20697435D01*
X6296592Y-20747399D01*
X6587788Y-20729642D01*
X6617693Y-20724480D01*
X6775446Y-20692688D01*
X6912818Y-20659525D01*
X6983738Y-20637838D01*
X7040756Y-20620189D01*
X7071176Y-20634189D01*
X7083352Y-20696883D01*
X7085636Y-20825314D01*
X7085643Y-20845756D01*
X7085643Y-21092419D01*
X6905426Y-21146661D01*
X6707281Y-21188181D01*
X6467304Y-21211967D01*
X6217859Y-21217139D01*
X5991311Y-21202818D01*
X5843777Y-21175479D01*
X5568600Y-21057100D01*
X5346050Y-20874402D01*
X5178362Y-20631279D01*
X5067769Y-20331622D01*
X5016504Y-19979324D01*
X5015671Y-19732187D01*
X5064410Y-19357103D01*
X5174126Y-19040825D01*
X5344765Y-18783448D01*
X5576270Y-18585068D01*
X5728238Y-18501734D01*
X5904301Y-18448110D01*
X6134197Y-18416819D01*
X6389880Y-18408106D01*
X6643303Y-18422216D01*
G37*
X6643303Y-18422216D02*
X6866418Y-18459393D01*
X6969032Y-18490903D01*
X7083346Y-18537531D01*
X7156331Y-18572146D01*
X7170451Y-18582796D01*
X7155091Y-18627031D01*
X7117191Y-18720004D01*
X7069020Y-18833119D01*
X7022847Y-18937779D01*
X6990942Y-19005386D01*
X6984572Y-19016040D01*
X6942277Y-19008809D01*
X6842794Y-18979128D01*
X6722212Y-18938457D01*
X6469247Y-18877457D01*
X6232172Y-18873015D01*
X6030578Y-18924299D01*
X5948177Y-18971324D01*
X5808918Y-19120061D01*
X5703297Y-19329262D01*
X5636357Y-19579549D01*
X5613141Y-19851544D01*
X5638689Y-20125869D01*
X5642628Y-20145595D01*
X5728020Y-20396094D01*
X5865970Y-20580187D01*
X6055740Y-20697435D01*
X6296592Y-20747399D01*
X6587788Y-20729642D01*
X6617693Y-20724480D01*
X6775446Y-20692688D01*
X6912818Y-20659525D01*
X6983738Y-20637838D01*
X7040756Y-20620189D01*
X7071176Y-20634189D01*
X7083352Y-20696883D01*
X7085636Y-20825314D01*
X7085643Y-20845756D01*
X7085643Y-21092419D01*
X6905426Y-21146661D01*
X6707281Y-21188181D01*
X6467304Y-21211967D01*
X6217859Y-21217139D01*
X5991311Y-21202818D01*
X5843777Y-21175479D01*
X5568600Y-21057100D01*
X5346050Y-20874402D01*
X5178362Y-20631279D01*
X5067769Y-20331622D01*
X5016504Y-19979324D01*
X5015671Y-19732187D01*
X5064410Y-19357103D01*
X5174126Y-19040825D01*
X5344765Y-18783448D01*
X5576270Y-18585068D01*
X5728238Y-18501734D01*
X5904301Y-18448110D01*
X6134197Y-18416819D01*
X6389880Y-18408106D01*
X6643303Y-18422216D01*
G36*
X2169100Y-23122493D02*
G01*
X2272788Y-23232853D01*
X2285089Y-26865592D01*
X2286653Y-27416493D01*
X2287571Y-27945281D01*
X2287864Y-28445498D01*
X2287557Y-28910685D01*
X2286671Y-29334383D01*
X2285230Y-29710135D01*
X2283257Y-30031482D01*
X2280774Y-30291966D01*
X2277805Y-30485127D01*
X2274373Y-30604508D01*
X2271678Y-30640881D01*
X2222183Y-30774332D01*
X2144693Y-30884704D01*
X2104177Y-30922031D01*
X2059748Y-30948840D01*
X1997588Y-30966870D01*
X1903878Y-30977859D01*
X1764801Y-30983547D01*
X1566538Y-30985672D01*
X1339900Y-30985976D01*
X1080089Y-30985509D01*
X891274Y-30982953D01*
X759645Y-30976581D01*
X671390Y-30964662D01*
X612699Y-30945468D01*
X569761Y-30917270D01*
X535693Y-30885290D01*
X453666Y-30757649D01*
X408451Y-30599063D01*
X404543Y-30528878D01*
X401103Y-30380510D01*
X398156Y-30160582D01*
X395727Y-29875719D01*
X393841Y-29532542D01*
X392521Y-29137678D01*
X391794Y-28697748D01*
X391683Y-28219376D01*
X391716Y-28187312D01*
X597830Y-28187312D01*
X597830Y-28526544D01*
X1587868Y-28526544D01*
X602046Y-29226210D01*
X597830Y-29713856D01*
X2002281Y-29713856D01*
X1989121Y-29554841D01*
X1975960Y-29395826D01*
X1494602Y-29374624D01*
X1013245Y-29353422D01*
X1505203Y-28999501D01*
X1997162Y-28645580D01*
X1997162Y-28187312D01*
X597830Y-28187312D01*
X391716Y-28187312D01*
X392213Y-27709187D01*
X393409Y-27173804D01*
X394454Y-26844079D01*
X396705Y-26211657D01*
X398821Y-25658526D01*
X399643Y-25473456D01*
X597830Y-25473456D01*
X852254Y-25473456D01*
X852254Y-24752587D01*
X2002038Y-24752587D01*
X1975960Y-24392153D01*
X597830Y-24368851D01*
X597830Y-25473456D01*
X399643Y-25473456D01*
X400951Y-25179169D01*
X403250Y-24768069D01*
X405869Y-24419710D01*
X408961Y-24128575D01*
X412678Y-23889146D01*
X417173Y-23695907D01*
X422597Y-23543342D01*
X429103Y-23425933D01*
X436845Y-23338165D01*
X445973Y-23274519D01*
X456640Y-23229479D01*
X468999Y-23197529D01*
X483202Y-23173152D01*
X496342Y-23154930D01*
X585672Y-23035225D01*
X1325542Y-23023679D01*
X2065412Y-23012134D01*
X2169100Y-23122493D01*
G37*
X2169100Y-23122493D02*
X2272788Y-23232853D01*
X2285089Y-26865592D01*
X2286653Y-27416493D01*
X2287571Y-27945281D01*
X2287864Y-28445498D01*
X2287557Y-28910685D01*
X2286671Y-29334383D01*
X2285230Y-29710135D01*
X2283257Y-30031482D01*
X2280774Y-30291966D01*
X2277805Y-30485127D01*
X2274373Y-30604508D01*
X2271678Y-30640881D01*
X2222183Y-30774332D01*
X2144693Y-30884704D01*
X2104177Y-30922031D01*
X2059748Y-30948840D01*
X1997588Y-30966870D01*
X1903878Y-30977859D01*
X1764801Y-30983547D01*
X1566538Y-30985672D01*
X1339900Y-30985976D01*
X1080089Y-30985509D01*
X891274Y-30982953D01*
X759645Y-30976581D01*
X671390Y-30964662D01*
X612699Y-30945468D01*
X569761Y-30917270D01*
X535693Y-30885290D01*
X453666Y-30757649D01*
X408451Y-30599063D01*
X404543Y-30528878D01*
X401103Y-30380510D01*
X398156Y-30160582D01*
X395727Y-29875719D01*
X393841Y-29532542D01*
X392521Y-29137678D01*
X391794Y-28697748D01*
X391683Y-28219376D01*
X391716Y-28187312D01*
X597830Y-28187312D01*
X597830Y-28526544D01*
X1587868Y-28526544D01*
X602046Y-29226210D01*
X597830Y-29713856D01*
X2002281Y-29713856D01*
X1989121Y-29554841D01*
X1975960Y-29395826D01*
X1494602Y-29374624D01*
X1013245Y-29353422D01*
X1505203Y-28999501D01*
X1997162Y-28645580D01*
X1997162Y-28187312D01*
X597830Y-28187312D01*
X391716Y-28187312D01*
X392213Y-27709187D01*
X393409Y-27173804D01*
X394454Y-26844079D01*
X396705Y-26211657D01*
X398821Y-25658526D01*
X399643Y-25473456D01*
X597830Y-25473456D01*
X852254Y-25473456D01*
X852254Y-24752587D01*
X2002038Y-24752587D01*
X1975960Y-24392153D01*
X597830Y-24368851D01*
X597830Y-25473456D01*
X399643Y-25473456D01*
X400951Y-25179169D01*
X403250Y-24768069D01*
X405869Y-24419710D01*
X408961Y-24128575D01*
X412678Y-23889146D01*
X417173Y-23695907D01*
X422597Y-23543342D01*
X429103Y-23425933D01*
X436845Y-23338165D01*
X445973Y-23274519D01*
X456640Y-23229479D01*
X468999Y-23197529D01*
X483202Y-23173152D01*
X496342Y-23154930D01*
X585672Y-23035225D01*
X1325542Y-23023679D01*
X2065412Y-23012134D01*
X2169100Y-23122493D01*
G36*
X80995826Y-51063819D02*
G01*
X79543719Y-52516384D01*
X78091613Y-53968948D01*
X70066327Y-53968948D01*
X68555618Y-52480610D01*
X68192820Y-52122303D01*
X67887534Y-51818648D01*
X67636045Y-51565617D01*
X67434635Y-51359182D01*
X67279588Y-51195316D01*
X67167187Y-51069989D01*
X67093715Y-50979175D01*
X67055456Y-50918844D01*
X67048693Y-50884970D01*
X67069709Y-50873523D01*
X67072709Y-50873456D01*
X67121321Y-50896883D01*
X67207157Y-50955005D01*
X67231724Y-50973347D01*
X67529698Y-51155151D01*
X67899900Y-51304965D01*
X68335924Y-51422566D01*
X68831362Y-51507733D01*
X69379811Y-51560244D01*
X69974863Y-51579878D01*
X70610114Y-51566414D01*
X71279157Y-51519628D01*
X71975586Y-51439301D01*
X72692997Y-51325210D01*
X73384307Y-51186198D01*
X73966212Y-51043851D01*
X74524034Y-50881252D01*
X75048349Y-50702275D01*
X75529732Y-50510797D01*
X75958758Y-50310693D01*
X76326002Y-50105838D01*
X76622040Y-49900109D01*
X76725001Y-49812430D01*
X77053267Y-49456331D01*
X77336534Y-49034190D01*
X77572109Y-48553464D01*
X77757301Y-48021611D01*
X77889420Y-47446091D01*
X77965771Y-46834361D01*
X77984892Y-46321412D01*
X77953824Y-45662510D01*
X77862475Y-45041673D01*
X77712714Y-44465440D01*
X77506411Y-43940355D01*
X77245437Y-43472957D01*
X77119556Y-43294873D01*
X77005313Y-43130829D01*
X76952828Y-43021135D01*
X76954103Y-42971502D01*
X76998973Y-42939617D01*
X77111325Y-42875112D01*
X77282344Y-42782399D01*
X77503218Y-42665891D01*
X77765132Y-42530002D01*
X78059273Y-42379143D01*
X78376827Y-42217729D01*
X78708980Y-42050170D01*
X79046919Y-41880881D01*
X79381831Y-41714274D01*
X79704901Y-41554762D01*
X80007315Y-41406757D01*
X80280261Y-41274673D01*
X80514924Y-41162922D01*
X80702491Y-41075917D01*
X80834148Y-41018071D01*
X80901081Y-40993796D01*
X80905136Y-40993322D01*
X80995826Y-40993322D01*
X80995826Y-51063819D01*
G37*
X80995826Y-51063819D02*
X79543719Y-52516384D01*
X78091613Y-53968948D01*
X70066327Y-53968948D01*
X68555618Y-52480610D01*
X68192820Y-52122303D01*
X67887534Y-51818648D01*
X67636045Y-51565617D01*
X67434635Y-51359182D01*
X67279588Y-51195316D01*
X67167187Y-51069989D01*
X67093715Y-50979175D01*
X67055456Y-50918844D01*
X67048693Y-50884970D01*
X67069709Y-50873523D01*
X67072709Y-50873456D01*
X67121321Y-50896883D01*
X67207157Y-50955005D01*
X67231724Y-50973347D01*
X67529698Y-51155151D01*
X67899900Y-51304965D01*
X68335924Y-51422566D01*
X68831362Y-51507733D01*
X69379811Y-51560244D01*
X69974863Y-51579878D01*
X70610114Y-51566414D01*
X71279157Y-51519628D01*
X71975586Y-51439301D01*
X72692997Y-51325210D01*
X73384307Y-51186198D01*
X73966212Y-51043851D01*
X74524034Y-50881252D01*
X75048349Y-50702275D01*
X75529732Y-50510797D01*
X75958758Y-50310693D01*
X76326002Y-50105838D01*
X76622040Y-49900109D01*
X76725001Y-49812430D01*
X77053267Y-49456331D01*
X77336534Y-49034190D01*
X77572109Y-48553464D01*
X77757301Y-48021611D01*
X77889420Y-47446091D01*
X77965771Y-46834361D01*
X77984892Y-46321412D01*
X77953824Y-45662510D01*
X77862475Y-45041673D01*
X77712714Y-44465440D01*
X77506411Y-43940355D01*
X77245437Y-43472957D01*
X77119556Y-43294873D01*
X77005313Y-43130829D01*
X76952828Y-43021135D01*
X76954103Y-42971502D01*
X76998973Y-42939617D01*
X77111325Y-42875112D01*
X77282344Y-42782399D01*
X77503218Y-42665891D01*
X77765132Y-42530002D01*
X78059273Y-42379143D01*
X78376827Y-42217729D01*
X78708980Y-42050170D01*
X79046919Y-41880881D01*
X79381831Y-41714274D01*
X79704901Y-41554762D01*
X80007315Y-41406757D01*
X80280261Y-41274673D01*
X80514924Y-41162922D01*
X80702491Y-41075917D01*
X80834148Y-41018071D01*
X80901081Y-40993796D01*
X80905136Y-40993322D01*
X80995826Y-40993322D01*
X80995826Y-51063819D01*
G36*
X141987Y-40995501D02*
G01*
X208061Y-41014527D01*
X338638Y-41067708D01*
X524998Y-41150661D01*
X758417Y-41259007D01*
X1030173Y-41388362D01*
X1331544Y-41534346D01*
X1653807Y-41692577D01*
X1988240Y-41858674D01*
X2326121Y-42028255D01*
X2658727Y-42196940D01*
X2977336Y-42360346D01*
X3273226Y-42514093D01*
X3537674Y-42653799D01*
X3761958Y-42775082D01*
X3937357Y-42873561D01*
X4055146Y-42944854D01*
X4106605Y-42984581D01*
X4108109Y-42987764D01*
X4089295Y-43050938D01*
X4028606Y-43157664D01*
X3938525Y-43286396D01*
X3924553Y-43304595D01*
X3697004Y-43649520D01*
X3493237Y-44063014D01*
X3319026Y-44530773D01*
X3180145Y-45038491D01*
X3132509Y-45266679D01*
X3105539Y-45472453D01*
X3087860Y-45741257D01*
X3079238Y-46051852D01*
X3079439Y-46382996D01*
X3088230Y-46713448D01*
X3105376Y-47021969D01*
X3130643Y-47287317D01*
X3156617Y-47454590D01*
X3303638Y-48048224D01*
X3495932Y-48585771D01*
X3730917Y-49062293D01*
X4006013Y-49472853D01*
X4318639Y-49812514D01*
X4446341Y-49921651D01*
X4716872Y-50108346D01*
X5060363Y-50298790D01*
X5465387Y-50488308D01*
X5920513Y-50672229D01*
X6414315Y-50845879D01*
X6935364Y-51004586D01*
X7382471Y-51122137D01*
X8042029Y-51267244D01*
X8711796Y-51384822D01*
X9381462Y-51474489D01*
X10040715Y-51535864D01*
X10679243Y-51568566D01*
X11286737Y-51572214D01*
X11852883Y-51546426D01*
X12367371Y-51490822D01*
X12819890Y-51405020D01*
X13076768Y-51332594D01*
X13449744Y-51187805D01*
X13747578Y-51022154D01*
X13814449Y-50974622D01*
X13905605Y-50910421D01*
X13965808Y-50875550D01*
X13973464Y-50873456D01*
X13993319Y-50882810D01*
X13987204Y-50913636D01*
X13951310Y-50970078D01*
X13881829Y-51056282D01*
X13774953Y-51176392D01*
X13626873Y-51334554D01*
X13433782Y-51534912D01*
X13191871Y-51781610D01*
X12897332Y-52078795D01*
X12546357Y-52430611D01*
X12502534Y-52474431D01*
X11007571Y-53968948D01*
X2950798Y-53968948D01*
X4174Y-51021422D01*
X4174Y-40993322D01*
X141987Y-40995501D01*
G37*
X141987Y-40995501D02*
X208061Y-41014527D01*
X338638Y-41067708D01*
X524998Y-41150661D01*
X758417Y-41259007D01*
X1030173Y-41388362D01*
X1331544Y-41534346D01*
X1653807Y-41692577D01*
X1988240Y-41858674D01*
X2326121Y-42028255D01*
X2658727Y-42196940D01*
X2977336Y-42360346D01*
X3273226Y-42514093D01*
X3537674Y-42653799D01*
X3761958Y-42775082D01*
X3937357Y-42873561D01*
X4055146Y-42944854D01*
X4106605Y-42984581D01*
X4108109Y-42987764D01*
X4089295Y-43050938D01*
X4028606Y-43157664D01*
X3938525Y-43286396D01*
X3924553Y-43304595D01*
X3697004Y-43649520D01*
X3493237Y-44063014D01*
X3319026Y-44530773D01*
X3180145Y-45038491D01*
X3132509Y-45266679D01*
X3105539Y-45472453D01*
X3087860Y-45741257D01*
X3079238Y-46051852D01*
X3079439Y-46382996D01*
X3088230Y-46713448D01*
X3105376Y-47021969D01*
X3130643Y-47287317D01*
X3156617Y-47454590D01*
X3303638Y-48048224D01*
X3495932Y-48585771D01*
X3730917Y-49062293D01*
X4006013Y-49472853D01*
X4318639Y-49812514D01*
X4446341Y-49921651D01*
X4716872Y-50108346D01*
X5060363Y-50298790D01*
X5465387Y-50488308D01*
X5920513Y-50672229D01*
X6414315Y-50845879D01*
X6935364Y-51004586D01*
X7382471Y-51122137D01*
X8042029Y-51267244D01*
X8711796Y-51384822D01*
X9381462Y-51474489D01*
X10040715Y-51535864D01*
X10679243Y-51568566D01*
X11286737Y-51572214D01*
X11852883Y-51546426D01*
X12367371Y-51490822D01*
X12819890Y-51405020D01*
X13076768Y-51332594D01*
X13449744Y-51187805D01*
X13747578Y-51022154D01*
X13814449Y-50974622D01*
X13905605Y-50910421D01*
X13965808Y-50875550D01*
X13973464Y-50873456D01*
X13993319Y-50882810D01*
X13987204Y-50913636D01*
X13951310Y-50970078D01*
X13881829Y-51056282D01*
X13774953Y-51176392D01*
X13626873Y-51334554D01*
X13433782Y-51534912D01*
X13191871Y-51781610D01*
X12897332Y-52078795D01*
X12546357Y-52430611D01*
X12502534Y-52474431D01*
X11007571Y-53968948D01*
X2950798Y-53968948D01*
X4174Y-51021422D01*
X4174Y-40993322D01*
X141987Y-40995501D01*
D12*
%TO.C,J2*%
X11150000Y-32000000D02*
X2850000Y-32000000D01*
X2850000Y-32000000D02*
X2850000Y-22000000D01*
X2850000Y-22000000D02*
X11150000Y-22000000D01*
X11150000Y-22000000D02*
X11150000Y-32000000D01*
X2850000Y-32000000D02*
X3850000Y-31000000D01*
X3850000Y-31000000D02*
X5000000Y-31000000D01*
X5000000Y-31000000D02*
X5000000Y-28000000D01*
X5000000Y-28000000D02*
X3850000Y-28000000D01*
X3850000Y-28000000D02*
X2850000Y-27050000D01*
X3850000Y-26000000D02*
X2850000Y-26950000D01*
X5000000Y-23000000D02*
X5000000Y-26000000D01*
X5000000Y-26000000D02*
X3850000Y-26000000D01*
X3850000Y-23000000D02*
X5000000Y-23000000D01*
X2850000Y-22000000D02*
X3850000Y-23000000D01*
X5000000Y-28000000D02*
X7000000Y-27000000D01*
X7000000Y-27000000D02*
X5000000Y-26000000D01*
X7000000Y-27000000D02*
X11150000Y-27000000D01*
%TO.C,F1*%
X13350000Y-14600000D02*
X15750000Y-14600000D01*
X23150000Y-39400000D02*
X20750000Y-39400000D01*
X23150000Y-14600000D02*
X20750000Y-14600000D01*
X13350000Y-14600000D02*
X13350000Y-39400000D01*
X23150000Y-39400000D02*
X23150000Y-14600000D01*
X13350000Y-39400000D02*
X15750000Y-39400000D01*
%TO.C,J1*%
X81580000Y-34160000D02*
X73470000Y-34160000D01*
X81580000Y-34160000D02*
X81580000Y-34810000D01*
X66620000Y-34160000D02*
X66620000Y-20840000D01*
X66620000Y-34160000D02*
X69950000Y-34160000D01*
X66620000Y-20840000D02*
X69950000Y-20840000D01*
X82100000Y-20190000D02*
X81580000Y-20190000D01*
X82100000Y-34810000D02*
X82100000Y-20190000D01*
X73470000Y-20840000D02*
X81580000Y-20840000D01*
X81580000Y-34810000D02*
X82100000Y-34810000D01*
X81580000Y-20190000D02*
X81580000Y-20840000D01*
X66400000Y-31900000D02*
X66400000Y-30100000D01*
%TO.C,PS1*%
X46000000Y-42790000D02*
X48010000Y-42790000D01*
X39400000Y-8200000D02*
X39400000Y-42400000D01*
X59600000Y-8200000D02*
X39400000Y-8200000D01*
X59600000Y-42400000D02*
X59600000Y-8200000D01*
X39400000Y-42400000D02*
X59600000Y-42400000D01*
%TO.C,FL1*%
X37000000Y-39000000D02*
X37000000Y-31500000D01*
X37000000Y-31500000D02*
X36000000Y-30500000D01*
X36000000Y-30500000D02*
X32000000Y-30500000D01*
X27000000Y-46500000D02*
X28000000Y-47500000D01*
X28000000Y-47500000D02*
X32000000Y-47500000D01*
X27000000Y-39000000D02*
X27000000Y-46500000D01*
X27000000Y-39000000D02*
X27000000Y-31500000D01*
X27000000Y-31500000D02*
X28000000Y-30500000D01*
X28000000Y-30500000D02*
X32000000Y-30500000D01*
X37000000Y-39000000D02*
X37000000Y-46500000D01*
X37000000Y-46500000D02*
X36000000Y-47500000D01*
X36000000Y-47500000D02*
X32000000Y-47500000D01*
X37000000Y-45500000D02*
X35000000Y-47500000D01*
X29000000Y-47500000D02*
X27000000Y-45500000D01*
X29000000Y-30500000D02*
X27000000Y-32500000D01*
X35000000Y-30500000D02*
X37000000Y-32500000D01*
X36000000Y-31500000D02*
X28000000Y-31500000D01*
X28000000Y-46500000D02*
X36000000Y-46500000D01*
X36000000Y-46500000D02*
X32000000Y-43000000D01*
X32000000Y-43000000D02*
X32000000Y-39000000D01*
X32000000Y-43000000D02*
X28000000Y-46500000D01*
X32000000Y-35000000D02*
X36000000Y-31500000D01*
X28000000Y-31500000D02*
X32000000Y-35000000D01*
X32000000Y-39000000D02*
X32000000Y-35000000D01*
X32000000Y-43000000D02*
X33000000Y-42000000D01*
X33000000Y-42000000D02*
X33000000Y-36000000D01*
X33000000Y-36000000D02*
X32000000Y-35000000D01*
X32000000Y-35000000D02*
X31000000Y-36000000D01*
X31000000Y-36000000D02*
X31000000Y-42000000D01*
X31000000Y-42000000D02*
X32000000Y-43000000D01*
X24000000Y-49000000D02*
X24000000Y-29000000D01*
X24000000Y-49000000D02*
X25000000Y-48000000D01*
X25000000Y-48000000D02*
X25000000Y-30000000D01*
X25000000Y-30000000D02*
X24000000Y-29000000D01*
X25000000Y-30000000D02*
X24000000Y-31000000D01*
X24000000Y-31000000D02*
X25000000Y-32000000D01*
X25000000Y-32000000D02*
X24000000Y-33000000D01*
X24000000Y-33000000D02*
X25000000Y-34000000D01*
X25000000Y-34000000D02*
X24000000Y-35000000D01*
X24000000Y-35000000D02*
X25000000Y-36000000D01*
X25000000Y-36000000D02*
X24000000Y-37000000D01*
X24000000Y-37000000D02*
X25000000Y-38500000D01*
X25000000Y-38500000D02*
X24000000Y-39500000D01*
X24000000Y-39500000D02*
X25000000Y-40500000D01*
X25000000Y-40500000D02*
X24000000Y-41500000D01*
X24000000Y-41500000D02*
X25000000Y-42500000D01*
X25000000Y-42500000D02*
X24000000Y-43500000D01*
X24000000Y-43500000D02*
X25000000Y-44500000D01*
X25000000Y-44500000D02*
X24000000Y-45500000D01*
X24000000Y-45500000D02*
X25000000Y-46500000D01*
X25000000Y-46500000D02*
X24000000Y-47500000D01*
%TO.C,RV1*%
X25130000Y-6980000D02*
X34370000Y-6980000D01*
X25130000Y-17020000D02*
X34370000Y-17020000D01*
X25130000Y-6980000D02*
X25130000Y-11335000D01*
X25130000Y-12665000D02*
X25130000Y-17020000D01*
X34370000Y-6980000D02*
X34370000Y-11335000D01*
X34370000Y-12665000D02*
X34370000Y-17020000D01*
%TO.C,C3*%
X70770000Y-14250000D02*
G75*
G03*
X70770000Y-14250000I-3270000J0D01*
G01*
X64270000Y-14250000D02*
X70730000Y-14250000D01*
X64270000Y-14210000D02*
X70730000Y-14210000D01*
X64270000Y-14170000D02*
X70730000Y-14170000D01*
X64272000Y-14130000D02*
X70728000Y-14130000D01*
X64273000Y-14090000D02*
X70727000Y-14090000D01*
X64276000Y-14050000D02*
X70724000Y-14050000D01*
X64278000Y-14010000D02*
X66460000Y-14010000D01*
X68540000Y-14010000D02*
X70722000Y-14010000D01*
X64282000Y-13970000D02*
X66460000Y-13970000D01*
X68540000Y-13970000D02*
X70718000Y-13970000D01*
X64285000Y-13930000D02*
X66460000Y-13930000D01*
X68540000Y-13930000D02*
X70715000Y-13930000D01*
X64289000Y-13890000D02*
X66460000Y-13890000D01*
X68540000Y-13890000D02*
X70711000Y-13890000D01*
X64294000Y-13850000D02*
X66460000Y-13850000D01*
X68540000Y-13850000D02*
X70706000Y-13850000D01*
X64299000Y-13810000D02*
X66460000Y-13810000D01*
X68540000Y-13810000D02*
X70701000Y-13810000D01*
X64305000Y-13770000D02*
X66460000Y-13770000D01*
X68540000Y-13770000D02*
X70695000Y-13770000D01*
X64311000Y-13730000D02*
X66460000Y-13730000D01*
X68540000Y-13730000D02*
X70689000Y-13730000D01*
X64318000Y-13690000D02*
X66460000Y-13690000D01*
X68540000Y-13690000D02*
X70682000Y-13690000D01*
X64325000Y-13650000D02*
X66460000Y-13650000D01*
X68540000Y-13650000D02*
X70675000Y-13650000D01*
X64333000Y-13610000D02*
X66460000Y-13610000D01*
X68540000Y-13610000D02*
X70667000Y-13610000D01*
X64341000Y-13570000D02*
X66460000Y-13570000D01*
X68540000Y-13570000D02*
X70659000Y-13570000D01*
X64350000Y-13529000D02*
X66460000Y-13529000D01*
X68540000Y-13529000D02*
X70650000Y-13529000D01*
X64359000Y-13489000D02*
X66460000Y-13489000D01*
X68540000Y-13489000D02*
X70641000Y-13489000D01*
X64369000Y-13449000D02*
X66460000Y-13449000D01*
X68540000Y-13449000D02*
X70631000Y-13449000D01*
X64379000Y-13409000D02*
X66460000Y-13409000D01*
X68540000Y-13409000D02*
X70621000Y-13409000D01*
X64390000Y-13369000D02*
X66460000Y-13369000D01*
X68540000Y-13369000D02*
X70610000Y-13369000D01*
X64402000Y-13329000D02*
X66460000Y-13329000D01*
X68540000Y-13329000D02*
X70598000Y-13329000D01*
X64414000Y-13289000D02*
X66460000Y-13289000D01*
X68540000Y-13289000D02*
X70586000Y-13289000D01*
X64426000Y-13249000D02*
X66460000Y-13249000D01*
X68540000Y-13249000D02*
X70574000Y-13249000D01*
X64439000Y-13209000D02*
X66460000Y-13209000D01*
X68540000Y-13209000D02*
X70561000Y-13209000D01*
X64453000Y-13169000D02*
X66460000Y-13169000D01*
X68540000Y-13169000D02*
X70547000Y-13169000D01*
X64467000Y-13129000D02*
X66460000Y-13129000D01*
X68540000Y-13129000D02*
X70533000Y-13129000D01*
X64482000Y-13089000D02*
X66460000Y-13089000D01*
X68540000Y-13089000D02*
X70518000Y-13089000D01*
X64498000Y-13049000D02*
X66460000Y-13049000D01*
X68540000Y-13049000D02*
X70502000Y-13049000D01*
X64514000Y-13009000D02*
X66460000Y-13009000D01*
X68540000Y-13009000D02*
X70486000Y-13009000D01*
X64530000Y-12969000D02*
X66460000Y-12969000D01*
X68540000Y-12969000D02*
X70470000Y-12969000D01*
X64548000Y-12929000D02*
X66460000Y-12929000D01*
X68540000Y-12929000D02*
X70452000Y-12929000D01*
X64566000Y-12889000D02*
X66460000Y-12889000D01*
X68540000Y-12889000D02*
X70434000Y-12889000D01*
X64584000Y-12849000D02*
X66460000Y-12849000D01*
X68540000Y-12849000D02*
X70416000Y-12849000D01*
X64604000Y-12809000D02*
X66460000Y-12809000D01*
X68540000Y-12809000D02*
X70396000Y-12809000D01*
X64624000Y-12769000D02*
X66460000Y-12769000D01*
X68540000Y-12769000D02*
X70376000Y-12769000D01*
X64644000Y-12729000D02*
X66460000Y-12729000D01*
X68540000Y-12729000D02*
X70356000Y-12729000D01*
X64666000Y-12689000D02*
X66460000Y-12689000D01*
X68540000Y-12689000D02*
X70334000Y-12689000D01*
X64688000Y-12649000D02*
X66460000Y-12649000D01*
X68540000Y-12649000D02*
X70312000Y-12649000D01*
X64710000Y-12609000D02*
X66460000Y-12609000D01*
X68540000Y-12609000D02*
X70290000Y-12609000D01*
X64734000Y-12569000D02*
X66460000Y-12569000D01*
X68540000Y-12569000D02*
X70266000Y-12569000D01*
X64758000Y-12529000D02*
X66460000Y-12529000D01*
X68540000Y-12529000D02*
X70242000Y-12529000D01*
X64784000Y-12489000D02*
X66460000Y-12489000D01*
X68540000Y-12489000D02*
X70216000Y-12489000D01*
X64810000Y-12449000D02*
X66460000Y-12449000D01*
X68540000Y-12449000D02*
X70190000Y-12449000D01*
X64836000Y-12409000D02*
X66460000Y-12409000D01*
X68540000Y-12409000D02*
X70164000Y-12409000D01*
X64864000Y-12369000D02*
X66460000Y-12369000D01*
X68540000Y-12369000D02*
X70136000Y-12369000D01*
X64893000Y-12329000D02*
X66460000Y-12329000D01*
X68540000Y-12329000D02*
X70107000Y-12329000D01*
X64922000Y-12289000D02*
X66460000Y-12289000D01*
X68540000Y-12289000D02*
X70078000Y-12289000D01*
X64952000Y-12249000D02*
X66460000Y-12249000D01*
X68540000Y-12249000D02*
X70048000Y-12249000D01*
X64984000Y-12209000D02*
X66460000Y-12209000D01*
X68540000Y-12209000D02*
X70016000Y-12209000D01*
X65016000Y-12169000D02*
X66460000Y-12169000D01*
X68540000Y-12169000D02*
X69984000Y-12169000D01*
X65050000Y-12129000D02*
X66460000Y-12129000D01*
X68540000Y-12129000D02*
X69950000Y-12129000D01*
X65084000Y-12089000D02*
X66460000Y-12089000D01*
X68540000Y-12089000D02*
X69916000Y-12089000D01*
X65120000Y-12049000D02*
X66460000Y-12049000D01*
X68540000Y-12049000D02*
X69880000Y-12049000D01*
X65157000Y-12009000D02*
X66460000Y-12009000D01*
X68540000Y-12009000D02*
X69843000Y-12009000D01*
X65195000Y-11969000D02*
X66460000Y-11969000D01*
X68540000Y-11969000D02*
X69805000Y-11969000D01*
X65235000Y-11929000D02*
X69765000Y-11929000D01*
X65276000Y-11889000D02*
X69724000Y-11889000D01*
X65318000Y-11849000D02*
X69682000Y-11849000D01*
X65363000Y-11809000D02*
X69637000Y-11809000D01*
X65408000Y-11769000D02*
X69592000Y-11769000D01*
X65456000Y-11729000D02*
X69544000Y-11729000D01*
X65505000Y-11689000D02*
X69495000Y-11689000D01*
X65556000Y-11649000D02*
X69444000Y-11649000D01*
X65610000Y-11609000D02*
X69390000Y-11609000D01*
X65666000Y-11569000D02*
X69334000Y-11569000D01*
X65724000Y-11529000D02*
X69276000Y-11529000D01*
X65786000Y-11489000D02*
X69214000Y-11489000D01*
X65850000Y-11449000D02*
X69150000Y-11449000D01*
X65919000Y-11409000D02*
X69081000Y-11409000D01*
X65991000Y-11369000D02*
X69009000Y-11369000D01*
X66068000Y-11329000D02*
X68932000Y-11329000D01*
X66150000Y-11289000D02*
X68850000Y-11289000D01*
X66238000Y-11249000D02*
X68762000Y-11249000D01*
X66335000Y-11209000D02*
X68665000Y-11209000D01*
X66441000Y-11169000D02*
X68559000Y-11169000D01*
X66560000Y-11129000D02*
X68440000Y-11129000D01*
X66698000Y-11089000D02*
X68302000Y-11089000D01*
X66867000Y-11049000D02*
X68133000Y-11049000D01*
X67098000Y-11009000D02*
X67902000Y-11009000D01*
X65661000Y-17750241D02*
X65661000Y-17120241D01*
X65346000Y-17435241D02*
X65976000Y-17435241D01*
%TO.C,C1*%
X24630000Y-20880000D02*
X34870000Y-20880000D01*
X24630000Y-25120000D02*
X34870000Y-25120000D01*
X24630000Y-20880000D02*
X24630000Y-25120000D01*
X34870000Y-20880000D02*
X34870000Y-25120000D01*
%TO.C,C5*%
X71380000Y-37630000D02*
X77620000Y-37630000D01*
X71380000Y-40370000D02*
X77620000Y-40370000D01*
X71380000Y-37630000D02*
X71380000Y-38075000D01*
X71380000Y-39925000D02*
X71380000Y-40370000D01*
X77620000Y-37630000D02*
X77620000Y-38075000D01*
X77620000Y-39925000D02*
X77620000Y-40370000D01*
%TO.C,C4*%
X62380000Y-37630000D02*
X68620000Y-37630000D01*
X62380000Y-40370000D02*
X68620000Y-40370000D01*
X62380000Y-37630000D02*
X62380000Y-38075000D01*
X62380000Y-39925000D02*
X62380000Y-40370000D01*
X68620000Y-37630000D02*
X68620000Y-38075000D01*
X68620000Y-39925000D02*
X68620000Y-40370000D01*
%TO.C,C2*%
X78770000Y-14250000D02*
G75*
G03*
X78770000Y-14250000I-3270000J0D01*
G01*
X72270000Y-14250000D02*
X78730000Y-14250000D01*
X72270000Y-14210000D02*
X78730000Y-14210000D01*
X72270000Y-14170000D02*
X78730000Y-14170000D01*
X72272000Y-14130000D02*
X78728000Y-14130000D01*
X72273000Y-14090000D02*
X78727000Y-14090000D01*
X72276000Y-14050000D02*
X78724000Y-14050000D01*
X72278000Y-14010000D02*
X74460000Y-14010000D01*
X76540000Y-14010000D02*
X78722000Y-14010000D01*
X72282000Y-13970000D02*
X74460000Y-13970000D01*
X76540000Y-13970000D02*
X78718000Y-13970000D01*
X72285000Y-13930000D02*
X74460000Y-13930000D01*
X76540000Y-13930000D02*
X78715000Y-13930000D01*
X72289000Y-13890000D02*
X74460000Y-13890000D01*
X76540000Y-13890000D02*
X78711000Y-13890000D01*
X72294000Y-13850000D02*
X74460000Y-13850000D01*
X76540000Y-13850000D02*
X78706000Y-13850000D01*
X72299000Y-13810000D02*
X74460000Y-13810000D01*
X76540000Y-13810000D02*
X78701000Y-13810000D01*
X72305000Y-13770000D02*
X74460000Y-13770000D01*
X76540000Y-13770000D02*
X78695000Y-13770000D01*
X72311000Y-13730000D02*
X74460000Y-13730000D01*
X76540000Y-13730000D02*
X78689000Y-13730000D01*
X72318000Y-13690000D02*
X74460000Y-13690000D01*
X76540000Y-13690000D02*
X78682000Y-13690000D01*
X72325000Y-13650000D02*
X74460000Y-13650000D01*
X76540000Y-13650000D02*
X78675000Y-13650000D01*
X72333000Y-13610000D02*
X74460000Y-13610000D01*
X76540000Y-13610000D02*
X78667000Y-13610000D01*
X72341000Y-13570000D02*
X74460000Y-13570000D01*
X76540000Y-13570000D02*
X78659000Y-13570000D01*
X72350000Y-13529000D02*
X74460000Y-13529000D01*
X76540000Y-13529000D02*
X78650000Y-13529000D01*
X72359000Y-13489000D02*
X74460000Y-13489000D01*
X76540000Y-13489000D02*
X78641000Y-13489000D01*
X72369000Y-13449000D02*
X74460000Y-13449000D01*
X76540000Y-13449000D02*
X78631000Y-13449000D01*
X72379000Y-13409000D02*
X74460000Y-13409000D01*
X76540000Y-13409000D02*
X78621000Y-13409000D01*
X72390000Y-13369000D02*
X74460000Y-13369000D01*
X76540000Y-13369000D02*
X78610000Y-13369000D01*
X72402000Y-13329000D02*
X74460000Y-13329000D01*
X76540000Y-13329000D02*
X78598000Y-13329000D01*
X72414000Y-13289000D02*
X74460000Y-13289000D01*
X76540000Y-13289000D02*
X78586000Y-13289000D01*
X72426000Y-13249000D02*
X74460000Y-13249000D01*
X76540000Y-13249000D02*
X78574000Y-13249000D01*
X72439000Y-13209000D02*
X74460000Y-13209000D01*
X76540000Y-13209000D02*
X78561000Y-13209000D01*
X72453000Y-13169000D02*
X74460000Y-13169000D01*
X76540000Y-13169000D02*
X78547000Y-13169000D01*
X72467000Y-13129000D02*
X74460000Y-13129000D01*
X76540000Y-13129000D02*
X78533000Y-13129000D01*
X72482000Y-13089000D02*
X74460000Y-13089000D01*
X76540000Y-13089000D02*
X78518000Y-13089000D01*
X72498000Y-13049000D02*
X74460000Y-13049000D01*
X76540000Y-13049000D02*
X78502000Y-13049000D01*
X72514000Y-13009000D02*
X74460000Y-13009000D01*
X76540000Y-13009000D02*
X78486000Y-13009000D01*
X72530000Y-12969000D02*
X74460000Y-12969000D01*
X76540000Y-12969000D02*
X78470000Y-12969000D01*
X72548000Y-12929000D02*
X74460000Y-12929000D01*
X76540000Y-12929000D02*
X78452000Y-12929000D01*
X72566000Y-12889000D02*
X74460000Y-12889000D01*
X76540000Y-12889000D02*
X78434000Y-12889000D01*
X72584000Y-12849000D02*
X74460000Y-12849000D01*
X76540000Y-12849000D02*
X78416000Y-12849000D01*
X72604000Y-12809000D02*
X74460000Y-12809000D01*
X76540000Y-12809000D02*
X78396000Y-12809000D01*
X72624000Y-12769000D02*
X74460000Y-12769000D01*
X76540000Y-12769000D02*
X78376000Y-12769000D01*
X72644000Y-12729000D02*
X74460000Y-12729000D01*
X76540000Y-12729000D02*
X78356000Y-12729000D01*
X72666000Y-12689000D02*
X74460000Y-12689000D01*
X76540000Y-12689000D02*
X78334000Y-12689000D01*
X72688000Y-12649000D02*
X74460000Y-12649000D01*
X76540000Y-12649000D02*
X78312000Y-12649000D01*
X72710000Y-12609000D02*
X74460000Y-12609000D01*
X76540000Y-12609000D02*
X78290000Y-12609000D01*
X72734000Y-12569000D02*
X74460000Y-12569000D01*
X76540000Y-12569000D02*
X78266000Y-12569000D01*
X72758000Y-12529000D02*
X74460000Y-12529000D01*
X76540000Y-12529000D02*
X78242000Y-12529000D01*
X72784000Y-12489000D02*
X74460000Y-12489000D01*
X76540000Y-12489000D02*
X78216000Y-12489000D01*
X72810000Y-12449000D02*
X74460000Y-12449000D01*
X76540000Y-12449000D02*
X78190000Y-12449000D01*
X72836000Y-12409000D02*
X74460000Y-12409000D01*
X76540000Y-12409000D02*
X78164000Y-12409000D01*
X72864000Y-12369000D02*
X74460000Y-12369000D01*
X76540000Y-12369000D02*
X78136000Y-12369000D01*
X72893000Y-12329000D02*
X74460000Y-12329000D01*
X76540000Y-12329000D02*
X78107000Y-12329000D01*
X72922000Y-12289000D02*
X74460000Y-12289000D01*
X76540000Y-12289000D02*
X78078000Y-12289000D01*
X72952000Y-12249000D02*
X74460000Y-12249000D01*
X76540000Y-12249000D02*
X78048000Y-12249000D01*
X72984000Y-12209000D02*
X74460000Y-12209000D01*
X76540000Y-12209000D02*
X78016000Y-12209000D01*
X73016000Y-12169000D02*
X74460000Y-12169000D01*
X76540000Y-12169000D02*
X77984000Y-12169000D01*
X73050000Y-12129000D02*
X74460000Y-12129000D01*
X76540000Y-12129000D02*
X77950000Y-12129000D01*
X73084000Y-12089000D02*
X74460000Y-12089000D01*
X76540000Y-12089000D02*
X77916000Y-12089000D01*
X73120000Y-12049000D02*
X74460000Y-12049000D01*
X76540000Y-12049000D02*
X77880000Y-12049000D01*
X73157000Y-12009000D02*
X74460000Y-12009000D01*
X76540000Y-12009000D02*
X77843000Y-12009000D01*
X73195000Y-11969000D02*
X74460000Y-11969000D01*
X76540000Y-11969000D02*
X77805000Y-11969000D01*
X73235000Y-11929000D02*
X77765000Y-11929000D01*
X73276000Y-11889000D02*
X77724000Y-11889000D01*
X73318000Y-11849000D02*
X77682000Y-11849000D01*
X73363000Y-11809000D02*
X77637000Y-11809000D01*
X73408000Y-11769000D02*
X77592000Y-11769000D01*
X73456000Y-11729000D02*
X77544000Y-11729000D01*
X73505000Y-11689000D02*
X77495000Y-11689000D01*
X73556000Y-11649000D02*
X77444000Y-11649000D01*
X73610000Y-11609000D02*
X77390000Y-11609000D01*
X73666000Y-11569000D02*
X77334000Y-11569000D01*
X73724000Y-11529000D02*
X77276000Y-11529000D01*
X73786000Y-11489000D02*
X77214000Y-11489000D01*
X73850000Y-11449000D02*
X77150000Y-11449000D01*
X73919000Y-11409000D02*
X77081000Y-11409000D01*
X73991000Y-11369000D02*
X77009000Y-11369000D01*
X74068000Y-11329000D02*
X76932000Y-11329000D01*
X74150000Y-11289000D02*
X76850000Y-11289000D01*
X74238000Y-11249000D02*
X76762000Y-11249000D01*
X74335000Y-11209000D02*
X76665000Y-11209000D01*
X74441000Y-11169000D02*
X76559000Y-11169000D01*
X74560000Y-11129000D02*
X76440000Y-11129000D01*
X74698000Y-11089000D02*
X76302000Y-11089000D01*
X74867000Y-11049000D02*
X76133000Y-11049000D01*
X75098000Y-11009000D02*
X75902000Y-11009000D01*
X73661000Y-17750241D02*
X73661000Y-17120241D01*
X73346000Y-17435241D02*
X73976000Y-17435241D01*
%TO.C,F1*%
D10*
X18428571Y-27333333D02*
X18428571Y-27666666D01*
X18952380Y-27666666D02*
X17952380Y-27666666D01*
X17952380Y-27190476D01*
X18952380Y-26285714D02*
X18952380Y-26857142D01*
X18952380Y-26571428D02*
X17952380Y-26571428D01*
X18095238Y-26666666D01*
X18190476Y-26761904D01*
X18238095Y-26857142D01*
%TO.C,J1*%
X65262380Y-27833333D02*
X65976666Y-27833333D01*
X66119523Y-27880952D01*
X66214761Y-27976190D01*
X66262380Y-28119047D01*
X66262380Y-28214285D01*
X66262380Y-26833333D02*
X66262380Y-27404761D01*
X66262380Y-27119047D02*
X65262380Y-27119047D01*
X65405238Y-27214285D01*
X65500476Y-27309523D01*
X65548095Y-27404761D01*
%TO.C,PS1*%
X45235714Y-44392380D02*
X45235714Y-43392380D01*
X45616666Y-43392380D01*
X45711904Y-43440000D01*
X45759523Y-43487619D01*
X45807142Y-43582857D01*
X45807142Y-43725714D01*
X45759523Y-43820952D01*
X45711904Y-43868571D01*
X45616666Y-43916190D01*
X45235714Y-43916190D01*
X46188095Y-44344761D02*
X46330952Y-44392380D01*
X46569047Y-44392380D01*
X46664285Y-44344761D01*
X46711904Y-44297142D01*
X46759523Y-44201904D01*
X46759523Y-44106666D01*
X46711904Y-44011428D01*
X46664285Y-43963809D01*
X46569047Y-43916190D01*
X46378571Y-43868571D01*
X46283333Y-43820952D01*
X46235714Y-43773333D01*
X46188095Y-43678095D01*
X46188095Y-43582857D01*
X46235714Y-43487619D01*
X46283333Y-43440000D01*
X46378571Y-43392380D01*
X46616666Y-43392380D01*
X46759523Y-43440000D01*
X47711904Y-44392380D02*
X47140476Y-44392380D01*
X47426190Y-44392380D02*
X47426190Y-43392380D01*
X47330952Y-43535238D01*
X47235714Y-43630476D01*
X47140476Y-43678095D01*
%TO.C,FL1*%
X31261904Y-48428571D02*
X30928571Y-48428571D01*
X30928571Y-48952380D02*
X30928571Y-47952380D01*
X31404761Y-47952380D01*
X32261904Y-48952380D02*
X31785714Y-48952380D01*
X31785714Y-47952380D01*
X33119047Y-48952380D02*
X32547619Y-48952380D01*
X32833333Y-48952380D02*
X32833333Y-47952380D01*
X32738095Y-48095238D01*
X32642857Y-48190476D01*
X32547619Y-48238095D01*
%TO.C,RV1*%
X29154761Y-12452380D02*
X28821428Y-11976190D01*
X28583333Y-12452380D02*
X28583333Y-11452380D01*
X28964285Y-11452380D01*
X29059523Y-11500000D01*
X29107142Y-11547619D01*
X29154761Y-11642857D01*
X29154761Y-11785714D01*
X29107142Y-11880952D01*
X29059523Y-11928571D01*
X28964285Y-11976190D01*
X28583333Y-11976190D01*
X29440476Y-11452380D02*
X29773809Y-12452380D01*
X30107142Y-11452380D01*
X30964285Y-12452380D02*
X30392857Y-12452380D01*
X30678571Y-12452380D02*
X30678571Y-11452380D01*
X30583333Y-11595238D01*
X30488095Y-11690476D01*
X30392857Y-11738095D01*
%TO.C,C3*%
X64083333Y-11357142D02*
X64035714Y-11404761D01*
X63892857Y-11452380D01*
X63797619Y-11452380D01*
X63654761Y-11404761D01*
X63559523Y-11309523D01*
X63511904Y-11214285D01*
X63464285Y-11023809D01*
X63464285Y-10880952D01*
X63511904Y-10690476D01*
X63559523Y-10595238D01*
X63654761Y-10500000D01*
X63797619Y-10452380D01*
X63892857Y-10452380D01*
X64035714Y-10500000D01*
X64083333Y-10547619D01*
X64416666Y-10452380D02*
X65035714Y-10452380D01*
X64702380Y-10833333D01*
X64845238Y-10833333D01*
X64940476Y-10880952D01*
X64988095Y-10928571D01*
X65035714Y-11023809D01*
X65035714Y-11261904D01*
X64988095Y-11357142D01*
X64940476Y-11404761D01*
X64845238Y-11452380D01*
X64559523Y-11452380D01*
X64464285Y-11404761D01*
X64416666Y-11357142D01*
%TO.C,C1*%
X29583333Y-23357142D02*
X29535714Y-23404761D01*
X29392857Y-23452380D01*
X29297619Y-23452380D01*
X29154761Y-23404761D01*
X29059523Y-23309523D01*
X29011904Y-23214285D01*
X28964285Y-23023809D01*
X28964285Y-22880952D01*
X29011904Y-22690476D01*
X29059523Y-22595238D01*
X29154761Y-22500000D01*
X29297619Y-22452380D01*
X29392857Y-22452380D01*
X29535714Y-22500000D01*
X29583333Y-22547619D01*
X30535714Y-23452380D02*
X29964285Y-23452380D01*
X30250000Y-23452380D02*
X30250000Y-22452380D01*
X30154761Y-22595238D01*
X30059523Y-22690476D01*
X29964285Y-22738095D01*
%TO.C,C5*%
X71833333Y-36857142D02*
X71785714Y-36904761D01*
X71642857Y-36952380D01*
X71547619Y-36952380D01*
X71404761Y-36904761D01*
X71309523Y-36809523D01*
X71261904Y-36714285D01*
X71214285Y-36523809D01*
X71214285Y-36380952D01*
X71261904Y-36190476D01*
X71309523Y-36095238D01*
X71404761Y-36000000D01*
X71547619Y-35952380D01*
X71642857Y-35952380D01*
X71785714Y-36000000D01*
X71833333Y-36047619D01*
X72738095Y-35952380D02*
X72261904Y-35952380D01*
X72214285Y-36428571D01*
X72261904Y-36380952D01*
X72357142Y-36333333D01*
X72595238Y-36333333D01*
X72690476Y-36380952D01*
X72738095Y-36428571D01*
X72785714Y-36523809D01*
X72785714Y-36761904D01*
X72738095Y-36857142D01*
X72690476Y-36904761D01*
X72595238Y-36952380D01*
X72357142Y-36952380D01*
X72261904Y-36904761D01*
X72214285Y-36857142D01*
%TO.C,C4*%
X62333333Y-36857142D02*
X62285714Y-36904761D01*
X62142857Y-36952380D01*
X62047619Y-36952380D01*
X61904761Y-36904761D01*
X61809523Y-36809523D01*
X61761904Y-36714285D01*
X61714285Y-36523809D01*
X61714285Y-36380952D01*
X61761904Y-36190476D01*
X61809523Y-36095238D01*
X61904761Y-36000000D01*
X62047619Y-35952380D01*
X62142857Y-35952380D01*
X62285714Y-36000000D01*
X62333333Y-36047619D01*
X63190476Y-36285714D02*
X63190476Y-36952380D01*
X62952380Y-35904761D02*
X62714285Y-36619047D01*
X63333333Y-36619047D01*
%TO.C,C2*%
X78583333Y-11357142D02*
X78535714Y-11404761D01*
X78392857Y-11452380D01*
X78297619Y-11452380D01*
X78154761Y-11404761D01*
X78059523Y-11309523D01*
X78011904Y-11214285D01*
X77964285Y-11023809D01*
X77964285Y-10880952D01*
X78011904Y-10690476D01*
X78059523Y-10595238D01*
X78154761Y-10500000D01*
X78297619Y-10452380D01*
X78392857Y-10452380D01*
X78535714Y-10500000D01*
X78583333Y-10547619D01*
X78964285Y-10547619D02*
X79011904Y-10500000D01*
X79107142Y-10452380D01*
X79345238Y-10452380D01*
X79440476Y-10500000D01*
X79488095Y-10547619D01*
X79535714Y-10642857D01*
X79535714Y-10738095D01*
X79488095Y-10880952D01*
X78916666Y-11452380D01*
X79535714Y-11452380D01*
%TD*%
M02*
