M48
; DRILL file {KiCad (5.1.7)-1} date 03/19/21 19:43:15
; FORMAT={-:-/ absolute / metric / decimal}
; #@! TF.CreationDate,2021-03-19T19:43:15+01:00
; #@! TF.GenerationSoftware,Kicad,Pcbnew,(5.1.7)-1
; #@! TF.FileFunction,Plated,1,2,PTH
FMAT,2
METRIC
T1C0.500
T2C0.750
T3C0.800
T4C0.950
T5C1.000
T6C1.300
T7C1.700
T8C2.300
T9C3.200
%
G90
G05
T1
X4.6Y-47.0
X5.303Y-45.303
X5.303Y-48.697
X7.0Y-44.6
X7.0Y-49.4
X8.697Y-45.303
X8.697Y-48.697
X9.4Y-47.0
X71.6Y-47.0
X72.303Y-45.303
X72.303Y-48.697
X74.0Y-44.6
X74.0Y-49.4
X75.697Y-45.303
X75.697Y-48.697
X76.4Y-47.0
X71.6Y-7.0
X72.303Y-5.303
X72.303Y-8.697
X74.0Y-4.6
X74.0Y-9.4
X75.697Y-5.303
X75.697Y-8.697
X76.4Y-7.0
X4.6Y-7.0
X5.303Y-5.303
X5.303Y-8.697
X7.0Y-4.6
X7.0Y-9.4
X8.697Y-5.303
X8.697Y-8.697
X9.4Y-7.0
T2
X28.5Y-35.0
X28.5Y-43.0
X35.5Y-35.0
X35.5Y-43.0
T3
X67.5Y-13.0
X67.5Y-15.5
X75.5Y-13.0
X75.5Y-15.5
X26.0Y-12.0
X33.5Y-12.0
X72.0Y-39.0
X77.0Y-39.0
X63.0Y-39.0
X68.0Y-39.0
T4
X69.0Y-24.0
X69.0Y-26.5
X69.0Y-28.5
X69.0Y-31.0
T5
X41.8Y-10.6
X47.0Y-40.0
X52.0Y-40.0
X57.2Y-10.6
X26.0Y-23.0
X33.5Y-23.0
T6
X7.0Y-24.5
X7.0Y-29.5
T7
X18.25Y-15.7
X18.25Y-38.3
T8
X71.71Y-20.93
X71.71Y-34.07
T9
X7.0Y-47.0
X74.0Y-47.0
X74.0Y-7.0
X7.0Y-7.0
T0
M30
