<?xml version="1.0" standalone="no"?>
 <!DOCTYPE svg PUBLIC "-//W3C//DTD SVG 1.1//EN" 
 "http://www.w3.org/Graphics/SVG/1.1/DTD/svg11.dtd"> 
<svg
  xmlns:svg="http://www.w3.org/2000/svg"
  xmlns="http://www.w3.org/2000/svg"
  xmlns:xlink="http://www.w3.org/1999/xlink"
  version="1.1"
  width="29.700220cm" height="21.000720cm" viewBox="0 0 116930 82680">
<title>SVG Picture created as LowNoise5V-Edge_Cuts.svg date 2021/03/19 12:29:50 </title>
  <desc>Picture generated by PCBNEW </desc>
<g style="fill:#000000; fill-opacity:1;stroke:#000000; stroke-opacity:1;
stroke-linecap:round; stroke-linejoin:round;"
 transform="translate(0 0) scale(1 1)">
</g>
<g style="fill:#000000; fill-opacity:0.0; 
stroke:#000000; stroke-width:-0.000393701; stroke-opacity:1; 
stroke-linecap:round; stroke-linejoin:round;">
</g>
<g style="fill:#000000; fill-opacity:0.0; 
stroke:#000000; stroke-width:19.685; stroke-opacity:1; 
stroke-linecap:round; stroke-linejoin:round;">
<path d="M5511 20078
L26377 20078
" />
<path d="M5511 1181
L26377 1181
" />
<path d="M0 2755
L0 18503
" />
<path d="M31889 2755
L31889 18503
" />
<path d="M27559 21259
L26377 20078
" />
<path d="M29133 21259
L27559 21259
" />
<path d="M4330 21259
L5511 20078
" />
<path d="M2755 21259
L4330 21259
" />
<path d="M27559 0
L26377 1181
" />
<path d="M29133 0
L27559 0
" />
<path d="M4330 0
L5511 1181
" />
<path d="M2755 0
L4330 0
" />
<path d="M29133 0
L30708 0
" />
<path d="M31889 2755
L31889 1181
" />
<path d="M31889 1181
L30708 0
" />
<path d="M31889 18503
L31889 20078
" />
<path d="M29133 21259
L30708 21259
" />
<path d="M30708 21259
L31889 20078
" />
<path d="M2755 21259
L1181 21259
" />
<path d="M0 18503
L0 20078
" />
<path d="M0 20078
L1181 21259
" />
<path d="M1181 0
L0 1181
" />
<path d="M2755 0
L1181 0
" />
<path d="M0 2755
L0 1181
" />
<g >
</g>
<g >
</g>
<g >
</g>
<g >
</g>
<g >
</g>
<g >
</g>
<g >
</g>
<g >
</g>
<g >
</g>
<g >
</g>
<g >
</g>
<g >
</g>
<g >
</g>
<g >
</g>
<g >
</g>
<g >
</g>
</g> 
</svg>
