<?xml version="1.0" standalone="no"?>
 <!DOCTYPE svg PUBLIC "-//W3C//DTD SVG 1.1//EN" 
 "http://www.w3.org/Graphics/SVG/1.1/DTD/svg11.dtd"> 
<svg
  xmlns:svg="http://www.w3.org/2000/svg"
  xmlns="http://www.w3.org/2000/svg"
  xmlns:xlink="http://www.w3.org/1999/xlink"
  version="1.1"
  width="29.700220cm" height="21.000720cm" viewBox="0 0 116930 82680">
<title>SVG Picture created as LowNoise5V-B_Cu.svg date 2021/03/19 12:29:50 </title>
  <desc>Picture generated by PCBNEW </desc>
<g style="fill:#000000; fill-opacity:1;stroke:#000000; stroke-opacity:1;
stroke-linecap:round; stroke-linejoin:round;"
 transform="translate(0 0) scale(1 1)">
</g>
<g style="fill:#000000; fill-opacity:0.0; 
stroke:#000000; stroke-width:-0.000393701; stroke-opacity:1; 
stroke-linecap:round; stroke-linejoin:round;">
<g >
</g>
<g style="fill:#000000; fill-opacity:0.0; 
stroke:#000000; stroke-width:0; stroke-opacity:1; 
stroke-linecap:round; stroke-linejoin:round;">
</g>
<g style="fill:#000000; fill-opacity:1.0; 
stroke:#000000; stroke-width:0; stroke-opacity:1; 
stroke-linecap:round; stroke-linejoin:round;">
<path style="fill:#000000; fill-opacity:1.0; 
stroke:#000000; stroke-width:0; stroke-opacity:1; 
stroke-linecap:round; stroke-linejoin:round;fill-rule:evenodd;"
d="M 3267.72,12126
2244.09,12126
2244.09,11102.4
3267.72,11102.4
Z" /> 
<circle cx="2755.91" cy="9645.67" r="511.811" /> 
</g>
<g style="fill:#000000; fill-opacity:1.0; 
stroke:#000000; stroke-width:39.3701; stroke-opacity:1; 
stroke-linecap:round; stroke-linejoin:round;">
</g>
<g >
</g>
<g style="fill:#000000; fill-opacity:1.0; 
stroke:#000000; stroke-width:39.3701; stroke-opacity:1; 
stroke-linecap:round; stroke-linejoin:round;">
</g>
<g style="fill:#000000; fill-opacity:1.0; 
stroke:#000000; stroke-width:0; stroke-opacity:1; 
stroke-linecap:round; stroke-linejoin:round;">
<circle cx="7185.04" cy="6181.1" r="688.976" /> 
</g>
<g style="fill:#000000; fill-opacity:1.0; 
stroke:#000000; stroke-width:39.3701; stroke-opacity:1; 
stroke-linecap:round; stroke-linejoin:round;">
</g>
<g style="fill:#000000; fill-opacity:1.0; 
stroke:#000000; stroke-width:0; stroke-opacity:1; 
stroke-linecap:round; stroke-linejoin:round;">
<circle cx="7185.04" cy="15078.7" r="688.976" /> 
</g>
<g style="fill:#000000; fill-opacity:1.0; 
stroke:#000000; stroke-width:39.3701; stroke-opacity:1; 
stroke-linecap:round; stroke-linejoin:round;">
</g>
<g >
</g>
<g style="fill:#000000; fill-opacity:1.0; 
stroke:#000000; stroke-width:39.3701; stroke-opacity:1; 
stroke-linecap:round; stroke-linejoin:round;">
</g>
<g style="fill:#000000; fill-opacity:1.0; 
stroke:#000000; stroke-width:0; stroke-opacity:1; 
stroke-linecap:round; stroke-linejoin:round;">
<circle cx="27165.4" cy="9448.82" r="314.961" /> 
</g>
<g style="fill:#000000; fill-opacity:1.0; 
stroke:#000000; stroke-width:39.3701; stroke-opacity:1; 
stroke-linecap:round; stroke-linejoin:round;">
</g>
<g style="fill:#000000; fill-opacity:1.0; 
stroke:#000000; stroke-width:0; stroke-opacity:1; 
stroke-linecap:round; stroke-linejoin:round;">
<circle cx="27165.4" cy="10433.1" r="314.961" /> 
</g>
<g style="fill:#000000; fill-opacity:1.0; 
stroke:#000000; stroke-width:39.3701; stroke-opacity:1; 
stroke-linecap:round; stroke-linejoin:round;">
</g>
<g style="fill:#000000; fill-opacity:1.0; 
stroke:#000000; stroke-width:0; stroke-opacity:1; 
stroke-linecap:round; stroke-linejoin:round;">
<circle cx="27165.4" cy="11220.5" r="314.961" /> 
</g>
<g style="fill:#000000; fill-opacity:1.0; 
stroke:#000000; stroke-width:39.3701; stroke-opacity:1; 
stroke-linecap:round; stroke-linejoin:round;">
</g>
<g style="fill:#000000; fill-opacity:1.0; 
stroke:#000000; stroke-width:0; stroke-opacity:1; 
stroke-linecap:round; stroke-linejoin:round;">
<path style="fill:#000000; fill-opacity:1.0; 
stroke:#000000; stroke-width:0; stroke-opacity:1; 
stroke-linecap:round; stroke-linejoin:round;fill-rule:evenodd;"
d="M 27460.6,12519.7
26870.1,12519.7
26870.1,11889.8
27460.6,11889.8
Z" /> 
<circle cx="28232.3" cy="8240.16" r="590.551" /> 
</g>
<g style="fill:#000000; fill-opacity:1.0; 
stroke:#000000; stroke-width:39.3701; stroke-opacity:1; 
stroke-linecap:round; stroke-linejoin:round;">
</g>
<g style="fill:#000000; fill-opacity:1.0; 
stroke:#000000; stroke-width:0; stroke-opacity:1; 
stroke-linecap:round; stroke-linejoin:round;">
<circle cx="28232.3" cy="13413.4" r="590.551" /> 
</g>
<g style="fill:#000000; fill-opacity:1.0; 
stroke:#000000; stroke-width:39.3701; stroke-opacity:1; 
stroke-linecap:round; stroke-linejoin:round;">
</g>
<g >
</g>
<g style="fill:#000000; fill-opacity:1.0; 
stroke:#000000; stroke-width:39.3701; stroke-opacity:1; 
stroke-linecap:round; stroke-linejoin:round;">
</g>
<g style="fill:#000000; fill-opacity:1.0; 
stroke:#000000; stroke-width:0; stroke-opacity:1; 
stroke-linecap:round; stroke-linejoin:round;">
<circle cx="22519.7" cy="4173.23" r="452.756" /> 
</g>
<g style="fill:#000000; fill-opacity:1.0; 
stroke:#000000; stroke-width:39.3701; stroke-opacity:1; 
stroke-linecap:round; stroke-linejoin:round;">
</g>
<g style="fill:#000000; fill-opacity:1.0; 
stroke:#000000; stroke-width:0; stroke-opacity:1; 
stroke-linecap:round; stroke-linejoin:round;">
<circle cx="20472.4" cy="15748" r="452.756" /> 
</g>
<g style="fill:#000000; fill-opacity:1.0; 
stroke:#000000; stroke-width:39.3701; stroke-opacity:1; 
stroke-linecap:round; stroke-linejoin:round;">
</g>
<g style="fill:#000000; fill-opacity:1.0; 
stroke:#000000; stroke-width:0; stroke-opacity:1; 
stroke-linecap:round; stroke-linejoin:round;">
<path style="fill:#000000; fill-opacity:1.0; 
stroke:#000000; stroke-width:0; stroke-opacity:1; 
stroke-linecap:round; stroke-linejoin:round;fill-rule:evenodd;"
d="M 18897.6,16200.8
18110.2,16200.8
18110.2,15295.3
18897.6,15295.3
Z" /> 
<circle cx="16456.7" cy="4173.23" r="452.756" /> 
</g>
<g style="fill:#000000; fill-opacity:1.0; 
stroke:#000000; stroke-width:39.3701; stroke-opacity:1; 
stroke-linecap:round; stroke-linejoin:round;">
</g>
<g >
</g>
<g style="fill:#000000; fill-opacity:1.0; 
stroke:#000000; stroke-width:39.3701; stroke-opacity:1; 
stroke-linecap:round; stroke-linejoin:round;">
</g>
<g style="fill:#000000; fill-opacity:1.0; 
stroke:#000000; stroke-width:0; stroke-opacity:1; 
stroke-linecap:round; stroke-linejoin:round;">
<circle cx="29133.9" cy="2755.91" r="1259.84" /> 
</g>
<g style="fill:#000000; fill-opacity:1.0; 
stroke:#000000; stroke-width:39.3701; stroke-opacity:1; 
stroke-linecap:round; stroke-linejoin:round;">
</g>
<g style="fill:#000000; fill-opacity:1.0; 
stroke:#000000; stroke-width:0; stroke-opacity:1; 
stroke-linecap:round; stroke-linejoin:round;">
<circle cx="30078.7" cy="2755.91" r="157.48" /> 
</g>
<g style="fill:#000000; fill-opacity:1.0; 
stroke:#000000; stroke-width:39.3701; stroke-opacity:1; 
stroke-linecap:round; stroke-linejoin:round;">
</g>
<g style="fill:#000000; fill-opacity:1.0; 
stroke:#000000; stroke-width:0; stroke-opacity:1; 
stroke-linecap:round; stroke-linejoin:round;">
<circle cx="29802" cy="3424.04" r="157.48" /> 
</g>
<g style="fill:#000000; fill-opacity:1.0; 
stroke:#000000; stroke-width:39.3701; stroke-opacity:1; 
stroke-linecap:round; stroke-linejoin:round;">
</g>
<g style="fill:#000000; fill-opacity:1.0; 
stroke:#000000; stroke-width:0; stroke-opacity:1; 
stroke-linecap:round; stroke-linejoin:round;">
<circle cx="29133.9" cy="3700.79" r="157.48" /> 
</g>
<g style="fill:#000000; fill-opacity:1.0; 
stroke:#000000; stroke-width:39.3701; stroke-opacity:1; 
stroke-linecap:round; stroke-linejoin:round;">
</g>
<g style="fill:#000000; fill-opacity:1.0; 
stroke:#000000; stroke-width:0; stroke-opacity:1; 
stroke-linecap:round; stroke-linejoin:round;">
<circle cx="28465.7" cy="3424.04" r="157.48" /> 
</g>
<g style="fill:#000000; fill-opacity:1.0; 
stroke:#000000; stroke-width:39.3701; stroke-opacity:1; 
stroke-linecap:round; stroke-linejoin:round;">
</g>
<g style="fill:#000000; fill-opacity:1.0; 
stroke:#000000; stroke-width:0; stroke-opacity:1; 
stroke-linecap:round; stroke-linejoin:round;">
<circle cx="28189" cy="2755.91" r="157.48" /> 
</g>
<g style="fill:#000000; fill-opacity:1.0; 
stroke:#000000; stroke-width:39.3701; stroke-opacity:1; 
stroke-linecap:round; stroke-linejoin:round;">
</g>
<g style="fill:#000000; fill-opacity:1.0; 
stroke:#000000; stroke-width:0; stroke-opacity:1; 
stroke-linecap:round; stroke-linejoin:round;">
<circle cx="28465.7" cy="2087.77" r="157.48" /> 
</g>
<g style="fill:#000000; fill-opacity:1.0; 
stroke:#000000; stroke-width:39.3701; stroke-opacity:1; 
stroke-linecap:round; stroke-linejoin:round;">
</g>
<g style="fill:#000000; fill-opacity:1.0; 
stroke:#000000; stroke-width:0; stroke-opacity:1; 
stroke-linecap:round; stroke-linejoin:round;">
<circle cx="29133.9" cy="1811.02" r="157.48" /> 
</g>
<g style="fill:#000000; fill-opacity:1.0; 
stroke:#000000; stroke-width:39.3701; stroke-opacity:1; 
stroke-linecap:round; stroke-linejoin:round;">
</g>
<g style="fill:#000000; fill-opacity:1.0; 
stroke:#000000; stroke-width:0; stroke-opacity:1; 
stroke-linecap:round; stroke-linejoin:round;">
<circle cx="29802" cy="2087.77" r="157.48" /> 
</g>
<g style="fill:#000000; fill-opacity:1.0; 
stroke:#000000; stroke-width:39.3701; stroke-opacity:1; 
stroke-linecap:round; stroke-linejoin:round;">
</g>
<g >
</g>
<g style="fill:#000000; fill-opacity:1.0; 
stroke:#000000; stroke-width:39.3701; stroke-opacity:1; 
stroke-linecap:round; stroke-linejoin:round;">
</g>
<g style="fill:#000000; fill-opacity:1.0; 
stroke:#000000; stroke-width:0; stroke-opacity:1; 
stroke-linecap:round; stroke-linejoin:round;">
<circle cx="29802" cy="17835.8" r="157.48" /> 
</g>
<g style="fill:#000000; fill-opacity:1.0; 
stroke:#000000; stroke-width:39.3701; stroke-opacity:1; 
stroke-linecap:round; stroke-linejoin:round;">
</g>
<g style="fill:#000000; fill-opacity:1.0; 
stroke:#000000; stroke-width:0; stroke-opacity:1; 
stroke-linecap:round; stroke-linejoin:round;">
<circle cx="29133.9" cy="17559.1" r="157.48" /> 
</g>
<g style="fill:#000000; fill-opacity:1.0; 
stroke:#000000; stroke-width:39.3701; stroke-opacity:1; 
stroke-linecap:round; stroke-linejoin:round;">
</g>
<g style="fill:#000000; fill-opacity:1.0; 
stroke:#000000; stroke-width:0; stroke-opacity:1; 
stroke-linecap:round; stroke-linejoin:round;">
<circle cx="28465.7" cy="17835.8" r="157.48" /> 
</g>
<g style="fill:#000000; fill-opacity:1.0; 
stroke:#000000; stroke-width:39.3701; stroke-opacity:1; 
stroke-linecap:round; stroke-linejoin:round;">
</g>
<g style="fill:#000000; fill-opacity:1.0; 
stroke:#000000; stroke-width:0; stroke-opacity:1; 
stroke-linecap:round; stroke-linejoin:round;">
<circle cx="28189" cy="18503.9" r="157.48" /> 
</g>
<g style="fill:#000000; fill-opacity:1.0; 
stroke:#000000; stroke-width:39.3701; stroke-opacity:1; 
stroke-linecap:round; stroke-linejoin:round;">
</g>
<g style="fill:#000000; fill-opacity:1.0; 
stroke:#000000; stroke-width:0; stroke-opacity:1; 
stroke-linecap:round; stroke-linejoin:round;">
<circle cx="28465.7" cy="19172.1" r="157.48" /> 
</g>
<g style="fill:#000000; fill-opacity:1.0; 
stroke:#000000; stroke-width:39.3701; stroke-opacity:1; 
stroke-linecap:round; stroke-linejoin:round;">
</g>
<g style="fill:#000000; fill-opacity:1.0; 
stroke:#000000; stroke-width:0; stroke-opacity:1; 
stroke-linecap:round; stroke-linejoin:round;">
<circle cx="29133.9" cy="19448.8" r="157.48" /> 
</g>
<g style="fill:#000000; fill-opacity:1.0; 
stroke:#000000; stroke-width:39.3701; stroke-opacity:1; 
stroke-linecap:round; stroke-linejoin:round;">
</g>
<g style="fill:#000000; fill-opacity:1.0; 
stroke:#000000; stroke-width:0; stroke-opacity:1; 
stroke-linecap:round; stroke-linejoin:round;">
<circle cx="29802" cy="19172.1" r="157.48" /> 
</g>
<g style="fill:#000000; fill-opacity:1.0; 
stroke:#000000; stroke-width:39.3701; stroke-opacity:1; 
stroke-linecap:round; stroke-linejoin:round;">
</g>
<g style="fill:#000000; fill-opacity:1.0; 
stroke:#000000; stroke-width:0; stroke-opacity:1; 
stroke-linecap:round; stroke-linejoin:round;">
<circle cx="30078.7" cy="18503.9" r="157.48" /> 
</g>
<g style="fill:#000000; fill-opacity:1.0; 
stroke:#000000; stroke-width:39.3701; stroke-opacity:1; 
stroke-linecap:round; stroke-linejoin:round;">
</g>
<g style="fill:#000000; fill-opacity:1.0; 
stroke:#000000; stroke-width:0; stroke-opacity:1; 
stroke-linecap:round; stroke-linejoin:round;">
<circle cx="29133.9" cy="18503.9" r="1259.84" /> 
</g>
<g style="fill:#000000; fill-opacity:1.0; 
stroke:#000000; stroke-width:39.3701; stroke-opacity:1; 
stroke-linecap:round; stroke-linejoin:round;">
</g>
<g >
</g>
<g style="fill:#000000; fill-opacity:1.0; 
stroke:#000000; stroke-width:39.3701; stroke-opacity:1; 
stroke-linecap:round; stroke-linejoin:round;">
</g>
<g style="fill:#000000; fill-opacity:1.0; 
stroke:#000000; stroke-width:0; stroke-opacity:1; 
stroke-linecap:round; stroke-linejoin:round;">
<circle cx="2755.91" cy="18503.9" r="1259.84" /> 
</g>
<g style="fill:#000000; fill-opacity:1.0; 
stroke:#000000; stroke-width:39.3701; stroke-opacity:1; 
stroke-linecap:round; stroke-linejoin:round;">
</g>
<g style="fill:#000000; fill-opacity:1.0; 
stroke:#000000; stroke-width:0; stroke-opacity:1; 
stroke-linecap:round; stroke-linejoin:round;">
<circle cx="3700.79" cy="18503.9" r="157.48" /> 
</g>
<g style="fill:#000000; fill-opacity:1.0; 
stroke:#000000; stroke-width:39.3701; stroke-opacity:1; 
stroke-linecap:round; stroke-linejoin:round;">
</g>
<g style="fill:#000000; fill-opacity:1.0; 
stroke:#000000; stroke-width:0; stroke-opacity:1; 
stroke-linecap:round; stroke-linejoin:round;">
<circle cx="3424.04" cy="19172.1" r="157.48" /> 
</g>
<g style="fill:#000000; fill-opacity:1.0; 
stroke:#000000; stroke-width:39.3701; stroke-opacity:1; 
stroke-linecap:round; stroke-linejoin:round;">
</g>
<g style="fill:#000000; fill-opacity:1.0; 
stroke:#000000; stroke-width:0; stroke-opacity:1; 
stroke-linecap:round; stroke-linejoin:round;">
<circle cx="2755.91" cy="19448.8" r="157.48" /> 
</g>
<g style="fill:#000000; fill-opacity:1.0; 
stroke:#000000; stroke-width:39.3701; stroke-opacity:1; 
stroke-linecap:round; stroke-linejoin:round;">
</g>
<g style="fill:#000000; fill-opacity:1.0; 
stroke:#000000; stroke-width:0; stroke-opacity:1; 
stroke-linecap:round; stroke-linejoin:round;">
<circle cx="2087.77" cy="19172.1" r="157.48" /> 
</g>
<g style="fill:#000000; fill-opacity:1.0; 
stroke:#000000; stroke-width:39.3701; stroke-opacity:1; 
stroke-linecap:round; stroke-linejoin:round;">
</g>
<g style="fill:#000000; fill-opacity:1.0; 
stroke:#000000; stroke-width:0; stroke-opacity:1; 
stroke-linecap:round; stroke-linejoin:round;">
<circle cx="1811.02" cy="18503.9" r="157.48" /> 
</g>
<g style="fill:#000000; fill-opacity:1.0; 
stroke:#000000; stroke-width:39.3701; stroke-opacity:1; 
stroke-linecap:round; stroke-linejoin:round;">
</g>
<g style="fill:#000000; fill-opacity:1.0; 
stroke:#000000; stroke-width:0; stroke-opacity:1; 
stroke-linecap:round; stroke-linejoin:round;">
<circle cx="2087.77" cy="17835.8" r="157.48" /> 
</g>
<g style="fill:#000000; fill-opacity:1.0; 
stroke:#000000; stroke-width:39.3701; stroke-opacity:1; 
stroke-linecap:round; stroke-linejoin:round;">
</g>
<g style="fill:#000000; fill-opacity:1.0; 
stroke:#000000; stroke-width:0; stroke-opacity:1; 
stroke-linecap:round; stroke-linejoin:round;">
<circle cx="2755.91" cy="17559.1" r="157.48" /> 
</g>
<g style="fill:#000000; fill-opacity:1.0; 
stroke:#000000; stroke-width:39.3701; stroke-opacity:1; 
stroke-linecap:round; stroke-linejoin:round;">
</g>
<g style="fill:#000000; fill-opacity:1.0; 
stroke:#000000; stroke-width:0; stroke-opacity:1; 
stroke-linecap:round; stroke-linejoin:round;">
<circle cx="3424.04" cy="17835.8" r="157.48" /> 
</g>
<g style="fill:#000000; fill-opacity:1.0; 
stroke:#000000; stroke-width:39.3701; stroke-opacity:1; 
stroke-linecap:round; stroke-linejoin:round;">
</g>
<g >
</g>
<g style="fill:#000000; fill-opacity:1.0; 
stroke:#000000; stroke-width:39.3701; stroke-opacity:1; 
stroke-linecap:round; stroke-linejoin:round;">
</g>
<g style="fill:#000000; fill-opacity:1.0; 
stroke:#000000; stroke-width:0; stroke-opacity:1; 
stroke-linecap:round; stroke-linejoin:round;">
<circle cx="3424.04" cy="2087.77" r="157.48" /> 
</g>
<g style="fill:#000000; fill-opacity:1.0; 
stroke:#000000; stroke-width:39.3701; stroke-opacity:1; 
stroke-linecap:round; stroke-linejoin:round;">
</g>
<g style="fill:#000000; fill-opacity:1.0; 
stroke:#000000; stroke-width:0; stroke-opacity:1; 
stroke-linecap:round; stroke-linejoin:round;">
<circle cx="2755.91" cy="1811.02" r="157.48" /> 
</g>
<g style="fill:#000000; fill-opacity:1.0; 
stroke:#000000; stroke-width:39.3701; stroke-opacity:1; 
stroke-linecap:round; stroke-linejoin:round;">
</g>
<g style="fill:#000000; fill-opacity:1.0; 
stroke:#000000; stroke-width:0; stroke-opacity:1; 
stroke-linecap:round; stroke-linejoin:round;">
<circle cx="2087.77" cy="2087.77" r="157.48" /> 
</g>
<g style="fill:#000000; fill-opacity:1.0; 
stroke:#000000; stroke-width:39.3701; stroke-opacity:1; 
stroke-linecap:round; stroke-linejoin:round;">
</g>
<g style="fill:#000000; fill-opacity:1.0; 
stroke:#000000; stroke-width:0; stroke-opacity:1; 
stroke-linecap:round; stroke-linejoin:round;">
<circle cx="1811.02" cy="2755.91" r="157.48" /> 
</g>
<g style="fill:#000000; fill-opacity:1.0; 
stroke:#000000; stroke-width:39.3701; stroke-opacity:1; 
stroke-linecap:round; stroke-linejoin:round;">
</g>
<g style="fill:#000000; fill-opacity:1.0; 
stroke:#000000; stroke-width:0; stroke-opacity:1; 
stroke-linecap:round; stroke-linejoin:round;">
<circle cx="2087.77" cy="3424.04" r="157.48" /> 
</g>
<g style="fill:#000000; fill-opacity:1.0; 
stroke:#000000; stroke-width:39.3701; stroke-opacity:1; 
stroke-linecap:round; stroke-linejoin:round;">
</g>
<g style="fill:#000000; fill-opacity:1.0; 
stroke:#000000; stroke-width:0; stroke-opacity:1; 
stroke-linecap:round; stroke-linejoin:round;">
<circle cx="2755.91" cy="3700.79" r="157.48" /> 
</g>
<g style="fill:#000000; fill-opacity:1.0; 
stroke:#000000; stroke-width:39.3701; stroke-opacity:1; 
stroke-linecap:round; stroke-linejoin:round;">
</g>
<g style="fill:#000000; fill-opacity:1.0; 
stroke:#000000; stroke-width:0; stroke-opacity:1; 
stroke-linecap:round; stroke-linejoin:round;">
<circle cx="3424.04" cy="3424.04" r="157.48" /> 
</g>
<g style="fill:#000000; fill-opacity:1.0; 
stroke:#000000; stroke-width:39.3701; stroke-opacity:1; 
stroke-linecap:round; stroke-linejoin:round;">
</g>
<g style="fill:#000000; fill-opacity:1.0; 
stroke:#000000; stroke-width:0; stroke-opacity:1; 
stroke-linecap:round; stroke-linejoin:round;">
<circle cx="3700.79" cy="2755.91" r="157.48" /> 
</g>
<g style="fill:#000000; fill-opacity:1.0; 
stroke:#000000; stroke-width:39.3701; stroke-opacity:1; 
stroke-linecap:round; stroke-linejoin:round;">
</g>
<g style="fill:#000000; fill-opacity:1.0; 
stroke:#000000; stroke-width:0; stroke-opacity:1; 
stroke-linecap:round; stroke-linejoin:round;">
<circle cx="2755.91" cy="2755.91" r="1259.84" /> 
</g>
<g style="fill:#000000; fill-opacity:1.0; 
stroke:#000000; stroke-width:39.3701; stroke-opacity:1; 
stroke-linecap:round; stroke-linejoin:round;">
</g>
<g >
</g>
<g style="fill:#000000; fill-opacity:1.0; 
stroke:#000000; stroke-width:39.3701; stroke-opacity:1; 
stroke-linecap:round; stroke-linejoin:round;">
</g>
<g style="fill:#000000; fill-opacity:1.0; 
stroke:#000000; stroke-width:0; stroke-opacity:1; 
stroke-linecap:round; stroke-linejoin:round;">
<circle cx="11220.5" cy="16929.1" r="246.063" /> 
</g>
<g style="fill:#000000; fill-opacity:1.0; 
stroke:#000000; stroke-width:39.3701; stroke-opacity:1; 
stroke-linecap:round; stroke-linejoin:round;">
</g>
<g style="fill:#000000; fill-opacity:1.0; 
stroke:#000000; stroke-width:0; stroke-opacity:1; 
stroke-linecap:round; stroke-linejoin:round;">
<circle cx="13976.4" cy="16929.1" r="246.063" /> 
</g>
<g style="fill:#000000; fill-opacity:1.0; 
stroke:#000000; stroke-width:39.3701; stroke-opacity:1; 
stroke-linecap:round; stroke-linejoin:round;">
</g>
<g style="fill:#000000; fill-opacity:1.0; 
stroke:#000000; stroke-width:0; stroke-opacity:1; 
stroke-linecap:round; stroke-linejoin:round;">
<circle cx="13976.4" cy="13779.5" r="246.063" /> 
</g>
<g style="fill:#000000; fill-opacity:1.0; 
stroke:#000000; stroke-width:39.3701; stroke-opacity:1; 
stroke-linecap:round; stroke-linejoin:round;">
</g>
<g style="fill:#000000; fill-opacity:1.0; 
stroke:#000000; stroke-width:0; stroke-opacity:1; 
stroke-linecap:round; stroke-linejoin:round;">
<circle cx="11220.5" cy="13779.5" r="246.063" /> 
</g>
<g style="fill:#000000; fill-opacity:1.0; 
stroke:#000000; stroke-width:39.3701; stroke-opacity:1; 
stroke-linecap:round; stroke-linejoin:round;">
</g>
<g >
</g>
<g style="fill:#000000; fill-opacity:1.0; 
stroke:#000000; stroke-width:39.3701; stroke-opacity:1; 
stroke-linecap:round; stroke-linejoin:round;">
</g>
<g style="fill:#000000; fill-opacity:1.0; 
stroke:#000000; stroke-width:0; stroke-opacity:1; 
stroke-linecap:round; stroke-linejoin:round;">
<circle cx="13189" cy="4724.41" r="314.961" /> 
</g>
<g style="fill:#000000; fill-opacity:1.0; 
stroke:#000000; stroke-width:39.3701; stroke-opacity:1; 
stroke-linecap:round; stroke-linejoin:round;">
</g>
<g style="fill:#000000; fill-opacity:1.0; 
stroke:#000000; stroke-width:0; stroke-opacity:1; 
stroke-linecap:round; stroke-linejoin:round;">
<circle cx="10236.2" cy="4724.41" r="314.961" /> 
</g>
<g style="fill:#000000; fill-opacity:1.0; 
stroke:#000000; stroke-width:39.3701; stroke-opacity:1; 
stroke-linecap:round; stroke-linejoin:round;">
</g>
<g >
</g>
<g style="fill:#000000; fill-opacity:1.0; 
stroke:#000000; stroke-width:39.3701; stroke-opacity:1; 
stroke-linecap:round; stroke-linejoin:round;">
</g>
<g style="fill:#000000; fill-opacity:1.0; 
stroke:#000000; stroke-width:0; stroke-opacity:1; 
stroke-linecap:round; stroke-linejoin:round;">
<circle cx="26574.8" cy="5118.11" r="314.961" /> 
</g>
<g style="fill:#000000; fill-opacity:1.0; 
stroke:#000000; stroke-width:39.3701; stroke-opacity:1; 
stroke-linecap:round; stroke-linejoin:round;">
</g>
<g style="fill:#000000; fill-opacity:1.0; 
stroke:#000000; stroke-width:0; stroke-opacity:1; 
stroke-linecap:round; stroke-linejoin:round;">
<path style="fill:#000000; fill-opacity:1.0; 
stroke:#000000; stroke-width:0; stroke-opacity:1; 
stroke-linecap:round; stroke-linejoin:round;fill-rule:evenodd;"
d="M 26889.8,6417.32
26259.8,6417.32
26259.8,5787.4
26889.8,5787.4
Z" /> 
</g>
<g >
</g>
<g style="fill:#000000; fill-opacity:1.0; 
stroke:#000000; stroke-width:0; stroke-opacity:1; 
stroke-linecap:round; stroke-linejoin:round;">
<circle cx="13189" cy="9055.12" r="393.701" /> 
</g>
<g style="fill:#000000; fill-opacity:1.0; 
stroke:#000000; stroke-width:39.3701; stroke-opacity:1; 
stroke-linecap:round; stroke-linejoin:round;">
</g>
<g style="fill:#000000; fill-opacity:1.0; 
stroke:#000000; stroke-width:0; stroke-opacity:1; 
stroke-linecap:round; stroke-linejoin:round;">
<circle cx="10236.2" cy="9055.12" r="393.701" /> 
</g>
<g style="fill:#000000; fill-opacity:1.0; 
stroke:#000000; stroke-width:39.3701; stroke-opacity:1; 
stroke-linecap:round; stroke-linejoin:round;">
</g>
<g >
</g>
<g style="fill:#000000; fill-opacity:1.0; 
stroke:#000000; stroke-width:39.3701; stroke-opacity:1; 
stroke-linecap:round; stroke-linejoin:round;">
</g>
<g style="fill:#000000; fill-opacity:1.0; 
stroke:#000000; stroke-width:0; stroke-opacity:1; 
stroke-linecap:round; stroke-linejoin:round;">
<circle cx="30315" cy="15354.3" r="314.961" /> 
</g>
<g style="fill:#000000; fill-opacity:1.0; 
stroke:#000000; stroke-width:39.3701; stroke-opacity:1; 
stroke-linecap:round; stroke-linejoin:round;">
</g>
<g style="fill:#000000; fill-opacity:1.0; 
stroke:#000000; stroke-width:0; stroke-opacity:1; 
stroke-linecap:round; stroke-linejoin:round;">
<circle cx="28346.5" cy="15354.3" r="314.961" /> 
</g>
<g style="fill:#000000; fill-opacity:1.0; 
stroke:#000000; stroke-width:39.3701; stroke-opacity:1; 
stroke-linecap:round; stroke-linejoin:round;">
</g>
<g >
</g>
<g style="fill:#000000; fill-opacity:1.0; 
stroke:#000000; stroke-width:39.3701; stroke-opacity:1; 
stroke-linecap:round; stroke-linejoin:round;">
</g>
<g style="fill:#000000; fill-opacity:1.0; 
stroke:#000000; stroke-width:0; stroke-opacity:1; 
stroke-linecap:round; stroke-linejoin:round;">
<circle cx="26771.7" cy="15354.3" r="314.961" /> 
</g>
<g style="fill:#000000; fill-opacity:1.0; 
stroke:#000000; stroke-width:39.3701; stroke-opacity:1; 
stroke-linecap:round; stroke-linejoin:round;">
</g>
<g style="fill:#000000; fill-opacity:1.0; 
stroke:#000000; stroke-width:0; stroke-opacity:1; 
stroke-linecap:round; stroke-linejoin:round;">
<circle cx="24803.1" cy="15354.3" r="314.961" /> 
</g>
<g style="fill:#000000; fill-opacity:1.0; 
stroke:#000000; stroke-width:39.3701; stroke-opacity:1; 
stroke-linecap:round; stroke-linejoin:round;">
</g>
<g >
</g>
<g style="fill:#000000; fill-opacity:1.0; 
stroke:#000000; stroke-width:39.3701; stroke-opacity:1; 
stroke-linecap:round; stroke-linejoin:round;">
</g>
<g style="fill:#000000; fill-opacity:1.0; 
stroke:#000000; stroke-width:0; stroke-opacity:1; 
stroke-linecap:round; stroke-linejoin:round;">
<circle cx="29724.4" cy="5118.11" r="314.961" /> 
</g>
<g style="fill:#000000; fill-opacity:1.0; 
stroke:#000000; stroke-width:39.3701; stroke-opacity:1; 
stroke-linecap:round; stroke-linejoin:round;">
</g>
<g style="fill:#000000; fill-opacity:1.0; 
stroke:#000000; stroke-width:0; stroke-opacity:1; 
stroke-linecap:round; stroke-linejoin:round;">
<path style="fill:#000000; fill-opacity:1.0; 
stroke:#000000; stroke-width:0; stroke-opacity:1; 
stroke-linecap:round; stroke-linejoin:round;fill-rule:evenodd;"
d="M 30039.4,6417.32
29409.4,6417.32
29409.4,5787.4
30039.4,5787.4
Z" /> 
</g>
<g >
</g>
<g >
</g>
<g style="fill:#000000; fill-opacity:1.0; 
stroke:#000000; stroke-width:0; stroke-opacity:1; 
stroke-linecap:round; stroke-linejoin:round;">
</g>
<g style="fill:#000000; fill-opacity:1.0; 
stroke:#000000; stroke-width:78.7402; stroke-opacity:1; 
stroke-linecap:round; stroke-linejoin:round;">
</g>
<g style="fill:#000000; fill-opacity:0.0; 
stroke:#000000; stroke-width:78.7402; stroke-opacity:1; 
stroke-linecap:round; stroke-linejoin:round;">
<path d="M0 0
L0 196
" />
<path d="M0 196
L196 0
" />
<path d="M196 0
L0 0
" />
</g>
<g style="fill:#000000; fill-opacity:0.0; 
stroke:#000000; stroke-width:1181.1; stroke-opacity:1; 
stroke-linecap:round; stroke-linejoin:round;">
<path d="M9921 15078
L11220 13779
" />
<path d="M7185 15078
L9921 15078
" />
<path d="M11220 10039
L10236 9055
" />
<path d="M11220 13779
L11220 10039
" />
<path d="M10236 9055
L10236 4724
" />
<path d="M16535 13779
L18503 15748
" />
<path d="M13976 13779
L16535 13779
" />
<path d="M7185 6181
L7185 9744
" />
<path d="M5314 11614
L2755 11614
" />
<path d="M7185 9744
L5314 11614
" />
</g>
<g >
</g>
<g style="fill:#000000; fill-opacity:0.0; 
stroke:#000000; stroke-width:1181.1; stroke-opacity:1; 
stroke-linecap:round; stroke-linejoin:round;">
<g >
</g>
<g style="fill:#000000; fill-opacity:1.0; 
stroke:#000000; stroke-width:100; stroke-opacity:1; 
stroke-linecap:round; stroke-linejoin:round;">
<path style="fill:#000000; fill-opacity:1.0; 
stroke:#000000; stroke-width:100; stroke-opacity:1; 
stroke-linecap:round; stroke-linejoin:round;fill-rule:evenodd;"
d="M 31629.9,1288.73
31629.9,2743.14
31629.9,2743.14
31629.9,18491.2
31629.9,18491.2
31629.9,19971.1
30601,21000
27666.7,21000
26570.7,19904
26562.6,19894.1
26523,19861.6
26477.9,19837.5
26428.9,19822.7
26390.7,19818.9
26390.7,19818.9
26378,19817.6
26365.2,19818.9
22490.9,19818.9
22490.9,18355.2
27624,18355.2
27624,18652.6
27682,18944.3
27795.9,19219.1
27961.1,19466.4
28171.4,19676.7
28418.7,19841.9
28693.5,19955.8
28985.2,20013.8
29282.6,20013.8
29574.3,19955.8
29849,19841.9
30096.3,19676.7
30306.6,19466.4
30471.9,19219.1
30585.7,18944.3
30643.7,18652.6
30643.7,18355.2
30585.7,18063.5
30471.9,17788.8
30306.6,17541.5
30096.3,17331.2
29849,17165.9
29574.3,17052.1
29282.6,16994.1
28985.2,16994.1
28693.5,17052.1
28418.7,17165.9
28171.4,17331.2
27961.1,17541.5
27795.9,17788.8
27682,18063.5
27624,18355.2
22490.9,18355.2
22490.9,15745.2
24483,15745.2
24511.2,15841.2
24611.8,15888.8
24719.8,15915.9
24830.9,15921.3
24941,15905
25045.8,15867.6
25095.1,15841.2
25123.3,15745.2
24803.1,15425
24483,15745.2
22490.9,15745.2
22490.9,15382.1
24236.1,15382.1
24252.4,15492.2
24289.9,15597
24316.3,15646.3
24412.3,15674.4
24732.4,15354.3
24873.9,15354.3
25194,15674.4
25290,15646.3
25337.6,15545.7
25364.7,15437.7
25370.2,15326.6
25366,15298.7
26206.7,15298.7
26206.7,15410
26228.4,15519.1
26271,15621.9
26332.8,15714.5
26411.5,15793.2
26504,15855
26606.9,15897.6
26716,15919.3
26827.3,15919.3
26936.4,15897.6
27039.3,15855
27131.8,15793.2
27179.8,15745.2
28026.3,15745.2
28054.5,15841.2
28155.1,15888.8
28263.1,15915.9
28374.2,15921.3
28484.3,15905
28589.1,15867.6
28638.4,15841.2
28666.6,15745.2
28346.5,15425
28026.3,15745.2
27179.8,15745.2
27210.5,15714.5
27272.3,15621.9
27314.9,15519.1
27336.6,15410
27336.6,15382.1
27779.4,15382.1
27795.8,15492.2
27833.2,15597
27859.6,15646.3
27955.6,15674.4
28275.7,15354.3
28417.2,15354.3
28737.3,15674.4
28833.3,15646.3
28880.9,15545.7
28908,15437.7
28913.5,15326.6
28909.3,15298.7
29750,15298.7
29750,15410
29771.7,15519.1
29814.3,15621.9
29876.1,15714.5
29954.8,15793.2
30047.4,15855
30150.2,15897.6
30259.3,15919.3
30370.6,15919.3
30479.8,15897.6
30582.6,15855
30675.1,15793.2
30753.8,15714.5
30815.6,15621.9
30858.2,15519.1
30879.9,15410
30879.9,15298.7
30858.2,15189.5
30815.6,15086.7
30753.8,14994.2
30675.1,14915.5
30582.6,14853.7
30479.8,14811.1
30370.6,14789.4
30259.3,14789.4
30150.2,14811.1
30047.4,14853.7
29954.8,14915.5
29876.1,14994.2
29814.3,15086.7
29771.7,15189.5
29750,15298.7
28909.3,15298.7
28897.2,15216.5
28859.7,15111.7
28833.3,15062.4
28737.3,15034.2
28417.2,15354.3
28275.7,15354.3
27955.6,15034.2
27859.6,15062.4
27812,15163
27784.9,15270.9
27779.4,15382.1
27336.6,15382.1
27336.6,15298.7
27314.9,15189.5
27272.3,15086.7
27210.5,14994.2
27179.8,14963.5
28026.3,14963.5
28346.5,15283.6
28666.6,14963.5
28638.4,14867.5
28537.8,14819.9
28429.8,14792.8
28318.7,14787.3
28208.6,14803.6
28103.8,14841.1
28054.5,14867.5
28026.3,14963.5
27179.8,14963.5
27131.8,14915.5
27039.3,14853.7
26936.4,14811.1
26827.3,14789.4
26716,14789.4
26606.9,14811.1
26504,14853.7
26411.5,14915.5
26332.8,14994.2
26271,15086.7
26228.4,15189.5
26206.7,15298.7
25366,15298.7
25353.9,15216.5
25316.4,15111.7
25290,15062.4
25194,15034.2
24873.9,15354.3
24732.4,15354.3
24412.3,15034.2
24316.3,15062.4
24268.7,15163
24241.6,15270.9
24236.1,15382.1
22490.9,15382.1
22490.9,14963.5
24483,14963.5
24803.1,15283.6
25123.3,14963.5
25095.1,14867.5
24994.5,14819.9
24886.5,14792.8
24775.4,14787.3
24665.3,14803.6
24560.5,14841.1
24511.2,14867.5
24483,14963.5
22490.9,14963.5
22490.9,13330.6
27391.7,13330.6
27391.7,13496.2
27424,13658.6
27487.4,13811.5
27579.4,13949.2
27696.5,14066.3
27834.1,14158.3
27987.1,14221.6
28149.5,14253.9
28315.1,14253.9
28477.5,14221.6
28630.4,14158.3
28768.1,14066.3
28885.2,13949.2
28977.2,13811.5
29040.5,13658.6
29072.8,13496.2
29072.8,13330.6
29040.5,13168.2
28977.2,13015.2
28885.2,12877.6
28768.1,12760.5
28630.4,12668.5
28477.5,12605.1
28315.1,12572.8
28149.5,12572.8
27987.1,12605.1
27834.1,12668.5
27696.5,12760.5
27579.4,12877.6
27487.4,13015.2
27424,13168.2
27391.7,13330.6
22490.9,13330.6
22490.9,12519.7
26618.9,12519.7
26623.7,12568.7
26638,12615.8
26661.2,12659.2
26692.4,12697.3
26730.5,12728.6
26773.9,12751.8
26821.1,12766.1
26870.1,12770.9
27052.9,12769.7
27115.4,12707.2
27115.4,12254.7
27215.4,12254.7
27215.4,12707.2
27277.9,12769.7
27460.6,12770.9
27509.6,12766.1
27556.8,12751.8
27600.2,12728.6
27638.3,12697.3
27669.5,12659.2
27692.7,12615.8
27707,12568.7
27711.8,12519.7
27710.6,12317.2
27648.1,12254.7
27215.4,12254.7
27115.4,12254.7
26682.6,12254.7
26620.1,12317.2
26618.9,12519.7
22490.9,12519.7
22490.9,10433.1
22490,10423.3
22487.1,10413.9
22482.5,10405.3
22476.3,10397.7
21471.8,9393.18
26600.4,9393.18
26600.4,9504.46
26622.1,9613.61
26664.7,9716.43
26726.5,9808.96
26805.2,9887.65
26885,9940.94
26805.2,9994.24
26726.5,10072.9
26664.7,10165.5
26622.1,10268.3
26600.4,10377.4
26600.4,10488.7
26622.1,10597.9
26664.7,10700.7
26726.5,10793.2
26760.1,10826.8
26726.5,10860.3
26664.7,10952.9
26622.1,11055.7
26600.4,11164.8
26600.4,11276.1
26622.1,11385.3
26664.7,11488.1
26726.5,11580.6
26796.7,11650.8
26773.9,11657.7
26730.5,11680.9
26692.4,11712.1
26661.2,11750.2
26638,11793.6
26623.7,11840.8
26618.9,11889.8
26620.1,12092.2
26682.6,12154.7
27115.4,12154.7
27115.4,12146.9
27215.4,12146.9
27215.4,12154.7
27648.1,12154.7
27710.6,12092.2
27711.8,11889.8
27707,11840.8
27692.7,11793.6
27669.5,11750.2
27638.3,11712.1
27600.2,11680.9
27556.8,11657.7
27534,11650.8
27604.2,11580.6
27666,11488.1
27708.6,11385.3
27730.3,11276.1
27730.3,11164.8
27708.6,11055.7
27666,10952.9
27604.2,10860.3
27570.6,10826.8
27604.2,10793.2
27666,10700.7
27708.6,10597.9
27730.3,10488.7
27730.3,10377.4
27708.6,10268.3
27666,10165.5
27604.2,10072.9
27525.5,9994.24
27445.7,9940.94
27525.5,9887.65
27604.2,9808.96
27666,9716.43
27708.6,9613.61
27730.3,9504.46
27730.3,9393.18
27708.6,9284.03
27666,9181.21
27604.2,9088.68
27525.5,9009.99
27433,8948.16
27330.1,8905.57
27221,8883.86
27109.7,8883.86
27000.6,8905.57
26897.7,8948.16
26805.2,9009.99
26726.5,9088.68
26664.7,9181.21
26622.1,9284.03
26600.4,9393.18
21471.8,9393.18
20236,8157.37
27391.7,8157.37
27391.7,8322.94
27424,8485.34
27487.4,8638.31
27579.4,8775.98
27696.5,8893.06
27834.1,8985.04
27987.1,9048.41
28149.5,9080.71
28315.1,9080.71
28477.5,9048.41
28630.4,8985.04
28768.1,8893.06
28885.2,8775.98
28977.2,8638.31
29040.5,8485.34
29072.8,8322.94
29072.8,8157.37
29040.5,7994.98
28977.2,7842.01
28885.2,7704.34
28768.1,7587.26
28630.4,7495.27
28477.5,7431.91
28315.1,7399.61
28149.5,7399.61
27987.1,7431.91
27834.1,7495.27
27696.5,7587.26
27579.4,7704.34
27487.4,7842.01
27424,7994.98
27391.7,8157.37
20236,8157.37
18637.7,6559.13
18630.1,6552.91
18621.5,6548.29
18612.1,6545.45
18602.4,6544.49
15601.2,6544.49
15601.2,6417.32
26008.6,6417.32
26013.5,6466.33
26027.8,6513.46
26051,6556.89
26082.2,6594.95
26120.3,6626.2
26163.7,6649.41
26210.8,6663.71
26259.8,6668.53
26462.3,6667.32
26524.8,6604.82
26524.8,6152.36
26624.8,6152.36
26624.8,6604.82
26687.3,6667.32
26889.8,6668.53
26938.8,6663.71
26985.9,6649.41
27029.3,6626.2
27067.4,6594.95
27098.6,6556.89
27121.9,6513.46
27136.1,6466.33
27141,6417.32
29158.2,6417.32
29163.1,6466.33
29177.4,6513.46
29200.6,6556.89
29231.8,6594.95
29269.9,6626.2
29313.3,6649.41
29360.4,6663.71
29409.4,6668.53
29611.9,6667.32
29674.4,6604.82
29674.4,6152.36
29774.4,6152.36
29774.4,6604.82
29836.9,6667.32
30039.4,6668.53
30088.4,6663.71
30135.5,6649.41
30178.9,6626.2
30217,6594.95
30248.2,6556.89
30271.5,6513.46
30285.8,6466.33
30290.6,6417.32
30289.4,6214.86
30226.9,6152.36
29774.4,6152.36
29674.4,6152.36
29221.9,6152.36
29159.4,6214.86
29158.2,6417.32
27141,6417.32
27139.8,6214.86
27077.3,6152.36
26624.8,6152.36
26524.8,6152.36
26072.3,6152.36
26009.8,6214.86
26008.6,6417.32
15601.2,6417.32
15601.2,5787.4
26008.6,5787.4
26009.8,5989.86
26072.3,6052.36
26524.8,6052.36
26524.8,6044.49
26624.8,6044.49
26624.8,6052.36
27077.3,6052.36
27139.8,5989.86
27141,5787.4
29158.2,5787.4
29159.4,5989.86
29221.9,6052.36
29674.4,6052.36
29674.4,6044.49
29774.4,6044.49
29774.4,6052.36
30226.9,6052.36
30289.4,5989.86
30290.6,5787.4
30285.8,5738.39
30271.5,5691.27
30248.2,5647.84
30217,5609.77
30178.9,5578.53
30135.5,5555.31
30097.7,5543.83
30163.2,5478.25
30225.1,5385.72
30267.7,5282.9
30289.4,5173.75
30289.4,5062.47
30267.7,4953.32
30225.1,4850.5
30163.2,4757.97
30084.6,4679.28
29992,4617.45
29889.2,4574.86
29780.1,4553.15
29668.8,4553.15
29559.6,4574.86
29456.8,4617.45
29364.3,4679.28
29285.6,4757.97
29223.7,4850.5
29181.2,4953.32
29159.4,5062.47
29159.4,5173.75
29181.2,5282.9
29223.7,5385.72
29285.6,5478.25
29351.2,5543.83
29313.3,5555.31
29269.9,5578.53
29231.8,5609.77
29200.6,5647.84
29177.4,5691.27
29163.1,5738.39
29158.2,5787.4
27141,5787.4
27136.1,5738.39
27121.9,5691.27
27098.6,5647.84
27067.4,5609.77
27029.3,5578.53
26985.9,5555.31
26948.1,5543.83
27013.6,5478.25
27075.5,5385.72
27118.1,5282.9
27139.8,5173.75
27139.8,5062.47
27118.1,4953.32
27075.5,4850.5
27013.6,4757.97
26934.9,4679.28
26842.4,4617.45
26739.6,4574.86
26630.4,4553.15
26519.2,4553.15
26410,4574.86
26307.2,4617.45
26214.7,4679.28
26136,4757.97
26074.1,4850.5
26031.6,4953.32
26009.8,5062.47
26009.8,5173.75
26031.6,5282.9
26074.1,5385.72
26136,5478.25
26201.6,5543.83
26163.7,5555.31
26120.3,5578.53
26082.2,5609.77
26051,5647.84
26027.8,5691.27
26013.5,5738.39
26008.6,5787.4
15601.2,5787.4
15601.2,4104.01
15753.9,4104.01
15753.9,4242.44
15780.9,4378.21
15833.9,4506.11
15910.8,4621.21
16008.7,4719.09
16123.8,4796
16251.7,4848.98
16387.5,4875.98
16525.9,4875.98
16661.7,4848.98
16789.6,4796
16904.7,4719.09
16961.4,4662.34
22101.3,4662.34
22146.1,4772.48
22270.2,4833.84
22403.9,4869.82
22542,4879.03
22679.3,4861.12
22810.4,4816.77
22893.3,4772.48
22938.1,4662.34
22519.7,4243.94
22101.3,4662.34
16961.4,4662.34
17002.6,4621.21
17079.5,4506.11
17132.4,4378.21
17159.4,4242.44
17159.4,4195.54
21813.9,4195.54
21831.8,4332.8
21876.1,4463.94
21920.4,4546.8
22030.6,4591.63
22449,4173.23
22590.4,4173.23
23008.8,4591.63
23118.9,4546.8
23180.3,4422.72
23216.3,4289.04
23225.5,4150.92
23207.6,4013.65
23163.2,3882.52
23118.9,3799.65
23008.8,3754.83
22590.4,4173.23
22449,4173.23
22030.6,3754.83
21920.4,3799.65
21859.1,3923.74
21823.1,4057.41
21813.9,4195.54
17159.4,4195.54
17159.4,4104.01
17132.4,3968.24
17079.5,3840.35
17002.6,3725.25
16961.4,3684.11
22101.3,3684.11
22519.7,4102.52
22938.1,3684.11
22893.3,3573.98
22769.2,3512.61
22635.5,3476.63
22497.4,3467.42
22360.1,3485.34
22229,3529.69
22146.1,3573.98
22101.3,3684.11
16961.4,3684.11
16904.7,3627.36
16789.6,3550.45
16661.7,3497.48
16525.9,3470.47
16387.5,3470.47
16251.7,3497.48
16123.8,3550.45
16008.7,3627.36
15910.8,3725.25
15833.9,3840.35
15780.9,3968.24
15753.9,4104.01
15601.2,4104.01
15601.2,2607.2
27624,2607.2
27624,2904.61
27682,3196.31
27795.9,3471.08
27961.1,3718.37
28171.4,3928.68
28418.7,4093.91
28693.5,4207.73
28985.2,4265.75
29282.6,4265.75
29574.3,4207.73
29849,4093.91
30096.3,3928.68
30306.6,3718.37
30471.9,3471.08
30585.7,3196.31
30643.7,2904.61
30643.7,2607.2
30585.7,2315.5
30471.9,2040.73
30306.6,1793.44
30096.3,1583.13
29849,1417.9
29574.3,1304.09
29282.6,1246.06
28985.2,1246.06
28693.5,1304.09
28418.7,1417.9
28171.4,1583.13
27961.1,1793.44
27795.9,2040.73
27682,2315.5
27624,2607.2
15601.2,2607.2
15601.2,1440.94
26365.2,1440.94
26378,1442.2
26390.7,1440.94
26390.7,1440.94
26428.9,1437.19
26477.9,1422.33
26523,1398.2
26562.6,1365.73
26570.7,1355.81
27666.7,259.843
30601,259.843
Z" /> 
</g>
</g>
</g> 
</svg>
