<?xml version="1.0" standalone="no"?>
 <!DOCTYPE svg PUBLIC "-//W3C//DTD SVG 1.1//EN" 
 "http://www.w3.org/Graphics/SVG/1.1/DTD/svg11.dtd"> 
<svg
  xmlns:svg="http://www.w3.org/2000/svg"
  xmlns="http://www.w3.org/2000/svg"
  xmlns:xlink="http://www.w3.org/1999/xlink"
  version="1.1"
  width="29.700220cm" height="21.000720cm" viewBox="0 0 116930 82680">
<title>SVG Picture created as LowNoise5V-F_SilkS.svg date 2021/03/19 12:29:50 </title>
  <desc>Picture generated by PCBNEW </desc>
<g style="fill:#000000; fill-opacity:1;stroke:#000000; stroke-opacity:1;
stroke-linecap:round; stroke-linejoin:round;"
 transform="translate(0 0) scale(1 1)">
</g>
<g style="fill:#000000; fill-opacity:0.0; 
stroke:#000000; stroke-width:-0.000393701; stroke-opacity:1; 
stroke-linecap:round; stroke-linejoin:round;">
</g>
<g style="fill:#000000; fill-opacity:0.0; 
stroke:#000000; stroke-width:47.2441; stroke-opacity:1; 
stroke-linecap:round; stroke-linejoin:round;">
<path d="M196 0
L0 0
" />
<path d="M0 196
L196 0
" />
<path d="M0 0
L0 196
" />
<path d="M2755 10629
L4389 10629
" />
<path d="M2755 10629
L1968 10236
" />
<path d="M1968 11023
L2755 10629
" />
<path d="M1122 8661
L1515 9055
" />
<path d="M1515 9055
L1968 9055
" />
<path d="M1968 10236
L1515 10236
" />
<path d="M1968 9055
L1968 10236
" />
<path d="M1515 10236
L1122 10610
" />
<path d="M1515 11023
L1122 10649
" />
<path d="M1968 11023
L1515 11023
" />
<path d="M1968 12204
L1968 11023
" />
<path d="M1515 12204
L1968 12204
" />
<path d="M1122 12598
L1515 12204
" />
<path d="M4389 8661
L4389 12598
" />
<path d="M1122 8661
L4389 8661
" />
<path d="M1122 12598
L1122 8661
" />
<path d="M4389 12598
L1122 12598
" />
<path d="M5255 15511
L6200 15511
" />
<path d="M9114 15511
L9114 5748
" />
<path d="M5255 5748
L5255 15511
" />
<path d="M9114 5748
L8169 5748
" />
<path d="M9114 15511
L8169 15511
" />
<path d="M5255 5748
L6200 5748
" />
<path d="M26141 12559
L26141 11850
" />
<path d="M32118 7948
L32118 8204
" />
<path d="M32118 13704
L32322 13704
" />
<path d="M28925 8204
L32118 8204
" />
<path d="M32322 13704
L32322 7948
" />
<path d="M32322 7948
L32118 7948
" />
<path d="M26228 8204
L27539 8204
" />
<path d="M26228 13448
L27539 13448
" />
<path d="M26228 13448
L26228 8204
" />
<path d="M32118 13448
L32118 13704
" />
<path d="M32118 13448
L28925 13448
" />
<path d="M15511 16692
L23464 16692
" />
<path d="M23464 16692
L23464 3228
" />
<path d="M23464 3228
L15511 3228
" />
<path d="M15511 3228
L15511 16692
" />
<path d="M18110 16846
L18901 16846
" />
<path d="M9842 18307
L9448 18700
" />
<path d="M9448 17913
L9842 18307
" />
<path d="M9842 17519
L9448 17913
" />
<path d="M9448 17125
L9842 17519
" />
<path d="M9842 16732
L9448 17125
" />
<path d="M9448 16338
L9842 16732
" />
<path d="M9842 15944
L9448 16338
" />
<path d="M9448 15551
L9842 15944
" />
<path d="M9842 15157
L9448 15551
" />
<path d="M9448 14566
L9842 15157
" />
<path d="M9842 14173
L9448 14566
" />
<path d="M9448 13779
L9842 14173
" />
<path d="M9842 13385
L9448 13779
" />
<path d="M9448 12992
L9842 13385
" />
<path d="M9842 12598
L9448 12992
" />
<path d="M9448 12204
L9842 12598
" />
<path d="M9842 11811
L9448 12204
" />
<path d="M9842 11811
L9448 11417
" />
<path d="M9842 18897
L9842 11811
" />
<path d="M9448 19291
L9842 18897
" />
<path d="M9448 19291
L9448 11417
" />
<path d="M12204 16535
L12598 16929
" />
<path d="M12204 14173
L12204 16535
" />
<path d="M12598 13779
L12204 14173
" />
<path d="M12992 14173
L12598 13779
" />
<path d="M12992 16535
L12992 14173
" />
<path d="M12598 16929
L12992 16535
" />
<path d="M12598 15354
L12598 13779
" />
<path d="M11023 12401
L12598 13779
" />
<path d="M12598 13779
L14173 12401
" />
<path d="M12598 16929
L11023 18307
" />
<path d="M12598 16929
L12598 15354
" />
<path d="M14173 18307
L12598 16929
" />
<path d="M11023 18307
L14173 18307
" />
<path d="M14173 12401
L11023 12401
" />
<path d="M13779 12007
L14566 12795
" />
<path d="M11417 12007
L10629 12795
" />
<path d="M11417 18700
L10629 17913
" />
<path d="M14566 17913
L13779 18700
" />
<path d="M14173 18700
L12598 18700
" />
<path d="M14566 18307
L14173 18700
" />
<path d="M14566 15354
L14566 18307
" />
<path d="M11023 12007
L12598 12007
" />
<path d="M10629 12401
L11023 12007
" />
<path d="M10629 15354
L10629 12401
" />
<path d="M10629 15354
L10629 18307
" />
<path d="M11023 18700
L12598 18700
" />
<path d="M10629 18307
L11023 18700
" />
<path d="M14173 12007
L12598 12007
" />
<path d="M14566 12401
L14173 12007
" />
<path d="M14566 15354
L14566 12401
" />
<path d="M13531 4986
L13531 6700
" />
<path d="M13531 2748
L13531 4462
" />
<path d="M9893 4986
L9893 6700
" />
<path d="M9893 2748
L9893 4462
" />
<path d="M9893 6700
L13531 6700
" />
<path d="M9893 2748
L13531 2748
" />
<path d="M25726 6864
L25974 6864
" />
<path d="M25850 6988
L25850 6740
" />
<path d="M26416 4334
L26733 4334
" />
<path d="M26325 4350
L26824 4350
" />
<path d="M26259 4365
L26890 4365
" />
<path d="M26204 4381
L26944 4381
" />
<path d="M26157 4397
L26991 4397
" />
<path d="M26116 4412
L27033 4412
" />
<path d="M26077 4428
L27071 4428
" />
<path d="M26043 4444
L27106 4444
" />
<path d="M26011 4460
L27138 4460
" />
<path d="M25980 4475
L27168 4475
" />
<path d="M25952 4491
L27197 4491
" />
<path d="M25925 4507
L27224 4507
" />
<path d="M25900 4523
L27249 4523
" />
<path d="M25875 4538
L27274 4538
" />
<path d="M25852 4554
L27296 4554
" />
<path d="M25830 4570
L27318 4570
" />
<path d="M25809 4586
L27340 4586
" />
<path d="M25789 4601
L27360 4601
" />
<path d="M25770 4617
L27379 4617
" />
<path d="M25751 4633
L27398 4633
" />
<path d="M25733 4649
L27416 4649
" />
<path d="M25715 4664
L27433 4664
" />
<path d="M25699 4680
L27450 4680
" />
<path d="M25683 4696
L27466 4696
" />
<path d="M26984 4712
L27482 4712
" />
<path d="M25667 4712
L26165 4712
" />
<path d="M26984 4727
L27497 4727
" />
<path d="M25652 4727
L26165 4727
" />
<path d="M26984 4743
L27511 4743
" />
<path d="M25637 4743
L26165 4743
" />
<path d="M26984 4759
L27525 4759
" />
<path d="M25623 4759
L26165 4759
" />
<path d="M26984 4775
L27539 4775
" />
<path d="M25610 4775
L26165 4775
" />
<path d="M26984 4790
L27552 4790
" />
<path d="M25596 4790
L26165 4790
" />
<path d="M26984 4806
L27565 4806
" />
<path d="M25584 4806
L26165 4806
" />
<path d="M26984 4822
L27577 4822
" />
<path d="M25571 4822
L26165 4822
" />
<path d="M26984 4838
L27589 4838
" />
<path d="M25559 4838
L26165 4838
" />
<path d="M26984 4853
L27601 4853
" />
<path d="M25548 4853
L26165 4853
" />
<path d="M26984 4869
L27612 4869
" />
<path d="M25537 4869
L26165 4869
" />
<path d="M26984 4885
L27623 4885
" />
<path d="M25525 4885
L26165 4885
" />
<path d="M26984 4901
L27633 4901
" />
<path d="M25515 4901
L26165 4901
" />
<path d="M26984 4916
L27644 4916
" />
<path d="M25505 4916
L26165 4916
" />
<path d="M26984 4932
L27654 4932
" />
<path d="M25495 4932
L26165 4932
" />
<path d="M26984 4948
L27663 4948
" />
<path d="M25485 4948
L26165 4948
" />
<path d="M26984 4964
L27673 4964
" />
<path d="M25476 4964
L26165 4964
" />
<path d="M26984 4979
L27681 4979
" />
<path d="M25467 4979
L26165 4979
" />
<path d="M26984 4995
L27690 4995
" />
<path d="M25459 4995
L26165 4995
" />
<path d="M26984 5011
L27699 5011
" />
<path d="M25450 5011
L26165 5011
" />
<path d="M26984 5027
L27707 5027
" />
<path d="M25442 5027
L26165 5027
" />
<path d="M26984 5042
L27714 5042
" />
<path d="M25434 5042
L26165 5042
" />
<path d="M26984 5058
L27722 5058
" />
<path d="M25426 5058
L26165 5058
" />
<path d="M26984 5074
L27729 5074
" />
<path d="M25419 5074
L26165 5074
" />
<path d="M26984 5090
L27737 5090
" />
<path d="M25412 5090
L26165 5090
" />
<path d="M26984 5105
L27744 5105
" />
<path d="M25405 5105
L26165 5105
" />
<path d="M26984 5121
L27750 5121
" />
<path d="M25399 5121
L26165 5121
" />
<path d="M26984 5137
L27756 5137
" />
<path d="M25392 5137
L26165 5137
" />
<path d="M26984 5153
L27762 5153
" />
<path d="M25386 5153
L26165 5153
" />
<path d="M26984 5168
L27768 5168
" />
<path d="M25380 5168
L26165 5168
" />
<path d="M26984 5184
L27774 5184
" />
<path d="M25375 5184
L26165 5184
" />
<path d="M26984 5200
L27779 5200
" />
<path d="M25369 5200
L26165 5200
" />
<path d="M26984 5216
L27785 5216
" />
<path d="M25364 5216
L26165 5216
" />
<path d="M26984 5231
L27789 5231
" />
<path d="M25359 5231
L26165 5231
" />
<path d="M26984 5247
L27794 5247
" />
<path d="M25355 5247
L26165 5247
" />
<path d="M26984 5263
L27799 5263
" />
<path d="M25350 5263
L26165 5263
" />
<path d="M26984 5279
L27803 5279
" />
<path d="M25346 5279
L26165 5279
" />
<path d="M26984 5294
L27807 5294
" />
<path d="M25342 5294
L26165 5294
" />
<path d="M26984 5310
L27811 5310
" />
<path d="M25338 5310
L26165 5310
" />
<path d="M26984 5326
L27814 5326
" />
<path d="M25334 5326
L26165 5326
" />
<path d="M26984 5342
L27818 5342
" />
<path d="M25331 5342
L26165 5342
" />
<path d="M26984 5358
L27821 5358
" />
<path d="M25327 5358
L26165 5358
" />
<path d="M26984 5374
L27824 5374
" />
<path d="M25324 5374
L26165 5374
" />
<path d="M26984 5389
L27827 5389
" />
<path d="M25322 5389
L26165 5389
" />
<path d="M26984 5405
L27830 5405
" />
<path d="M25319 5405
L26165 5405
" />
<path d="M26984 5421
L27832 5421
" />
<path d="M25316 5421
L26165 5421
" />
<path d="M26984 5437
L27835 5437
" />
<path d="M25314 5437
L26165 5437
" />
<path d="M26984 5452
L27837 5452
" />
<path d="M25312 5452
L26165 5452
" />
<path d="M26984 5468
L27838 5468
" />
<path d="M25310 5468
L26165 5468
" />
<path d="M26984 5484
L27840 5484
" />
<path d="M25309 5484
L26165 5484
" />
<path d="M26984 5500
L27841 5500
" />
<path d="M25307 5500
L26165 5500
" />
<path d="M26984 5515
L27843 5515
" />
<path d="M25306 5515
L26165 5515
" />
<path d="M25305 5531
L27844 5531
" />
<path d="M25304 5547
L27845 5547
" />
<path d="M25303 5562
L27845 5562
" />
<path d="M25303 5578
L27846 5578
" />
<path d="M25303 5594
L27846 5594
" />
<path d="M25303 5610
L27846 5610
" />
<circle cx="26574.8" cy="5610.24" r="1287.4" /> 
<path d="M13728 8220
L13728 9889
" />
<path d="M9696 8220
L9696 9889
" />
<path d="M9696 9889
L13728 9889
" />
<path d="M9696 8220
L13728 8220
" />
<path d="M30559 15718
L30559 15893
" />
<path d="M30559 14814
L30559 14990
" />
<path d="M28102 15718
L28102 15893
" />
<path d="M28102 14814
L28102 14990
" />
<path d="M28102 15893
L30559 15893
" />
<path d="M28102 14814
L30559 14814
" />
<path d="M27015 15718
L27015 15893
" />
<path d="M27015 14814
L27015 14990
" />
<path d="M24559 15718
L24559 15893
" />
<path d="M24559 14814
L24559 14990
" />
<path d="M24559 15893
L27015 15893
" />
<path d="M24559 14814
L27015 14814
" />
<path d="M28876 6864
L29124 6864
" />
<path d="M29000 6988
L29000 6740
" />
<path d="M29566 4334
L29882 4334
" />
<path d="M29475 4350
L29973 4350
" />
<path d="M29408 4365
L30040 4365
" />
<path d="M29354 4381
L30094 4381
" />
<path d="M29307 4397
L30141 4397
" />
<path d="M29265 4412
L30183 4412
" />
<path d="M29227 4428
L30221 4428
" />
<path d="M29192 4444
L30255 4444
" />
<path d="M29160 4460
L30288 4460
" />
<path d="M29130 4475
L30318 4475
" />
<path d="M29101 4491
L30346 4491
" />
<path d="M29074 4507
L30374 4507
" />
<path d="M29049 4523
L30399 4523
" />
<path d="M29025 4538
L30423 4538
" />
<path d="M29002 4554
L30446 4554
" />
<path d="M28980 4570
L30468 4570
" />
<path d="M28959 4586
L30489 4586
" />
<path d="M28938 4601
L30509 4601
" />
<path d="M28919 4617
L30529 4617
" />
<path d="M28900 4633
L30548 4633
" />
<path d="M28883 4649
L30565 4649
" />
<path d="M28865 4664
L30583 4664
" />
<path d="M28848 4680
L30600 4680
" />
<path d="M28832 4696
L30616 4696
" />
<path d="M30133 4712
L30631 4712
" />
<path d="M28816 4712
L29314 4712
" />
<path d="M30133 4727
L30646 4727
" />
<path d="M28801 4727
L29314 4727
" />
<path d="M30133 4743
L30661 4743
" />
<path d="M28787 4743
L29314 4743
" />
<path d="M30133 4759
L30675 4759
" />
<path d="M28773 4759
L29314 4759
" />
<path d="M30133 4775
L30688 4775
" />
<path d="M28759 4775
L29314 4775
" />
<path d="M30133 4790
L30702 4790
" />
<path d="M28746 4790
L29314 4790
" />
<path d="M30133 4806
L30714 4806
" />
<path d="M28733 4806
L29314 4806
" />
<path d="M30133 4822
L30727 4822
" />
<path d="M28721 4822
L29314 4822
" />
<path d="M30133 4838
L30739 4838
" />
<path d="M28709 4838
L29314 4838
" />
<path d="M30133 4853
L30750 4853
" />
<path d="M28698 4853
L29314 4853
" />
<path d="M30133 4869
L30762 4869
" />
<path d="M28686 4869
L29314 4869
" />
<path d="M30133 4885
L30773 4885
" />
<path d="M28675 4885
L29314 4885
" />
<path d="M30133 4901
L30783 4901
" />
<path d="M28665 4901
L29314 4901
" />
<path d="M30133 4916
L30793 4916
" />
<path d="M28655 4916
L29314 4916
" />
<path d="M30133 4932
L30803 4932
" />
<path d="M28644 4932
L29314 4932
" />
<path d="M30133 4948
L30813 4948
" />
<path d="M28635 4948
L29314 4948
" />
<path d="M30133 4964
L30822 4964
" />
<path d="M28625 4964
L29314 4964
" />
<path d="M30133 4979
L30831 4979
" />
<path d="M28617 4979
L29314 4979
" />
<path d="M30133 4995
L30840 4995
" />
<path d="M28608 4995
L29314 4995
" />
<path d="M30133 5011
L30848 5011
" />
<path d="M28600 5011
L29314 5011
" />
<path d="M30133 5027
L30856 5027
" />
<path d="M28592 5027
L29314 5027
" />
<path d="M30133 5042
L30864 5042
" />
<path d="M28584 5042
L29314 5042
" />
<path d="M30133 5058
L30872 5058
" />
<path d="M28576 5058
L29314 5058
" />
<path d="M30133 5074
L30879 5074
" />
<path d="M28569 5074
L29314 5074
" />
<path d="M30133 5090
L30886 5090
" />
<path d="M28562 5090
L29314 5090
" />
<path d="M30133 5105
L30893 5105
" />
<path d="M28555 5105
L29314 5105
" />
<path d="M30133 5121
L30900 5121
" />
<path d="M28548 5121
L29314 5121
" />
<path d="M30133 5137
L30906 5137
" />
<path d="M28542 5137
L29314 5137
" />
<path d="M30133 5153
L30912 5153
" />
<path d="M28536 5153
L29314 5153
" />
<path d="M30133 5168
L30918 5168
" />
<path d="M28530 5168
L29314 5168
" />
<path d="M30133 5184
L30924 5184
" />
<path d="M28524 5184
L29314 5184
" />
<path d="M30133 5200
L30929 5200
" />
<path d="M28519 5200
L29314 5200
" />
<path d="M30133 5216
L30934 5216
" />
<path d="M28514 5216
L29314 5216
" />
<path d="M30133 5231
L30939 5231
" />
<path d="M28509 5231
L29314 5231
" />
<path d="M30133 5247
L30944 5247
" />
<path d="M28504 5247
L29314 5247
" />
<path d="M30133 5263
L30948 5263
" />
<path d="M28500 5263
L29314 5263
" />
<path d="M30133 5279
L30953 5279
" />
<path d="M28495 5279
L29314 5279
" />
<path d="M30133 5294
L30957 5294
" />
<path d="M28491 5294
L29314 5294
" />
<path d="M30133 5310
L30961 5310
" />
<path d="M28487 5310
L29314 5310
" />
<path d="M30133 5326
L30964 5326
" />
<path d="M28484 5326
L29314 5326
" />
<path d="M30133 5342
L30968 5342
" />
<path d="M28480 5342
L29314 5342
" />
<path d="M30133 5358
L30971 5358
" />
<path d="M28477 5358
L29314 5358
" />
<path d="M30133 5374
L30974 5374
" />
<path d="M28474 5374
L29314 5374
" />
<path d="M30133 5389
L30977 5389
" />
<path d="M28471 5389
L29314 5389
" />
<path d="M30133 5405
L30979 5405
" />
<path d="M28468 5405
L29314 5405
" />
<path d="M30133 5421
L30982 5421
" />
<path d="M28466 5421
L29314 5421
" />
<path d="M30133 5437
L30984 5437
" />
<path d="M28464 5437
L29314 5437
" />
<path d="M30133 5452
L30986 5452
" />
<path d="M28462 5452
L29314 5452
" />
<path d="M30133 5468
L30988 5468
" />
<path d="M28460 5468
L29314 5468
" />
<path d="M30133 5484
L30990 5484
" />
<path d="M28458 5484
L29314 5484
" />
<path d="M30133 5500
L30991 5500
" />
<path d="M28457 5500
L29314 5500
" />
<path d="M30133 5515
L30992 5515
" />
<path d="M28455 5515
L29314 5515
" />
<path d="M28455 5531
L30993 5531
" />
<path d="M28453 5547
L30994 5547
" />
<path d="M28453 5562
L30995 5562
" />
<path d="M28452 5578
L30996 5578
" />
<path d="M28452 5594
L30996 5594
" />
<path d="M28452 5610
L30996 5610
" />
<circle cx="29724.4" cy="5610.24" r="1287.4" /> 
</g>
<g style="fill:#000000; fill-opacity:0.0; 
stroke:#000000; stroke-width:59.0551; stroke-opacity:1; 
stroke-linecap:round; stroke-linejoin:round;">
<g transform="rotate(-90 7283.46 10629.9)">
<text x="7283.46" y="10826.8"
textLength="789.183" font-size="524.934" lengthAdjust="spacingAndGlyphs"
text-anchor="middle" opacity="0">F1</text>
</g>
<path d="M7255 10761
L7255 10892
" />
<path d="M7461 10892
L7067 10892
L7067 10704
" />
<path d="M7461 10348
L7461 10573
" />
<path d="M7461 10461
L7067 10461
L7124 10498
L7161 10536
L7180 10573
" />
<g transform="rotate(-90 25909.4 10826.8)">
<text x="25909.4" y="11023.6"
textLength="751.687" font-size="524.934" lengthAdjust="spacingAndGlyphs"
text-anchor="middle" opacity="0">J1</text>
</g>
<path d="M25693 10958
L25975 10958
L26031 10976
L26068 11014
L26087 11070
L26087 11107
" />
<path d="M26087 10564
L26087 10789
" />
<path d="M26087 10676
L25693 10676
L25750 10714
L25787 10751
L25806 10789
" />
<text x="18287.4" y="17496.1"
textLength="1220.38" font-size="524.934" lengthAdjust="spacingAndGlyphs"
text-anchor="middle" opacity="0">PS1</text>
<path d="M17809 17477
L17809 17083
L17959 17083
L17996 17102
L18015 17121
L18034 17158
L18034 17214
L18015 17252
L17996 17271
L17959 17289
L17809 17289
" />
<path d="M18184 17458
L18240 17477
L18334 17477
L18371 17458
L18390 17439
L18409 17402
L18409 17364
L18390 17327
L18371 17308
L18334 17289
L18259 17271
L18221 17252
L18203 17233
L18184 17196
L18184 17158
L18203 17121
L18221 17102
L18259 17083
L18353 17083
L18409 17102
" />
<path d="M18784 17477
L18559 17477
" />
<path d="M18671 17477
L18671 17083
L18634 17139
L18596 17177
L18559 17196
" />
<text x="12598.4" y="19291.3"
textLength="1107.89" font-size="524.934" lengthAdjust="spacingAndGlyphs"
text-anchor="middle" opacity="0">FL1</text>
<path d="M12307 19066
L12176 19066
" />
<path d="M12176 19272
L12176 18878
L12364 18878
" />
<path d="M12701 19272
L12514 19272
L12514 18878
" />
<path d="M13038 19272
L12814 19272
" />
<path d="M12926 19272
L12926 18878
L12889 18935
L12851 18972
L12814 18991
" />
<text x="11712.6" y="4921.26"
textLength="1182.88" font-size="524.934" lengthAdjust="spacingAndGlyphs"
text-anchor="middle" opacity="0">RV1</text>
<path d="M11478 4902
L11347 4715
" />
<path d="M11253 4902
L11253 4508
L11403 4508
L11440 4527
L11459 4546
L11478 4583
L11478 4640
L11459 4677
L11440 4696
L11403 4715
L11253 4715
" />
<path d="M11590 4508
L11721 4902
L11853 4508
" />
<path d="M12190 4902
L11965 4902
" />
<path d="M12078 4902
L12078 4508
L12040 4565
L12003 4602
L11965 4621
" />
<text x="25295.3" y="4527.56"
textLength="845.426" font-size="524.934" lengthAdjust="spacingAndGlyphs"
text-anchor="middle" opacity="0">C3</text>
<path d="M25229 4471
L25210 4490
L25154 4508
L25117 4508
L25060 4490
L25023 4452
L25004 4415
L24985 4340
L24985 4283
L25004 4208
L25023 4171
L25060 4133
L25117 4115
L25154 4115
L25210 4133
L25229 4152
" />
<path d="M25360 4115
L25604 4115
L25473 4265
L25529 4265
L25567 4283
L25585 4302
L25604 4340
L25604 4433
L25585 4471
L25567 4490
L25529 4508
L25417 4508
L25379 4490
L25360 4471
" />
<text x="11712.6" y="9251.97"
textLength="845.426" font-size="524.934" lengthAdjust="spacingAndGlyphs"
text-anchor="middle" opacity="0">C1</text>
<path d="M11646 9195
L11628 9214
L11571 9233
L11534 9233
L11478 9214
L11440 9176
L11422 9139
L11403 9064
L11403 9008
L11422 8933
L11440 8895
L11478 8858
L11534 8839
L11571 8839
L11628 8858
L11646 8877
" />
<path d="M12021 9233
L11796 9233
" />
<path d="M11909 9233
L11909 8839
L11871 8895
L11834 8933
L11796 8952
" />
<text x="28346.5" y="14566.9"
textLength="845.426" font-size="524.934" lengthAdjust="spacingAndGlyphs"
text-anchor="middle" opacity="0">C5</text>
<path d="M28280 14510
L28262 14529
L28205 14548
L28168 14548
L28112 14529
L28074 14491
L28055 14454
L28037 14379
L28037 14323
L28055 14248
L28074 14210
L28112 14173
L28168 14154
L28205 14154
L28262 14173
L28280 14191
" />
<path d="M28637 14154
L28449 14154
L28430 14341
L28449 14323
L28487 14304
L28580 14304
L28618 14323
L28637 14341
L28655 14379
L28655 14473
L28637 14510
L28618 14529
L28580 14548
L28487 14548
L28449 14529
L28430 14510
" />
<text x="24606.3" y="14566.9"
textLength="845.426" font-size="524.934" lengthAdjust="spacingAndGlyphs"
text-anchor="middle" opacity="0">C4</text>
<path d="M24540 14510
L24521 14529
L24465 14548
L24428 14548
L24371 14529
L24334 14491
L24315 14454
L24296 14379
L24296 14323
L24315 14248
L24334 14210
L24371 14173
L24428 14154
L24465 14154
L24521 14173
L24540 14191
" />
<path d="M24878 14285
L24878 14548
" />
<path d="M24784 14135
L24690 14416
L24934 14416
" />
<text x="31003.9" y="4527.56"
textLength="845.426" font-size="524.934" lengthAdjust="spacingAndGlyphs"
text-anchor="middle" opacity="0">C2</text>
<path d="M30938 4471
L30919 4490
L30863 4508
L30825 4508
L30769 4490
L30732 4452
L30713 4415
L30694 4340
L30694 4283
L30713 4208
L30732 4171
L30769 4133
L30825 4115
L30863 4115
L30919 4133
L30938 4152
" />
<path d="M31088 4152
L31107 4133
L31144 4115
L31238 4115
L31275 4133
L31294 4152
L31313 4190
L31313 4227
L31294 4283
L31069 4508
L31313 4508
" />
<g >
</g>
</g> 
</svg>
