<?xml version="1.0" standalone="no"?>
 <!DOCTYPE svg PUBLIC "-//W3C//DTD SVG 1.1//EN" 
 "http://www.w3.org/Graphics/SVG/1.1/DTD/svg11.dtd"> 
<svg
  xmlns:svg="http://www.w3.org/2000/svg"
  xmlns="http://www.w3.org/2000/svg"
  xmlns:xlink="http://www.w3.org/1999/xlink"
  version="1.1"
  width="29.700220cm" height="21.000720cm" viewBox="0 0 116930 82680">
<title>SVG Picture created as LowNoise5V-F_Cu.svg date 2021/03/19 12:29:50 </title>
  <desc>Picture generated by PCBNEW </desc>
<g style="fill:#000000; fill-opacity:1;stroke:#000000; stroke-opacity:1;
stroke-linecap:round; stroke-linejoin:round;"
 transform="translate(0 0) scale(1 1)">
</g>
<g style="fill:#000000; fill-opacity:0.0; 
stroke:#000000; stroke-width:-0.000393701; stroke-opacity:1; 
stroke-linecap:round; stroke-linejoin:round;">
<g >
</g>
<g style="fill:#000000; fill-opacity:0.0; 
stroke:#000000; stroke-width:0; stroke-opacity:1; 
stroke-linecap:round; stroke-linejoin:round;">
</g>
<g style="fill:#000000; fill-opacity:1.0; 
stroke:#000000; stroke-width:0; stroke-opacity:1; 
stroke-linecap:round; stroke-linejoin:round;">
<path style="fill:#000000; fill-opacity:1.0; 
stroke:#000000; stroke-width:0; stroke-opacity:1; 
stroke-linecap:round; stroke-linejoin:round;fill-rule:evenodd;"
d="M 3267.72,12126
2244.09,12126
2244.09,11102.4
3267.72,11102.4
Z" /> 
<circle cx="2755.91" cy="9645.67" r="511.811" /> 
</g>
<g style="fill:#000000; fill-opacity:1.0; 
stroke:#000000; stroke-width:39.3701; stroke-opacity:1; 
stroke-linecap:round; stroke-linejoin:round;">
</g>
<g >
</g>
<g style="fill:#000000; fill-opacity:1.0; 
stroke:#000000; stroke-width:39.3701; stroke-opacity:1; 
stroke-linecap:round; stroke-linejoin:round;">
</g>
<g style="fill:#000000; fill-opacity:1.0; 
stroke:#000000; stroke-width:0; stroke-opacity:1; 
stroke-linecap:round; stroke-linejoin:round;">
<circle cx="7185.04" cy="6181.1" r="688.976" /> 
</g>
<g style="fill:#000000; fill-opacity:1.0; 
stroke:#000000; stroke-width:39.3701; stroke-opacity:1; 
stroke-linecap:round; stroke-linejoin:round;">
</g>
<g style="fill:#000000; fill-opacity:1.0; 
stroke:#000000; stroke-width:0; stroke-opacity:1; 
stroke-linecap:round; stroke-linejoin:round;">
<circle cx="7185.04" cy="15078.7" r="688.976" /> 
</g>
<g style="fill:#000000; fill-opacity:1.0; 
stroke:#000000; stroke-width:39.3701; stroke-opacity:1; 
stroke-linecap:round; stroke-linejoin:round;">
</g>
<g >
</g>
<g style="fill:#000000; fill-opacity:1.0; 
stroke:#000000; stroke-width:39.3701; stroke-opacity:1; 
stroke-linecap:round; stroke-linejoin:round;">
</g>
<g style="fill:#000000; fill-opacity:1.0; 
stroke:#000000; stroke-width:0; stroke-opacity:1; 
stroke-linecap:round; stroke-linejoin:round;">
<circle cx="27165.4" cy="9448.82" r="314.961" /> 
</g>
<g style="fill:#000000; fill-opacity:1.0; 
stroke:#000000; stroke-width:39.3701; stroke-opacity:1; 
stroke-linecap:round; stroke-linejoin:round;">
</g>
<g style="fill:#000000; fill-opacity:1.0; 
stroke:#000000; stroke-width:0; stroke-opacity:1; 
stroke-linecap:round; stroke-linejoin:round;">
<circle cx="27165.4" cy="10433.1" r="314.961" /> 
</g>
<g style="fill:#000000; fill-opacity:1.0; 
stroke:#000000; stroke-width:39.3701; stroke-opacity:1; 
stroke-linecap:round; stroke-linejoin:round;">
</g>
<g style="fill:#000000; fill-opacity:1.0; 
stroke:#000000; stroke-width:0; stroke-opacity:1; 
stroke-linecap:round; stroke-linejoin:round;">
<circle cx="27165.4" cy="11220.5" r="314.961" /> 
</g>
<g style="fill:#000000; fill-opacity:1.0; 
stroke:#000000; stroke-width:39.3701; stroke-opacity:1; 
stroke-linecap:round; stroke-linejoin:round;">
</g>
<g style="fill:#000000; fill-opacity:1.0; 
stroke:#000000; stroke-width:0; stroke-opacity:1; 
stroke-linecap:round; stroke-linejoin:round;">
<path style="fill:#000000; fill-opacity:1.0; 
stroke:#000000; stroke-width:0; stroke-opacity:1; 
stroke-linecap:round; stroke-linejoin:round;fill-rule:evenodd;"
d="M 27460.6,12519.7
26870.1,12519.7
26870.1,11889.8
27460.6,11889.8
Z" /> 
<circle cx="28232.3" cy="8240.16" r="590.551" /> 
</g>
<g style="fill:#000000; fill-opacity:1.0; 
stroke:#000000; stroke-width:39.3701; stroke-opacity:1; 
stroke-linecap:round; stroke-linejoin:round;">
</g>
<g style="fill:#000000; fill-opacity:1.0; 
stroke:#000000; stroke-width:0; stroke-opacity:1; 
stroke-linecap:round; stroke-linejoin:round;">
<circle cx="28232.3" cy="13413.4" r="590.551" /> 
</g>
<g style="fill:#000000; fill-opacity:1.0; 
stroke:#000000; stroke-width:39.3701; stroke-opacity:1; 
stroke-linecap:round; stroke-linejoin:round;">
</g>
<g >
</g>
<g style="fill:#000000; fill-opacity:1.0; 
stroke:#000000; stroke-width:39.3701; stroke-opacity:1; 
stroke-linecap:round; stroke-linejoin:round;">
</g>
<g style="fill:#000000; fill-opacity:1.0; 
stroke:#000000; stroke-width:0; stroke-opacity:1; 
stroke-linecap:round; stroke-linejoin:round;">
<circle cx="22519.7" cy="4173.23" r="452.756" /> 
</g>
<g style="fill:#000000; fill-opacity:1.0; 
stroke:#000000; stroke-width:39.3701; stroke-opacity:1; 
stroke-linecap:round; stroke-linejoin:round;">
</g>
<g style="fill:#000000; fill-opacity:1.0; 
stroke:#000000; stroke-width:0; stroke-opacity:1; 
stroke-linecap:round; stroke-linejoin:round;">
<circle cx="20472.4" cy="15748" r="452.756" /> 
</g>
<g style="fill:#000000; fill-opacity:1.0; 
stroke:#000000; stroke-width:39.3701; stroke-opacity:1; 
stroke-linecap:round; stroke-linejoin:round;">
</g>
<g style="fill:#000000; fill-opacity:1.0; 
stroke:#000000; stroke-width:0; stroke-opacity:1; 
stroke-linecap:round; stroke-linejoin:round;">
<path style="fill:#000000; fill-opacity:1.0; 
stroke:#000000; stroke-width:0; stroke-opacity:1; 
stroke-linecap:round; stroke-linejoin:round;fill-rule:evenodd;"
d="M 18897.6,16200.8
18110.2,16200.8
18110.2,15295.3
18897.6,15295.3
Z" /> 
<circle cx="16456.7" cy="4173.23" r="452.756" /> 
</g>
<g style="fill:#000000; fill-opacity:1.0; 
stroke:#000000; stroke-width:39.3701; stroke-opacity:1; 
stroke-linecap:round; stroke-linejoin:round;">
</g>
<g >
</g>
<g style="fill:#000000; fill-opacity:1.0; 
stroke:#000000; stroke-width:39.3701; stroke-opacity:1; 
stroke-linecap:round; stroke-linejoin:round;">
</g>
<g style="fill:#000000; fill-opacity:1.0; 
stroke:#000000; stroke-width:0; stroke-opacity:1; 
stroke-linecap:round; stroke-linejoin:round;">
<circle cx="29133.9" cy="2755.91" r="1259.84" /> 
</g>
<g style="fill:#000000; fill-opacity:1.0; 
stroke:#000000; stroke-width:39.3701; stroke-opacity:1; 
stroke-linecap:round; stroke-linejoin:round;">
</g>
<g style="fill:#000000; fill-opacity:1.0; 
stroke:#000000; stroke-width:0; stroke-opacity:1; 
stroke-linecap:round; stroke-linejoin:round;">
<circle cx="30078.7" cy="2755.91" r="157.48" /> 
</g>
<g style="fill:#000000; fill-opacity:1.0; 
stroke:#000000; stroke-width:39.3701; stroke-opacity:1; 
stroke-linecap:round; stroke-linejoin:round;">
</g>
<g style="fill:#000000; fill-opacity:1.0; 
stroke:#000000; stroke-width:0; stroke-opacity:1; 
stroke-linecap:round; stroke-linejoin:round;">
<circle cx="29802" cy="3424.04" r="157.48" /> 
</g>
<g style="fill:#000000; fill-opacity:1.0; 
stroke:#000000; stroke-width:39.3701; stroke-opacity:1; 
stroke-linecap:round; stroke-linejoin:round;">
</g>
<g style="fill:#000000; fill-opacity:1.0; 
stroke:#000000; stroke-width:0; stroke-opacity:1; 
stroke-linecap:round; stroke-linejoin:round;">
<circle cx="29133.9" cy="3700.79" r="157.48" /> 
</g>
<g style="fill:#000000; fill-opacity:1.0; 
stroke:#000000; stroke-width:39.3701; stroke-opacity:1; 
stroke-linecap:round; stroke-linejoin:round;">
</g>
<g style="fill:#000000; fill-opacity:1.0; 
stroke:#000000; stroke-width:0; stroke-opacity:1; 
stroke-linecap:round; stroke-linejoin:round;">
<circle cx="28465.7" cy="3424.04" r="157.48" /> 
</g>
<g style="fill:#000000; fill-opacity:1.0; 
stroke:#000000; stroke-width:39.3701; stroke-opacity:1; 
stroke-linecap:round; stroke-linejoin:round;">
</g>
<g style="fill:#000000; fill-opacity:1.0; 
stroke:#000000; stroke-width:0; stroke-opacity:1; 
stroke-linecap:round; stroke-linejoin:round;">
<circle cx="28189" cy="2755.91" r="157.48" /> 
</g>
<g style="fill:#000000; fill-opacity:1.0; 
stroke:#000000; stroke-width:39.3701; stroke-opacity:1; 
stroke-linecap:round; stroke-linejoin:round;">
</g>
<g style="fill:#000000; fill-opacity:1.0; 
stroke:#000000; stroke-width:0; stroke-opacity:1; 
stroke-linecap:round; stroke-linejoin:round;">
<circle cx="28465.7" cy="2087.77" r="157.48" /> 
</g>
<g style="fill:#000000; fill-opacity:1.0; 
stroke:#000000; stroke-width:39.3701; stroke-opacity:1; 
stroke-linecap:round; stroke-linejoin:round;">
</g>
<g style="fill:#000000; fill-opacity:1.0; 
stroke:#000000; stroke-width:0; stroke-opacity:1; 
stroke-linecap:round; stroke-linejoin:round;">
<circle cx="29133.9" cy="1811.02" r="157.48" /> 
</g>
<g style="fill:#000000; fill-opacity:1.0; 
stroke:#000000; stroke-width:39.3701; stroke-opacity:1; 
stroke-linecap:round; stroke-linejoin:round;">
</g>
<g style="fill:#000000; fill-opacity:1.0; 
stroke:#000000; stroke-width:0; stroke-opacity:1; 
stroke-linecap:round; stroke-linejoin:round;">
<circle cx="29802" cy="2087.77" r="157.48" /> 
</g>
<g style="fill:#000000; fill-opacity:1.0; 
stroke:#000000; stroke-width:39.3701; stroke-opacity:1; 
stroke-linecap:round; stroke-linejoin:round;">
</g>
<g >
</g>
<g style="fill:#000000; fill-opacity:1.0; 
stroke:#000000; stroke-width:39.3701; stroke-opacity:1; 
stroke-linecap:round; stroke-linejoin:round;">
</g>
<g style="fill:#000000; fill-opacity:1.0; 
stroke:#000000; stroke-width:0; stroke-opacity:1; 
stroke-linecap:round; stroke-linejoin:round;">
<circle cx="29802" cy="17835.8" r="157.48" /> 
</g>
<g style="fill:#000000; fill-opacity:1.0; 
stroke:#000000; stroke-width:39.3701; stroke-opacity:1; 
stroke-linecap:round; stroke-linejoin:round;">
</g>
<g style="fill:#000000; fill-opacity:1.0; 
stroke:#000000; stroke-width:0; stroke-opacity:1; 
stroke-linecap:round; stroke-linejoin:round;">
<circle cx="29133.9" cy="17559.1" r="157.48" /> 
</g>
<g style="fill:#000000; fill-opacity:1.0; 
stroke:#000000; stroke-width:39.3701; stroke-opacity:1; 
stroke-linecap:round; stroke-linejoin:round;">
</g>
<g style="fill:#000000; fill-opacity:1.0; 
stroke:#000000; stroke-width:0; stroke-opacity:1; 
stroke-linecap:round; stroke-linejoin:round;">
<circle cx="28465.7" cy="17835.8" r="157.48" /> 
</g>
<g style="fill:#000000; fill-opacity:1.0; 
stroke:#000000; stroke-width:39.3701; stroke-opacity:1; 
stroke-linecap:round; stroke-linejoin:round;">
</g>
<g style="fill:#000000; fill-opacity:1.0; 
stroke:#000000; stroke-width:0; stroke-opacity:1; 
stroke-linecap:round; stroke-linejoin:round;">
<circle cx="28189" cy="18503.9" r="157.48" /> 
</g>
<g style="fill:#000000; fill-opacity:1.0; 
stroke:#000000; stroke-width:39.3701; stroke-opacity:1; 
stroke-linecap:round; stroke-linejoin:round;">
</g>
<g style="fill:#000000; fill-opacity:1.0; 
stroke:#000000; stroke-width:0; stroke-opacity:1; 
stroke-linecap:round; stroke-linejoin:round;">
<circle cx="28465.7" cy="19172.1" r="157.48" /> 
</g>
<g style="fill:#000000; fill-opacity:1.0; 
stroke:#000000; stroke-width:39.3701; stroke-opacity:1; 
stroke-linecap:round; stroke-linejoin:round;">
</g>
<g style="fill:#000000; fill-opacity:1.0; 
stroke:#000000; stroke-width:0; stroke-opacity:1; 
stroke-linecap:round; stroke-linejoin:round;">
<circle cx="29133.9" cy="19448.8" r="157.48" /> 
</g>
<g style="fill:#000000; fill-opacity:1.0; 
stroke:#000000; stroke-width:39.3701; stroke-opacity:1; 
stroke-linecap:round; stroke-linejoin:round;">
</g>
<g style="fill:#000000; fill-opacity:1.0; 
stroke:#000000; stroke-width:0; stroke-opacity:1; 
stroke-linecap:round; stroke-linejoin:round;">
<circle cx="29802" cy="19172.1" r="157.48" /> 
</g>
<g style="fill:#000000; fill-opacity:1.0; 
stroke:#000000; stroke-width:39.3701; stroke-opacity:1; 
stroke-linecap:round; stroke-linejoin:round;">
</g>
<g style="fill:#000000; fill-opacity:1.0; 
stroke:#000000; stroke-width:0; stroke-opacity:1; 
stroke-linecap:round; stroke-linejoin:round;">
<circle cx="30078.7" cy="18503.9" r="157.48" /> 
</g>
<g style="fill:#000000; fill-opacity:1.0; 
stroke:#000000; stroke-width:39.3701; stroke-opacity:1; 
stroke-linecap:round; stroke-linejoin:round;">
</g>
<g style="fill:#000000; fill-opacity:1.0; 
stroke:#000000; stroke-width:0; stroke-opacity:1; 
stroke-linecap:round; stroke-linejoin:round;">
<circle cx="29133.9" cy="18503.9" r="1259.84" /> 
</g>
<g style="fill:#000000; fill-opacity:1.0; 
stroke:#000000; stroke-width:39.3701; stroke-opacity:1; 
stroke-linecap:round; stroke-linejoin:round;">
</g>
<g >
</g>
<g style="fill:#000000; fill-opacity:1.0; 
stroke:#000000; stroke-width:39.3701; stroke-opacity:1; 
stroke-linecap:round; stroke-linejoin:round;">
</g>
<g style="fill:#000000; fill-opacity:1.0; 
stroke:#000000; stroke-width:0; stroke-opacity:1; 
stroke-linecap:round; stroke-linejoin:round;">
<circle cx="2755.91" cy="18503.9" r="1259.84" /> 
</g>
<g style="fill:#000000; fill-opacity:1.0; 
stroke:#000000; stroke-width:39.3701; stroke-opacity:1; 
stroke-linecap:round; stroke-linejoin:round;">
</g>
<g style="fill:#000000; fill-opacity:1.0; 
stroke:#000000; stroke-width:0; stroke-opacity:1; 
stroke-linecap:round; stroke-linejoin:round;">
<circle cx="3700.79" cy="18503.9" r="157.48" /> 
</g>
<g style="fill:#000000; fill-opacity:1.0; 
stroke:#000000; stroke-width:39.3701; stroke-opacity:1; 
stroke-linecap:round; stroke-linejoin:round;">
</g>
<g style="fill:#000000; fill-opacity:1.0; 
stroke:#000000; stroke-width:0; stroke-opacity:1; 
stroke-linecap:round; stroke-linejoin:round;">
<circle cx="3424.04" cy="19172.1" r="157.48" /> 
</g>
<g style="fill:#000000; fill-opacity:1.0; 
stroke:#000000; stroke-width:39.3701; stroke-opacity:1; 
stroke-linecap:round; stroke-linejoin:round;">
</g>
<g style="fill:#000000; fill-opacity:1.0; 
stroke:#000000; stroke-width:0; stroke-opacity:1; 
stroke-linecap:round; stroke-linejoin:round;">
<circle cx="2755.91" cy="19448.8" r="157.48" /> 
</g>
<g style="fill:#000000; fill-opacity:1.0; 
stroke:#000000; stroke-width:39.3701; stroke-opacity:1; 
stroke-linecap:round; stroke-linejoin:round;">
</g>
<g style="fill:#000000; fill-opacity:1.0; 
stroke:#000000; stroke-width:0; stroke-opacity:1; 
stroke-linecap:round; stroke-linejoin:round;">
<circle cx="2087.77" cy="19172.1" r="157.48" /> 
</g>
<g style="fill:#000000; fill-opacity:1.0; 
stroke:#000000; stroke-width:39.3701; stroke-opacity:1; 
stroke-linecap:round; stroke-linejoin:round;">
</g>
<g style="fill:#000000; fill-opacity:1.0; 
stroke:#000000; stroke-width:0; stroke-opacity:1; 
stroke-linecap:round; stroke-linejoin:round;">
<circle cx="1811.02" cy="18503.9" r="157.48" /> 
</g>
<g style="fill:#000000; fill-opacity:1.0; 
stroke:#000000; stroke-width:39.3701; stroke-opacity:1; 
stroke-linecap:round; stroke-linejoin:round;">
</g>
<g style="fill:#000000; fill-opacity:1.0; 
stroke:#000000; stroke-width:0; stroke-opacity:1; 
stroke-linecap:round; stroke-linejoin:round;">
<circle cx="2087.77" cy="17835.8" r="157.48" /> 
</g>
<g style="fill:#000000; fill-opacity:1.0; 
stroke:#000000; stroke-width:39.3701; stroke-opacity:1; 
stroke-linecap:round; stroke-linejoin:round;">
</g>
<g style="fill:#000000; fill-opacity:1.0; 
stroke:#000000; stroke-width:0; stroke-opacity:1; 
stroke-linecap:round; stroke-linejoin:round;">
<circle cx="2755.91" cy="17559.1" r="157.48" /> 
</g>
<g style="fill:#000000; fill-opacity:1.0; 
stroke:#000000; stroke-width:39.3701; stroke-opacity:1; 
stroke-linecap:round; stroke-linejoin:round;">
</g>
<g style="fill:#000000; fill-opacity:1.0; 
stroke:#000000; stroke-width:0; stroke-opacity:1; 
stroke-linecap:round; stroke-linejoin:round;">
<circle cx="3424.04" cy="17835.8" r="157.48" /> 
</g>
<g style="fill:#000000; fill-opacity:1.0; 
stroke:#000000; stroke-width:39.3701; stroke-opacity:1; 
stroke-linecap:round; stroke-linejoin:round;">
</g>
<g >
</g>
<g style="fill:#000000; fill-opacity:1.0; 
stroke:#000000; stroke-width:39.3701; stroke-opacity:1; 
stroke-linecap:round; stroke-linejoin:round;">
</g>
<g style="fill:#000000; fill-opacity:1.0; 
stroke:#000000; stroke-width:0; stroke-opacity:1; 
stroke-linecap:round; stroke-linejoin:round;">
<circle cx="3424.04" cy="2087.77" r="157.48" /> 
</g>
<g style="fill:#000000; fill-opacity:1.0; 
stroke:#000000; stroke-width:39.3701; stroke-opacity:1; 
stroke-linecap:round; stroke-linejoin:round;">
</g>
<g style="fill:#000000; fill-opacity:1.0; 
stroke:#000000; stroke-width:0; stroke-opacity:1; 
stroke-linecap:round; stroke-linejoin:round;">
<circle cx="2755.91" cy="1811.02" r="157.48" /> 
</g>
<g style="fill:#000000; fill-opacity:1.0; 
stroke:#000000; stroke-width:39.3701; stroke-opacity:1; 
stroke-linecap:round; stroke-linejoin:round;">
</g>
<g style="fill:#000000; fill-opacity:1.0; 
stroke:#000000; stroke-width:0; stroke-opacity:1; 
stroke-linecap:round; stroke-linejoin:round;">
<circle cx="2087.77" cy="2087.77" r="157.48" /> 
</g>
<g style="fill:#000000; fill-opacity:1.0; 
stroke:#000000; stroke-width:39.3701; stroke-opacity:1; 
stroke-linecap:round; stroke-linejoin:round;">
</g>
<g style="fill:#000000; fill-opacity:1.0; 
stroke:#000000; stroke-width:0; stroke-opacity:1; 
stroke-linecap:round; stroke-linejoin:round;">
<circle cx="1811.02" cy="2755.91" r="157.48" /> 
</g>
<g style="fill:#000000; fill-opacity:1.0; 
stroke:#000000; stroke-width:39.3701; stroke-opacity:1; 
stroke-linecap:round; stroke-linejoin:round;">
</g>
<g style="fill:#000000; fill-opacity:1.0; 
stroke:#000000; stroke-width:0; stroke-opacity:1; 
stroke-linecap:round; stroke-linejoin:round;">
<circle cx="2087.77" cy="3424.04" r="157.48" /> 
</g>
<g style="fill:#000000; fill-opacity:1.0; 
stroke:#000000; stroke-width:39.3701; stroke-opacity:1; 
stroke-linecap:round; stroke-linejoin:round;">
</g>
<g style="fill:#000000; fill-opacity:1.0; 
stroke:#000000; stroke-width:0; stroke-opacity:1; 
stroke-linecap:round; stroke-linejoin:round;">
<circle cx="2755.91" cy="3700.79" r="157.48" /> 
</g>
<g style="fill:#000000; fill-opacity:1.0; 
stroke:#000000; stroke-width:39.3701; stroke-opacity:1; 
stroke-linecap:round; stroke-linejoin:round;">
</g>
<g style="fill:#000000; fill-opacity:1.0; 
stroke:#000000; stroke-width:0; stroke-opacity:1; 
stroke-linecap:round; stroke-linejoin:round;">
<circle cx="3424.04" cy="3424.04" r="157.48" /> 
</g>
<g style="fill:#000000; fill-opacity:1.0; 
stroke:#000000; stroke-width:39.3701; stroke-opacity:1; 
stroke-linecap:round; stroke-linejoin:round;">
</g>
<g style="fill:#000000; fill-opacity:1.0; 
stroke:#000000; stroke-width:0; stroke-opacity:1; 
stroke-linecap:round; stroke-linejoin:round;">
<circle cx="3700.79" cy="2755.91" r="157.48" /> 
</g>
<g style="fill:#000000; fill-opacity:1.0; 
stroke:#000000; stroke-width:39.3701; stroke-opacity:1; 
stroke-linecap:round; stroke-linejoin:round;">
</g>
<g style="fill:#000000; fill-opacity:1.0; 
stroke:#000000; stroke-width:0; stroke-opacity:1; 
stroke-linecap:round; stroke-linejoin:round;">
<circle cx="2755.91" cy="2755.91" r="1259.84" /> 
</g>
<g style="fill:#000000; fill-opacity:1.0; 
stroke:#000000; stroke-width:39.3701; stroke-opacity:1; 
stroke-linecap:round; stroke-linejoin:round;">
</g>
<g >
</g>
<g style="fill:#000000; fill-opacity:1.0; 
stroke:#000000; stroke-width:39.3701; stroke-opacity:1; 
stroke-linecap:round; stroke-linejoin:round;">
</g>
<g style="fill:#000000; fill-opacity:1.0; 
stroke:#000000; stroke-width:0; stroke-opacity:1; 
stroke-linecap:round; stroke-linejoin:round;">
<circle cx="11220.5" cy="16929.1" r="246.063" /> 
</g>
<g style="fill:#000000; fill-opacity:1.0; 
stroke:#000000; stroke-width:39.3701; stroke-opacity:1; 
stroke-linecap:round; stroke-linejoin:round;">
</g>
<g style="fill:#000000; fill-opacity:1.0; 
stroke:#000000; stroke-width:0; stroke-opacity:1; 
stroke-linecap:round; stroke-linejoin:round;">
<circle cx="13976.4" cy="16929.1" r="246.063" /> 
</g>
<g style="fill:#000000; fill-opacity:1.0; 
stroke:#000000; stroke-width:39.3701; stroke-opacity:1; 
stroke-linecap:round; stroke-linejoin:round;">
</g>
<g style="fill:#000000; fill-opacity:1.0; 
stroke:#000000; stroke-width:0; stroke-opacity:1; 
stroke-linecap:round; stroke-linejoin:round;">
<circle cx="13976.4" cy="13779.5" r="246.063" /> 
</g>
<g style="fill:#000000; fill-opacity:1.0; 
stroke:#000000; stroke-width:39.3701; stroke-opacity:1; 
stroke-linecap:round; stroke-linejoin:round;">
</g>
<g style="fill:#000000; fill-opacity:1.0; 
stroke:#000000; stroke-width:0; stroke-opacity:1; 
stroke-linecap:round; stroke-linejoin:round;">
<circle cx="11220.5" cy="13779.5" r="246.063" /> 
</g>
<g style="fill:#000000; fill-opacity:1.0; 
stroke:#000000; stroke-width:39.3701; stroke-opacity:1; 
stroke-linecap:round; stroke-linejoin:round;">
</g>
<g >
</g>
<g style="fill:#000000; fill-opacity:1.0; 
stroke:#000000; stroke-width:39.3701; stroke-opacity:1; 
stroke-linecap:round; stroke-linejoin:round;">
</g>
<g style="fill:#000000; fill-opacity:1.0; 
stroke:#000000; stroke-width:0; stroke-opacity:1; 
stroke-linecap:round; stroke-linejoin:round;">
<circle cx="13189" cy="4724.41" r="314.961" /> 
</g>
<g style="fill:#000000; fill-opacity:1.0; 
stroke:#000000; stroke-width:39.3701; stroke-opacity:1; 
stroke-linecap:round; stroke-linejoin:round;">
</g>
<g style="fill:#000000; fill-opacity:1.0; 
stroke:#000000; stroke-width:0; stroke-opacity:1; 
stroke-linecap:round; stroke-linejoin:round;">
<circle cx="10236.2" cy="4724.41" r="314.961" /> 
</g>
<g style="fill:#000000; fill-opacity:1.0; 
stroke:#000000; stroke-width:39.3701; stroke-opacity:1; 
stroke-linecap:round; stroke-linejoin:round;">
</g>
<g >
</g>
<g style="fill:#000000; fill-opacity:1.0; 
stroke:#000000; stroke-width:39.3701; stroke-opacity:1; 
stroke-linecap:round; stroke-linejoin:round;">
</g>
<g style="fill:#000000; fill-opacity:1.0; 
stroke:#000000; stroke-width:0; stroke-opacity:1; 
stroke-linecap:round; stroke-linejoin:round;">
<circle cx="26574.8" cy="5118.11" r="314.961" /> 
</g>
<g style="fill:#000000; fill-opacity:1.0; 
stroke:#000000; stroke-width:39.3701; stroke-opacity:1; 
stroke-linecap:round; stroke-linejoin:round;">
</g>
<g style="fill:#000000; fill-opacity:1.0; 
stroke:#000000; stroke-width:0; stroke-opacity:1; 
stroke-linecap:round; stroke-linejoin:round;">
<path style="fill:#000000; fill-opacity:1.0; 
stroke:#000000; stroke-width:0; stroke-opacity:1; 
stroke-linecap:round; stroke-linejoin:round;fill-rule:evenodd;"
d="M 26889.8,6417.32
26259.8,6417.32
26259.8,5787.4
26889.8,5787.4
Z" /> 
</g>
<g >
</g>
<g style="fill:#000000; fill-opacity:1.0; 
stroke:#000000; stroke-width:0; stroke-opacity:1; 
stroke-linecap:round; stroke-linejoin:round;">
<circle cx="13189" cy="9055.12" r="393.701" /> 
</g>
<g style="fill:#000000; fill-opacity:1.0; 
stroke:#000000; stroke-width:39.3701; stroke-opacity:1; 
stroke-linecap:round; stroke-linejoin:round;">
</g>
<g style="fill:#000000; fill-opacity:1.0; 
stroke:#000000; stroke-width:0; stroke-opacity:1; 
stroke-linecap:round; stroke-linejoin:round;">
<circle cx="10236.2" cy="9055.12" r="393.701" /> 
</g>
<g style="fill:#000000; fill-opacity:1.0; 
stroke:#000000; stroke-width:39.3701; stroke-opacity:1; 
stroke-linecap:round; stroke-linejoin:round;">
</g>
<g >
</g>
<g style="fill:#000000; fill-opacity:1.0; 
stroke:#000000; stroke-width:39.3701; stroke-opacity:1; 
stroke-linecap:round; stroke-linejoin:round;">
</g>
<g style="fill:#000000; fill-opacity:1.0; 
stroke:#000000; stroke-width:0; stroke-opacity:1; 
stroke-linecap:round; stroke-linejoin:round;">
<circle cx="30315" cy="15354.3" r="314.961" /> 
</g>
<g style="fill:#000000; fill-opacity:1.0; 
stroke:#000000; stroke-width:39.3701; stroke-opacity:1; 
stroke-linecap:round; stroke-linejoin:round;">
</g>
<g style="fill:#000000; fill-opacity:1.0; 
stroke:#000000; stroke-width:0; stroke-opacity:1; 
stroke-linecap:round; stroke-linejoin:round;">
<circle cx="28346.5" cy="15354.3" r="314.961" /> 
</g>
<g style="fill:#000000; fill-opacity:1.0; 
stroke:#000000; stroke-width:39.3701; stroke-opacity:1; 
stroke-linecap:round; stroke-linejoin:round;">
</g>
<g >
</g>
<g style="fill:#000000; fill-opacity:1.0; 
stroke:#000000; stroke-width:39.3701; stroke-opacity:1; 
stroke-linecap:round; stroke-linejoin:round;">
</g>
<g style="fill:#000000; fill-opacity:1.0; 
stroke:#000000; stroke-width:0; stroke-opacity:1; 
stroke-linecap:round; stroke-linejoin:round;">
<circle cx="26771.7" cy="15354.3" r="314.961" /> 
</g>
<g style="fill:#000000; fill-opacity:1.0; 
stroke:#000000; stroke-width:39.3701; stroke-opacity:1; 
stroke-linecap:round; stroke-linejoin:round;">
</g>
<g style="fill:#000000; fill-opacity:1.0; 
stroke:#000000; stroke-width:0; stroke-opacity:1; 
stroke-linecap:round; stroke-linejoin:round;">
<circle cx="24803.1" cy="15354.3" r="314.961" /> 
</g>
<g style="fill:#000000; fill-opacity:1.0; 
stroke:#000000; stroke-width:39.3701; stroke-opacity:1; 
stroke-linecap:round; stroke-linejoin:round;">
</g>
<g >
</g>
<g style="fill:#000000; fill-opacity:1.0; 
stroke:#000000; stroke-width:39.3701; stroke-opacity:1; 
stroke-linecap:round; stroke-linejoin:round;">
</g>
<g style="fill:#000000; fill-opacity:1.0; 
stroke:#000000; stroke-width:0; stroke-opacity:1; 
stroke-linecap:round; stroke-linejoin:round;">
<circle cx="29724.4" cy="5118.11" r="314.961" /> 
</g>
<g style="fill:#000000; fill-opacity:1.0; 
stroke:#000000; stroke-width:39.3701; stroke-opacity:1; 
stroke-linecap:round; stroke-linejoin:round;">
</g>
<g style="fill:#000000; fill-opacity:1.0; 
stroke:#000000; stroke-width:0; stroke-opacity:1; 
stroke-linecap:round; stroke-linejoin:round;">
<path style="fill:#000000; fill-opacity:1.0; 
stroke:#000000; stroke-width:0; stroke-opacity:1; 
stroke-linecap:round; stroke-linejoin:round;fill-rule:evenodd;"
d="M 30039.4,6417.32
29409.4,6417.32
29409.4,5787.4
30039.4,5787.4
Z" /> 
</g>
<g >
</g>
<g >
</g>
<g style="fill:#000000; fill-opacity:1.0; 
stroke:#000000; stroke-width:0; stroke-opacity:1; 
stroke-linecap:round; stroke-linejoin:round;">
</g>
<g style="fill:#000000; fill-opacity:1.0; 
stroke:#000000; stroke-width:78.7402; stroke-opacity:1; 
stroke-linecap:round; stroke-linejoin:round;">
</g>
<g style="fill:#000000; fill-opacity:0.0; 
stroke:#000000; stroke-width:78.7402; stroke-opacity:1; 
stroke-linecap:round; stroke-linejoin:round;">
<path d="M0 0
L0 196
" />
<path d="M196 0
L0 0
" />
<path d="M0 196
L196 0
" />
</g>
<g style="fill:#000000; fill-opacity:0.0; 
stroke:#000000; stroke-width:1181.1; stroke-opacity:1; 
stroke-linecap:round; stroke-linejoin:round;">
<path d="M2755 9645
L6988 9645
" />
<path d="M6988 9645
L8464 11122
" />
<path d="M13188 4724
L13188 9055
" />
<path d="M13188 9055
L11122 11122
" />
<path d="M11220 16929
L9350 15059
" />
<path d="M9350 15059
L9350 11122
" />
<path d="M9350 11122
L8464 11122
" />
<path d="M11122 11122
L9350 11122
" />
<path d="M20472 15748
L20472 17716
" />
<path d="M20472 17716
L19685 18503
" />
<path d="M15551 18503
L13976 16929
" />
<path d="M19685 18503
L15551 18503
" />
</g>
<g >
</g>
<g style="fill:#000000; fill-opacity:0.0; 
stroke:#000000; stroke-width:1181.1; stroke-opacity:1; 
stroke-linecap:round; stroke-linejoin:round;">
<g >
</g>
<g style="fill:#000000; fill-opacity:1.0; 
stroke:#000000; stroke-width:100; stroke-opacity:1; 
stroke-linecap:round; stroke-linejoin:round;">
<path style="fill:#000000; fill-opacity:1.0; 
stroke:#000000; stroke-width:100; stroke-opacity:1; 
stroke-linecap:round; stroke-linejoin:round;fill-rule:evenodd;"
d="M 31629.9,1288.73
31629.9,2743.14
31629.9,2743.14
31629.9,18491.2
31629.9,18491.2
31629.9,19971.1
30601,21000
27666.7,21000
26570.7,19904
26562.6,19894.1
26523,19861.6
26477.9,19837.5
26428.9,19822.7
26390.7,19818.9
26390.7,19818.9
26378,19817.6
26365.2,19818.9
22490.9,19818.9
22490.9,18355.2
27624,18355.2
27624,18652.6
27682,18944.3
27795.9,19219.1
27961.1,19466.4
28171.4,19676.7
28418.7,19841.9
28693.5,19955.8
28985.2,20013.8
29282.6,20013.8
29574.3,19955.8
29849,19841.9
30096.3,19676.7
30306.6,19466.4
30471.9,19219.1
30585.7,18944.3
30643.7,18652.6
30643.7,18355.2
30585.7,18063.5
30471.9,17788.8
30306.6,17541.5
30096.3,17331.2
29849,17165.9
29574.3,17052.1
29282.6,16994.1
28985.2,16994.1
28693.5,17052.1
28418.7,17165.9
28171.4,17331.2
27961.1,17541.5
27795.9,17788.8
27682,18063.5
27624,18355.2
22490.9,18355.2
22490.9,15298.7
24238.2,15298.7
24238.2,15410
24259.9,15519.1
24302.5,15621.9
24364.3,15714.5
24443,15793.2
24535.5,15855
24638.4,15897.6
24747.5,15919.3
24858.8,15919.3
24967.9,15897.6
25070.8,15855
25163.3,15793.2
25211.3,15745.2
26451.5,15745.2
26479.7,15841.2
26580.3,15888.8
26688.3,15915.9
26799.4,15921.3
26909.5,15905
27014.3,15867.6
27063.6,15841.2
27091.8,15745.2
26771.7,15425
26451.5,15745.2
25211.3,15745.2
25242,15714.5
25303.8,15621.9
25346.4,15519.1
25368.1,15410
25368.1,15382.1
26204.6,15382.1
26221,15492.2
26258.4,15597
26284.8,15646.3
26380.8,15674.4
26700.9,15354.3
26842.4,15354.3
27162.5,15674.4
27258.5,15646.3
27306.1,15545.7
27333.2,15437.7
27338.7,15326.6
27334.5,15298.7
27781.5,15298.7
27781.5,15410
27803.2,15519.1
27845.8,15621.9
27907.6,15714.5
27986.3,15793.2
28078.8,15855
28181.7,15897.6
28290.8,15919.3
28402.1,15919.3
28511.2,15897.6
28614.1,15855
28706.6,15793.2
28754.6,15745.2
29994.8,15745.2
30023,15841.2
30123.6,15888.8
30231.6,15915.9
30342.7,15921.3
30452.8,15905
30557.6,15867.6
30606.9,15841.2
30635.1,15745.2
30315,15425
29994.8,15745.2
28754.6,15745.2
28785.3,15714.5
28847.1,15621.9
28889.7,15519.1
28911.4,15410
28911.4,15382.1
29747.9,15382.1
29764.3,15492.2
29801.7,15597
29828.1,15646.3
29924.1,15674.4
30244.2,15354.3
30385.7,15354.3
30705.8,15674.4
30801.8,15646.3
30849.4,15545.7
30876.5,15437.7
30882,15326.6
30865.7,15216.5
30828.2,15111.7
30801.8,15062.4
30705.8,15034.2
30385.7,15354.3
30244.2,15354.3
29924.1,15034.2
29828.1,15062.4
29780.5,15163
29753.4,15270.9
29747.9,15382.1
28911.4,15382.1
28911.4,15298.7
28889.7,15189.5
28847.1,15086.7
28785.3,14994.2
28754.6,14963.5
29994.8,14963.5
30315,15283.6
30635.1,14963.5
30606.9,14867.5
30506.3,14819.9
30398.4,14792.8
30287.2,14787.3
30177.1,14803.6
30072.3,14841.1
30023,14867.5
29994.8,14963.5
28754.6,14963.5
28706.6,14915.5
28614.1,14853.7
28511.2,14811.1
28402.1,14789.4
28290.8,14789.4
28181.7,14811.1
28078.8,14853.7
27986.3,14915.5
27907.6,14994.2
27845.8,15086.7
27803.2,15189.5
27781.5,15298.7
27334.5,15298.7
27322.4,15216.5
27284.9,15111.7
27258.5,15062.4
27162.5,15034.2
26842.4,15354.3
26700.9,15354.3
26380.8,15034.2
26284.8,15062.4
26237.2,15163
26210.1,15270.9
26204.6,15382.1
25368.1,15382.1
25368.1,15298.7
25346.4,15189.5
25303.8,15086.7
25242,14994.2
25211.3,14963.5
26451.5,14963.5
26771.7,15283.6
27091.8,14963.5
27063.6,14867.5
26963,14819.9
26855,14792.8
26743.9,14787.3
26633.8,14803.6
26529,14841.1
26479.7,14867.5
26451.5,14963.5
25211.3,14963.5
25163.3,14915.5
25070.8,14853.7
24967.9,14811.1
24858.8,14789.4
24747.5,14789.4
24638.4,14811.1
24535.5,14853.7
24443,14915.5
24364.3,14994.2
24302.5,15086.7
24259.9,15189.5
24238.2,15298.7
22490.9,15298.7
22490.9,14000.7
27715.7,14000.7
27777.2,14124.9
27924.7,14200
28084.1,14244.9
28249.1,14257.8
28413.6,14238.3
28571,14187.1
28687.4,14124.9
28748.8,14000.7
28232.3,13484.1
27715.7,14000.7
22490.9,14000.7
22490.9,13430.2
27387.8,13430.2
27407.3,13594.7
27458.6,13752.1
27520.8,13868.5
27645,13929.9
28161.6,13413.4
28303,13413.4
28819.5,13929.9
28943.8,13868.5
29018.9,13721
29063.8,13561.6
29076.7,13396.5
29057.2,13232.1
29006,13074.7
28943.8,12958.3
28819.5,12896.8
28303,13413.4
28161.6,13413.4
27645,12896.8
27520.8,12958.3
27445.7,13105.8
27400.8,13265.2
27387.8,13430.2
22490.9,13430.2
22490.9,12826.1
27715.7,12826.1
28232.3,13342.7
28748.8,12826.1
28687.4,12701.9
28539.9,12626.8
28380.5,12581.9
28215.4,12568.9
28051,12588.5
27893.5,12639.7
27777.2,12701.9
27715.7,12826.1
22490.9,12826.1
22490.9,10433.1
22490,10423.3
22487.1,10413.9
22482.5,10405.3
22476.3,10397.7
22456,10377.4
26600.4,10377.4
26600.4,10488.7
26622.1,10597.9
26664.7,10700.7
26726.5,10793.2
26760.1,10826.8
26726.5,10860.3
26664.7,10952.9
26622.1,11055.7
26600.4,11164.8
26600.4,11276.1
26622.1,11385.3
26664.7,11488.1
26726.5,11580.6
26796.7,11650.8
26773.9,11657.7
26730.5,11680.9
26692.4,11712.1
26661.2,11750.2
26638,11793.6
26623.7,11840.8
26618.9,11889.8
26618.9,12519.7
26623.7,12568.7
26638,12615.8
26661.2,12659.2
26692.4,12697.3
26730.5,12728.6
26773.9,12751.8
26821.1,12766.1
26870.1,12770.9
27460.6,12770.9
27509.6,12766.1
27556.8,12751.8
27600.2,12728.6
27638.3,12697.3
27669.5,12659.2
27692.7,12615.8
27707,12568.7
27711.8,12519.7
27711.8,11889.8
27707,11840.8
27692.7,11793.6
27669.5,11750.2
27638.3,11712.1
27600.2,11680.9
27556.8,11657.7
27534,11650.8
27604.2,11580.6
27666,11488.1
27708.6,11385.3
27730.3,11276.1
27730.3,11164.8
27708.6,11055.7
27666,10952.9
27604.2,10860.3
27570.6,10826.8
27604.2,10793.2
27666,10700.7
27708.6,10597.9
27730.3,10488.7
27730.3,10377.4
27708.6,10268.3
27666,10165.5
27604.2,10072.9
27525.5,9994.24
27446.5,9941.46
27457.3,9935.7
27485.5,9839.65
27165.4,9519.53
26845.2,9839.65
26873.4,9935.7
26884.8,9941.07
26805.2,9994.24
26726.5,10072.9
26664.7,10165.5
26622.1,10268.3
26600.4,10377.4
22456,10377.4
21555.2,9476.58
26598.3,9476.58
26614.7,9586.67
26652.1,9691.45
26678.5,9740.75
26774.5,9768.94
27094.6,9448.82
27236.1,9448.82
27556.2,9768.94
27652.2,9740.75
27699.8,9640.16
27726.9,9532.21
27732.4,9421.06
27716.1,9310.97
27678.6,9206.18
27652.2,9156.88
27556.2,9128.7
27236.1,9448.82
27094.6,9448.82
26774.5,9128.7
26678.5,9156.88
26630.9,9257.48
26603.8,9365.43
26598.3,9476.58
21555.2,9476.58
21136.6,9057.99
26845.2,9057.99
27165.4,9378.11
27485.5,9057.99
27457.3,8961.94
27356.7,8914.34
27248.7,8887.28
27137.6,8881.8
27027.5,8898.12
26922.7,8935.59
26873.4,8961.94
26845.2,9057.99
21136.6,9057.99
20906,8827.42
27715.7,8827.42
27777.2,8951.66
27924.7,9026.78
28084.1,9071.67
28249.1,9084.61
28413.6,9065.09
28571,9013.88
28687.4,8951.66
28748.8,8827.42
28232.3,8310.87
27715.7,8827.42
20906,8827.42
20335.6,8257.02
27387.8,8257.02
27407.3,8421.44
27458.6,8578.89
27520.8,8695.29
27645,8756.71
28161.6,8240.16
28303,8240.16
28819.5,8756.71
28943.8,8695.29
29018.9,8547.74
29063.8,8388.37
29076.7,8223.3
29057.2,8058.88
29006,7901.42
28943.8,7785.02
28819.5,7723.6
28303,8240.16
28161.6,8240.16
27645,7723.6
27520.8,7785.02
27445.7,7932.58
27400.8,8091.95
27387.8,8257.02
20335.6,8257.02
19731.5,7652.89
27715.7,7652.89
28232.3,8169.45
28748.8,7652.89
28687.4,7528.66
28539.9,7453.54
28380.5,7408.64
28215.4,7395.71
28051,7415.22
27893.5,7466.44
27777.2,7528.66
27715.7,7652.89
19731.5,7652.89
18637.7,6559.13
18630.1,6552.91
18621.5,6548.29
18612.1,6545.45
18602.4,6544.49
15601.2,6544.49
15601.2,5787.4
26008.6,5787.4
26008.6,6417.32
26013.5,6466.33
26027.8,6513.46
26051,6556.89
26082.2,6594.95
26120.3,6626.2
26163.7,6649.41
26210.8,6663.71
26259.8,6668.53
26889.8,6668.53
26938.8,6663.71
26985.9,6649.41
27029.3,6626.2
27067.4,6594.95
27098.6,6556.89
27121.9,6513.46
27136.1,6466.33
27141,6417.32
27141,5787.4
29158.2,5787.4
29158.2,6417.32
29163.1,6466.33
29177.4,6513.46
29200.6,6556.89
29231.8,6594.95
29269.9,6626.2
29313.3,6649.41
29360.4,6663.71
29409.4,6668.53
30039.4,6668.53
30088.4,6663.71
30135.5,6649.41
30178.9,6626.2
30217,6594.95
30248.2,6556.89
30271.5,6513.46
30285.8,6466.33
30290.6,6417.32
30290.6,5787.4
30285.8,5738.39
30271.5,5691.27
30248.2,5647.84
30217,5609.77
30178.9,5578.53
30135.5,5555.31
30088.4,5541.02
30039.4,5536.19
30036.5,5536.19
30044.5,5508.94
29724.4,5188.82
29404.3,5508.94
29412.3,5536.19
29409.4,5536.19
29360.4,5541.02
29313.3,5555.31
29269.9,5578.53
29231.8,5609.77
29200.6,5647.84
29177.4,5691.27
29163.1,5738.39
29158.2,5787.4
27141,5787.4
27136.1,5738.39
27121.9,5691.27
27098.6,5647.84
27067.4,5609.77
27029.3,5578.53
26985.9,5555.31
26938.8,5541.02
26889.8,5536.19
26886.9,5536.19
26894.9,5508.94
26574.8,5188.82
26254.7,5508.94
26262.7,5536.19
26259.8,5536.19
26210.8,5541.02
26163.7,5555.31
26120.3,5578.53
26082.2,5609.77
26051,5647.84
26027.8,5691.27
26013.5,5738.39
26008.6,5787.4
15601.2,5787.4
15601.2,5145.87
26007.8,5145.87
26024.1,5255.96
26061.6,5360.74
26087.9,5410.04
26184,5438.23
26504.1,5118.11
26645.5,5118.11
26965.6,5438.23
27061.7,5410.04
27109.3,5309.45
27136.3,5201.5
27139.1,5145.87
29157.4,5145.87
29173.7,5255.96
29211.2,5360.74
29237.5,5410.04
29333.6,5438.23
29653.7,5118.11
29795.1,5118.11
30115.2,5438.23
30211.3,5410.04
30258.9,5309.45
30285.9,5201.5
30291.4,5090.35
30275.1,4980.26
30237.6,4875.48
30211.3,4826.18
30115.2,4797.99
29795.1,5118.11
29653.7,5118.11
29333.6,4797.99
29237.5,4826.18
29189.9,4926.77
29162.9,5034.72
29157.4,5145.87
27139.1,5145.87
27141.8,5090.35
27125.5,4980.26
27088,4875.48
27061.7,4826.18
26965.6,4797.99
26645.5,5118.11
26504.1,5118.11
26184,4797.99
26087.9,4826.18
26040.3,4926.77
26013.3,5034.72
26007.8,5145.87
15601.2,5145.87
15601.2,4662.34
16038.3,4662.34
16083.1,4772.48
16207.2,4833.84
16340.9,4869.82
16479,4879.03
16616.3,4861.12
16747.4,4816.77
16830.3,4772.48
16875.1,4662.34
16456.7,4243.94
16038.3,4662.34
15601.2,4662.34
15601.2,4195.54
15750.9,4195.54
15768.8,4332.8
15813.2,4463.94
15857.4,4546.8
15967.6,4591.63
16386,4173.23
16527.4,4173.23
16945.8,4591.63
17055.9,4546.8
17117.3,4422.72
17153.3,4289.04
17162.5,4150.92
17156.4,4104.01
21816.9,4104.01
21816.9,4242.44
21843.9,4378.21
21896.9,4506.11
21973.8,4621.21
22071.7,4719.09
22186.8,4796
22314.7,4848.98
22450.5,4875.98
22588.9,4875.98
22724.7,4848.98
22852.6,4796
22955.4,4727.28
26254.7,4727.28
26574.8,5047.4
26894.9,4727.28
29404.3,4727.28
29724.4,5047.4
30044.5,4727.28
30016.3,4631.23
29915.7,4583.63
29807.8,4556.57
29696.6,4551.1
29586.6,4567.41
29481.8,4604.88
29432.5,4631.23
29404.3,4727.28
26894.9,4727.28
26866.7,4631.23
26766.1,4583.63
26658.2,4556.57
26547,4551.1
26437,4567.41
26332.2,4604.88
26282.9,4631.23
26254.7,4727.28
22955.4,4727.28
22967.7,4719.09
23065.6,4621.21
23142.5,4506.11
23195.4,4378.21
23222.4,4242.44
23222.4,4104.01
23195.4,3968.24
23142.5,3840.35
23065.6,3725.25
22967.7,3627.36
22852.6,3550.45
22724.7,3497.48
22588.9,3470.47
22450.5,3470.47
22314.7,3497.48
22186.8,3550.45
22071.7,3627.36
21973.8,3725.25
21896.9,3840.35
21843.9,3968.24
21816.9,4104.01
17156.4,4104.01
17144.6,4013.65
17100.2,3882.52
17055.9,3799.65
16945.8,3754.83
16527.4,4173.23
16386,4173.23
15967.6,3754.83
15857.4,3799.65
15796.1,3923.74
15760.1,4057.41
15750.9,4195.54
15601.2,4195.54
15601.2,3684.11
16038.3,3684.11
16456.7,4102.52
16875.1,3684.11
16830.3,3573.98
16706.2,3512.61
16572.5,3476.63
16434.4,3467.42
16297.1,3485.34
16166,3529.69
16083.1,3573.98
16038.3,3684.11
15601.2,3684.11
15601.2,2607.2
27624,2607.2
27624,2904.61
27682,3196.31
27795.9,3471.08
27961.1,3718.37
28171.4,3928.68
28418.7,4093.91
28693.5,4207.73
28985.2,4265.75
29282.6,4265.75
29574.3,4207.73
29849,4093.91
30096.3,3928.68
30306.6,3718.37
30471.9,3471.08
30585.7,3196.31
30643.7,2904.61
30643.7,2607.2
30585.7,2315.5
30471.9,2040.73
30306.6,1793.44
30096.3,1583.13
29849,1417.9
29574.3,1304.09
29282.6,1246.06
28985.2,1246.06
28693.5,1304.09
28418.7,1417.9
28171.4,1583.13
27961.1,1793.44
27795.9,2040.73
27682,2315.5
27624,2607.2
15601.2,2607.2
15601.2,1440.94
26365.2,1440.94
26378,1442.2
26390.7,1440.94
26390.7,1440.94
26428.9,1437.19
26477.9,1422.33
26523,1398.2
26562.6,1365.73
26570.7,1355.81
27666.7,259.843
30601,259.843
Z" /> 
</g>
</g>
</g> 
</svg>
